<svg width="32" height="32" viewBox="0 0 32 32" fill="none" xmlns="http://www.w3.org/2000/svg">
<path d="M31.2026 7.16057L28.7276 9.63557L23.0706 3.97957L25.5456 1.50357C25.6367 1.40927 25.687 1.28297 25.6859 1.15187C25.6848 1.02078 25.6322 0.895369 25.5395 0.802665C25.4468 0.709961 25.3214 0.657377 25.1903 0.656238C25.0592 0.655098 24.9329 0.705496 24.8386 0.796575L24.4856 1.14957L19.1826 6.45357C19.0888 6.54734 19.0362 6.67449 19.0362 6.80707C19.0362 6.93966 19.0888 7.06681 19.1826 7.16057L19.5366 7.51457L18.8066 8.24457L18.3396 8.70957L16.5116 8.10057C16.4234 8.0714 16.3288 8.06727 16.2385 8.08863C16.1481 8.10999 16.0654 8.15601 15.9996 8.22157L15.6456 7.86757C15.4235 7.65246 15.1417 7.50933 14.837 7.45688C14.5323 7.40443 14.2188 7.4451 13.9376 7.57357L13.1706 6.80657L13.5236 6.45357C13.6173 6.35981 13.67 6.23266 13.67 6.10007C13.67 5.96749 13.6173 5.84034 13.5236 5.74657L8.22157 0.442575L7.86757 0.0895747C7.77327 -0.00150435 7.64697 -0.0519016 7.51587 -0.0507623C7.38478 -0.0496231 7.25937 0.00296132 7.16667 0.0956654C7.07396 0.188369 7.02138 0.313776 7.02024 0.444874C7.0191 0.575972 7.0695 0.702274 7.16057 0.796575L9.63557 3.27257L3.97857 8.92857L1.50357 6.45357C1.40927 6.3625 1.28297 6.3121 1.15187 6.31324C1.02078 6.31438 0.895369 6.36696 0.802665 6.45967C0.709961 6.55237 0.657377 6.67778 0.656238 6.80887C0.655098 6.93997 0.705496 7.06627 0.796575 7.16057L1.15057 7.51457L6.45357 12.8186C6.50002 12.8651 6.5552 12.9021 6.61594 12.9273C6.67669 12.9525 6.74181 12.9655 6.80757 12.9655C6.87334 12.9655 6.93846 12.9525 6.99921 12.9273C7.05995 12.9021 7.11513 12.8651 7.16157 12.8186L7.51557 12.4646L8.57657 13.5256H8.57757L8.70957 13.6596L8.10057 15.4876C8.07125 15.5755 8.06694 15.6699 8.08813 15.7601C8.10932 15.8503 8.15517 15.9329 8.22057 15.9986L7.86657 16.3526C7.64779 16.5722 7.50229 16.8542 7.45001 17.1598C7.39774 17.4654 7.44125 17.7797 7.57457 18.0596L6.80657 18.8276L6.45257 18.4736C6.3571 18.3831 6.23059 18.3327 6.09907 18.3327C5.96756 18.3327 5.84105 18.3831 5.74557 18.4736L0.442575 23.7776L0.0895747 24.1316C-0.00150435 24.2259 -0.0519016 24.3522 -0.0507623 24.4833C-0.0496231 24.6144 0.00296132 24.7398 0.0956654 24.8325C0.188369 24.9252 0.313776 24.9778 0.444874 24.9789C0.575972 24.9801 0.702274 24.9297 0.796575 24.8386L3.27157 22.3636L8.92857 28.0196L6.45357 30.4956C6.40715 30.5421 6.37034 30.5972 6.34524 30.658C6.32014 30.7187 6.30725 30.7837 6.3073 30.8494C6.30734 30.9151 6.32033 30.9802 6.34551 31.0408C6.3707 31.1015 6.40759 31.1567 6.45407 31.2031C6.50056 31.2495 6.55574 31.2863 6.61645 31.3114C6.67717 31.3365 6.74223 31.3494 6.80793 31.3494C6.87363 31.3493 6.93867 31.3363 6.99935 31.3111C7.06003 31.286 7.11515 31.2491 7.16157 31.2026L7.51457 30.8496L12.8176 25.5456C12.9113 25.4518 12.964 25.3247 12.964 25.1921C12.964 25.0595 12.9113 24.9323 12.8176 24.8386L12.4636 24.4846L13.1936 23.7546L13.6586 23.2896L15.4866 23.8986C15.5748 23.9273 15.6692 23.9312 15.7595 23.9098C15.8498 23.8885 15.9325 23.8427 15.9986 23.7776L16.3526 24.1316C16.5748 24.3464 16.8566 24.4894 17.1613 24.5419C17.4659 24.5943 17.7793 24.5538 18.0606 24.4256L18.8276 25.1926L18.4746 25.5456C18.3808 25.6393 18.3282 25.7665 18.3282 25.8991C18.3282 26.0317 18.3808 26.1588 18.4746 26.2526L23.7776 31.5566L24.1306 31.9096C24.1769 31.9564 24.232 31.9935 24.2928 32.0189C24.3535 32.0443 24.4187 32.0573 24.4846 32.0573C24.5504 32.0573 24.6156 32.0443 24.6764 32.0189C24.7371 31.9935 24.7923 31.9564 24.8386 31.9096C24.9323 31.8158 24.985 31.6887 24.985 31.5561C24.985 31.4235 24.9323 31.2963 24.8386 31.2026L22.3636 28.7266L28.0206 23.0706L30.4956 25.5456C30.5899 25.6367 30.7162 25.687 30.8473 25.6859C30.9784 25.6848 31.1038 25.6322 31.1965 25.5395C31.2892 25.4468 31.3418 25.3214 31.3429 25.1903C31.344 25.0592 31.2937 24.9329 31.2026 24.8386L30.8486 24.4846L25.5456 19.1806C25.4501 19.0901 25.3236 19.0397 25.1921 19.0397C25.0606 19.0397 24.934 19.0901 24.8386 19.1806L24.4846 19.5346L23.4236 18.4736H23.4226L23.2896 18.3396L23.8986 16.5116C23.9279 16.4236 23.9322 16.3293 23.911 16.2391C23.8898 16.1488 23.844 16.0663 23.7786 16.0006L24.1326 15.6466C24.5926 15.1856 24.6906 14.4976 24.4246 13.9396L25.1926 13.1716L25.5466 13.5256C25.593 13.5721 25.6482 13.6091 25.7089 13.6343C25.7697 13.6595 25.8348 13.6725 25.9006 13.6725C25.9663 13.6725 26.0315 13.6595 26.0922 13.6343C26.153 13.6091 26.2081 13.5721 26.2546 13.5256L31.5576 8.22157L31.9116 7.86757C31.958 7.82102 31.9948 7.76578 32.0199 7.705C32.0449 7.64423 32.0578 7.57911 32.0577 7.51337C32.0576 7.44762 32.0446 7.38254 32.0193 7.32184C31.9941 7.26113 31.9571 7.206 31.9106 7.15957C31.864 7.11315 31.8088 7.07635 31.748 7.05128C31.6872 7.02621 31.6221 7.01335 31.5564 7.01344C31.4906 7.01354 31.4255 7.02658 31.3648 7.05182C31.3041 7.07707 31.249 7.11402 31.2026 7.16057ZM4.68557 9.63557L10.3426 3.97857L12.4636 6.09957L12.1106 6.45257L9.63557 8.92857L6.80757 11.7576L4.68557 9.63557ZM8.22157 11.7576L10.3426 9.63557L12.4636 7.51357L13.5246 8.57358C13.6202 8.66409 13.7469 8.71453 13.8786 8.71453C14.0103 8.71453 14.1369 8.66409 14.2326 8.57358C14.3278 8.48267 14.4544 8.43196 14.5861 8.43196C14.7177 8.43196 14.8443 8.48267 14.9396 8.57358L15.2936 8.92758L14.2326 9.98857L9.36657 14.8546L9.75657 13.6836C9.78598 13.5954 9.79023 13.5008 9.76886 13.4104C9.74749 13.3199 9.70133 13.2372 9.63557 13.1716L8.95157 12.4876L8.22157 11.7576ZM9.63557 27.3136L3.97857 21.6566L6.10057 19.5346L8.92857 22.3636L11.4036 24.8386L11.7566 25.1916L9.63557 27.3136ZM15.5106 22.8526L13.6826 22.2436C13.5944 22.2142 13.4998 22.2099 13.4094 22.2313C13.3189 22.2527 13.2362 22.2988 13.1706 22.3646L12.8166 22.7186L12.4866 23.0486L11.7566 23.7786L9.63557 21.6566L7.51457 19.5346L8.57557 18.4736C8.77057 18.2786 8.77057 17.9616 8.57557 17.7666C8.38058 17.5716 8.38058 17.2546 8.57557 17.0596L14.9406 10.6956C15.0358 10.6047 15.1624 10.554 15.2941 10.554C15.4257 10.554 15.5523 10.6047 15.6476 10.6956C15.7411 10.7896 15.7936 10.9169 15.7936 11.0496C15.7936 11.1822 15.7411 11.3095 15.6476 11.4036L14.2336 12.8176C14.1425 12.9119 14.0921 13.0382 14.0932 13.1693C14.0944 13.3004 14.147 13.4258 14.2397 13.5185C14.3324 13.6112 14.4578 13.6638 14.5889 13.6649C14.72 13.6661 14.8463 13.6157 14.9406 13.5246L16.3546 12.1106C16.4501 12.0198 16.5768 11.9692 16.7086 11.9692C16.8403 11.9692 16.967 12.0198 17.0626 12.1106C17.1091 12.1569 17.146 12.212 17.1712 12.2727C17.1964 12.3334 17.2094 12.3984 17.2094 12.4641C17.2094 12.5298 17.1964 12.5948 17.1712 12.6555C17.146 12.7161 17.1091 12.7712 17.0626 12.8176L15.6486 14.2316C15.5548 14.3255 15.5022 14.4527 15.5023 14.5854C15.5024 14.7181 15.5552 14.8453 15.6491 14.9391C15.743 15.0328 15.8702 15.0854 16.0029 15.0854C16.1356 15.0853 16.2628 15.0325 16.3566 14.9386L17.7706 13.5246C17.8649 13.4335 17.9912 13.3831 18.1223 13.3842C18.2534 13.3854 18.3788 13.438 18.4715 13.5307C18.5642 13.6234 18.6168 13.7488 18.6179 13.8799C18.6191 14.011 18.5687 14.1373 18.4776 14.2316L17.0626 15.6456C16.9688 15.7395 16.9162 15.8667 16.9163 15.9994C16.9164 16.1321 16.9692 16.2593 17.0631 16.3531C17.157 16.4468 17.2842 16.4994 17.4169 16.4994C17.5496 16.4993 17.6768 16.4465 17.7706 16.3526L19.1856 14.9386C19.2808 14.8477 19.4074 14.797 19.5391 14.797C19.6707 14.797 19.7973 14.8477 19.8926 14.9386C19.9863 15.0323 20.039 15.1595 20.039 15.2921C20.039 15.4247 19.9863 15.5518 19.8926 15.6456L16.9286 18.6096L16.9246 18.6136L14.9936 20.5446C14.9025 20.6389 14.8521 20.7652 14.8532 20.8963C14.8544 21.0274 14.907 21.1528 14.9997 21.2455C15.0924 21.3382 15.2178 21.3908 15.3489 21.3919C15.48 21.3931 15.6063 21.3427 15.7006 21.2516L16.0006 20.9516L16.0036 20.9496L17.6346 19.3186C17.837 19.117 18.1034 18.9921 18.3878 18.9655C18.6723 18.9388 18.9572 19.012 19.1936 19.1726L15.5106 22.8526ZM27.3136 22.3636L21.6566 28.0206L19.5356 25.8996L19.8886 25.5466L22.3636 23.0716L25.1916 20.2426L27.3136 22.3636ZM23.7776 20.2416L21.6566 22.3636L19.5356 24.4856L18.4746 23.4256C18.3788 23.3353 18.2522 23.285 18.1206 23.285C17.989 23.285 17.8623 23.3353 17.7666 23.4256C17.6713 23.5165 17.5447 23.5672 17.4131 23.5672C17.2814 23.5672 17.1548 23.5165 17.0596 23.4256L16.7056 23.0716L20.2646 19.5116C20.3214 19.4524 20.3624 19.3798 20.3836 19.3006C20.4629 19.2796 20.5356 19.2386 20.5946 19.1816L22.6326 17.1446L22.2416 18.3166C22.2122 18.4047 22.2079 18.4993 22.2293 18.5898C22.2507 18.6802 22.2968 18.7629 22.3626 18.8286L23.0466 19.5126L23.7776 20.2416ZM24.4846 12.4646L23.4236 13.5256C23.2286 13.7206 23.2286 14.0376 23.4236 14.2326C23.6186 14.4276 23.6186 14.7446 23.4236 14.9396L19.8946 18.4676C19.6182 18.2399 19.2909 18.0824 18.9406 18.0086L20.5956 16.3536C20.8765 16.0722 21.0343 15.6907 21.0343 15.2931C21.0343 14.8954 20.8765 14.514 20.5956 14.2326C20.3293 13.9774 19.9773 13.8308 19.6086 13.8216C19.5982 13.4453 19.4457 13.0869 19.1816 12.8186C18.9184 12.56 18.5683 12.4088 18.1996 12.3946C18.1849 12.0221 18.0307 11.6687 17.7676 11.4046C17.5013 11.1494 17.1493 11.0028 16.7806 10.9936C16.7705 10.6167 16.6175 10.2578 16.3526 9.98957C16.2277 9.8716 16.0823 9.77739 15.9236 9.71157L16.4876 9.14757L18.3156 9.75657C18.4037 9.78598 18.4983 9.79023 18.5888 9.76886C18.6792 9.74749 18.7619 9.70133 18.8276 9.63557L19.1816 9.28157L19.5116 8.95157L20.2416 8.22157L22.3626 10.3436L24.4846 12.4646ZM25.8986 12.4646L23.0706 9.63557L20.5956 7.16057L20.2426 6.80757L22.3636 4.68657L28.0206 10.3436L25.8986 12.4646Z" fill="#0967D2"/>
</svg>
