<svg width="32" height="32" viewBox="0 0 32 32" fill="none" xmlns="http://www.w3.org/2000/svg">
<path fill-rule="evenodd" clip-rule="evenodd" d="M25.4595 20.7581H19.8113C19.6894 20.7581 19.5687 20.7341 19.456 20.6874C19.3434 20.6407 19.241 20.5723 19.1548 20.4861C19.0686 20.3998 19.0003 20.2974 18.9537 20.1847C18.9071 20.0721 18.8831 19.9513 18.8832 19.8294V17.0056C18.8832 16.8813 18.8338 16.7621 18.7459 16.6742C18.658 16.5863 18.5388 16.5369 18.4145 16.5369C18.2901 16.5369 18.1709 16.5863 18.083 16.6742C17.9951 16.7621 17.9457 16.8813 17.9457 17.0056V19.8294C17.9457 20.3242 18.1422 20.7988 18.4921 21.1488C18.8419 21.4988 19.3165 21.6955 19.8113 21.6956H25.4613C25.5856 21.6956 25.7049 21.6462 25.7928 21.5583C25.8807 21.4704 25.9301 21.3512 25.9301 21.2269C25.9301 21.1026 25.8807 20.9833 25.7928 20.8954C25.7049 20.8075 25.5856 20.7581 25.4613 20.7581H25.4595ZM10.4601 12.3556C10.7054 12.3541 10.9402 12.2556 11.1132 12.0816C11.2861 11.9076 11.3832 11.6722 11.3832 11.4269V11.4038C11.3831 11.1587 11.4313 10.916 11.525 10.6896C11.6188 10.4632 11.7562 10.2575 11.9294 10.0842C12.1027 9.91084 12.3084 9.77337 12.5347 9.67957C12.7611 9.58578 13.0038 9.5375 13.2488 9.5375H14.9363C15.0606 9.5375 15.1799 9.58689 15.2678 9.67479C15.3557 9.7627 15.4051 9.88193 15.4051 10.0063C15.4051 10.1306 15.3557 10.2498 15.2678 10.3377C15.1799 10.4256 15.0606 10.475 14.9363 10.475H13.2488C13.0026 10.4752 12.7665 10.5731 12.5925 10.7472C12.4185 10.9214 12.3207 11.1575 12.3207 11.4038V11.4269C12.3209 11.6911 12.2649 11.9524 12.1564 12.1933C12.0479 12.4343 11.8893 12.6494 11.6913 12.8244C11.8893 12.9994 12.0479 13.2145 12.1564 13.4554C12.2649 13.6964 12.3209 13.9576 12.3207 14.2219V14.245C12.3207 14.4912 12.4185 14.7272 12.5925 14.9013C12.7666 15.0753 13.0027 15.1731 13.2488 15.1731H14.9363C14.9979 15.1731 15.0588 15.1852 15.1157 15.2088C15.1726 15.2324 15.2243 15.2669 15.2678 15.3104C15.3113 15.3539 15.3458 15.4056 15.3694 15.4625C15.393 15.5194 15.4051 15.5803 15.4051 15.6419C15.4051 15.7034 15.393 15.7644 15.3694 15.8213C15.3458 15.8781 15.3113 15.9298 15.2678 15.9733C15.2243 16.0169 15.1726 16.0514 15.1157 16.0749C15.0588 16.0985 14.9979 16.1106 14.9363 16.1106H13.2488C12.754 16.1106 12.2795 15.9141 11.9296 15.5642C11.5798 15.2143 11.3832 14.7398 11.3832 14.245V14.2219C11.3832 13.9756 11.2854 13.7393 11.1112 13.5651C10.937 13.391 10.7008 13.2931 10.4545 13.2931H9.23633C9.11201 13.2931 8.99278 13.2437 8.90487 13.1558C8.81696 13.0679 8.76758 12.9487 8.76758 12.8244C8.76758 12.7001 8.81696 12.5808 8.90487 12.4929C8.99278 12.405 9.11201 12.3556 9.23633 12.3556H10.4601ZM20.587 16.1106H25.4826C25.6069 16.1106 25.7261 16.0612 25.814 15.9733C25.9019 15.8854 25.9513 15.7662 25.9513 15.6419C25.9513 15.5176 25.9019 15.3983 25.814 15.3104C25.7261 15.2225 25.6069 15.1731 25.4826 15.1731H20.587C20.4626 15.1731 20.3434 15.2225 20.2555 15.3104C20.1676 15.3983 20.1182 15.5176 20.1182 15.6419C20.1182 15.7662 20.1676 15.8854 20.2555 15.9733C20.3434 16.0612 20.4626 16.1106 20.587 16.1106ZM25.4826 5.3125H19.0613C18.5664 5.3125 18.0917 5.50912 17.7417 5.85911C17.3917 6.2091 17.1951 6.68379 17.1951 7.17875V8.64625C17.1951 8.77057 17.2445 8.8898 17.3324 8.97771C17.4203 9.06561 17.5395 9.115 17.6638 9.115C17.7881 9.115 17.9074 9.06561 17.9953 8.97771C18.0832 8.8898 18.1326 8.77057 18.1326 8.64625V7.17562C18.1334 6.92985 18.2316 6.69442 18.4057 6.52092C18.5798 6.34742 18.8155 6.25 19.0613 6.25H25.4826C25.6069 6.25 25.7261 6.20061 25.814 6.11271C25.9019 6.0248 25.9513 5.90557 25.9513 5.78125C25.9513 5.65693 25.9019 5.5377 25.814 5.44979C25.7261 5.36189 25.6069 5.3125 25.4826 5.3125Z" fill="#544F57"/>
<path d="M4.41868 15.9294C3.70948 15.6068 3.13208 15.0512 2.78251 14.355C2.43295 13.6587 2.33229 12.8638 2.49729 12.1024C2.66229 11.341 3.083 10.659 3.68943 10.1699C4.29586 9.68079 5.05147 9.41406 5.83055 9.41406C6.60964 9.41406 7.36524 9.68079 7.97167 10.1699C8.5781 10.659 8.99881 11.341 9.16381 12.1024C9.32881 12.8638 9.22815 13.6587 8.87859 14.355C8.52903 15.0512 7.95162 15.6068 7.24243 15.9294H4.41868Z" fill="#61A2F9"/>
<path d="M26.8246 19.8636H29.7502C29.9317 19.8597 30.1122 19.8921 30.281 19.9589C30.4498 20.0256 30.6036 20.1255 30.7333 20.2524C30.8631 20.3794 30.9662 20.5311 31.0365 20.6984C31.1069 20.8658 31.1432 21.0455 31.1432 21.227C31.1432 21.4086 31.1069 21.5883 31.0365 21.7556C30.9662 21.923 30.8631 22.0746 30.7333 22.2016C30.6036 22.3286 30.4498 22.4284 30.281 22.4952C30.1122 22.562 29.9317 22.5943 29.7502 22.5905H26.8246C26.6431 22.5943 26.4626 22.562 26.2938 22.4952C26.125 22.4284 25.9712 22.3286 25.8415 22.2016C25.7117 22.0746 25.6086 21.923 25.5383 21.7556C25.4679 21.5883 25.4316 21.4086 25.4316 21.227C25.4316 21.0455 25.4679 20.8658 25.5383 20.6984C25.6086 20.5311 25.7117 20.3794 25.8415 20.2524C25.9712 20.1255 26.125 20.0256 26.2938 19.9589C26.4626 19.8921 26.6431 19.8597 26.8246 19.8636Z" fill="#86F1A7"/>
<path d="M16.2974 17.0054H19.2237C19.4052 17.0093 19.5856 16.9769 19.7545 16.9101C19.9233 16.8433 20.0771 16.7435 20.2068 16.6165C20.3366 16.4895 20.4396 16.3379 20.51 16.1706C20.5804 16.0032 20.6166 15.8235 20.6166 15.642C20.6166 15.4604 20.5804 15.2807 20.51 15.1133C20.4396 14.946 20.3366 14.7944 20.2068 14.6674C20.0771 14.5404 19.9233 14.4406 19.7545 14.3738C19.5856 14.307 19.4052 14.2746 19.2237 14.2785H16.2974C15.9409 14.2862 15.6015 14.4332 15.3521 14.688C15.1026 14.9429 14.9629 15.2853 14.9629 15.642C14.9629 15.9986 15.1026 16.341 15.3521 16.5959C15.6015 16.8508 15.9409 16.9978 16.2974 17.0054ZM16.2974 11.3698H19.2237C19.4052 11.3737 19.5856 11.3413 19.7545 11.2745C19.9233 11.2077 20.0771 11.1079 20.2068 10.9809C20.3366 10.8539 20.4396 10.7023 20.51 10.5349C20.5804 10.3676 20.6166 10.1879 20.6166 10.0063C20.6166 9.82478 20.5804 9.64506 20.51 9.47771C20.4396 9.31036 20.3366 9.15874 20.2068 9.03174C20.0771 8.90475 19.9233 8.80494 19.7545 8.73817C19.5856 8.6714 19.4052 8.639 19.2237 8.64289H16.2974C15.9409 8.65052 15.6015 8.79753 15.3521 9.05239C15.1026 9.30725 14.9629 9.6497 14.9629 10.0063C14.9629 10.363 15.1026 10.7054 15.3521 10.9603C15.6015 11.2151 15.9409 11.3621 16.2974 11.3698Z" fill="#DD636E"/>
<path d="M26.8463 7.14191H29.7725C30.1291 7.13428 30.4685 6.98728 30.7179 6.73241C30.9674 6.47755 31.1071 6.13511 31.1071 5.77848C31.1071 5.42184 30.9674 5.0794 30.7179 4.82454C30.4685 4.56967 30.1291 4.42267 29.7725 4.41504H26.8463C26.4897 4.42267 26.1504 4.56967 25.9009 4.82454C25.6514 5.0794 25.5117 5.42184 25.5117 5.77848C25.5117 6.13511 25.6514 6.47755 25.9009 6.73241C26.1504 6.98728 26.4897 7.13428 26.8463 7.14191ZM26.8463 17.0056H29.7725C30.1291 16.998 30.4685 16.851 30.7179 16.5962C30.9674 16.3413 31.1071 15.9988 31.1071 15.6422C31.1071 15.2856 30.9674 14.9431 30.7179 14.6883C30.4685 14.4334 30.1291 14.2864 29.7725 14.2788H26.8463C26.4897 14.2864 26.1504 14.4334 25.9009 14.6883C25.6514 14.9431 25.5117 15.2856 25.5117 15.6422C25.5117 15.9988 25.6514 16.3413 25.9009 16.5962C26.1504 16.851 26.4897 16.998 26.8463 17.0056Z" fill="#86F1A7"/>
<path d="M5.91328 11.7259C5.17953 11.7109 4.48953 12.3271 4.47578 13.1084L4.34141 19.6877C4.33961 19.7704 4.31869 19.8515 4.28029 19.9246C4.24189 19.9978 4.18706 20.0611 4.12009 20.1096C4.05312 20.158 3.97583 20.1903 3.8943 20.2038C3.81277 20.2174 3.7292 20.2119 3.65016 20.1877L1.97828 19.6759C1.40078 19.5002 0.874531 20.1415 0.863281 20.7452C0.877917 20.9805 0.93877 21.2107 1.04236 21.4225C1.14596 21.6343 1.29026 21.8236 1.46703 21.9796C4.73328 25.1777 3.48578 25.5884 5.08266 26.8127C5.57078 27.1877 6.13328 27.4846 6.79703 27.5002L11.1314 27.5871C11.4746 27.5949 11.8159 27.5348 12.1358 27.4103C12.4557 27.2858 12.7478 27.0992 12.9954 26.8615C13.243 26.6237 13.4411 26.3394 13.5785 26.0248C13.7159 25.7102 13.7897 25.3716 13.7958 25.0284L13.8883 20.444C13.8958 20.1008 13.8355 19.7595 13.7109 19.4397C13.5862 19.1199 13.3997 18.8279 13.1619 18.5803C12.9241 18.3328 12.6398 18.1346 12.3252 17.9972C12.0107 17.8598 11.6721 17.7859 11.3289 17.7796L7.73828 17.6977C7.59682 17.6944 7.46242 17.6353 7.3645 17.5331C7.26657 17.431 7.2131 17.2942 7.21578 17.1527C7.24016 15.9577 7.29641 13.1677 7.29641 13.1677C7.30122 12.982 7.26916 12.7971 7.20209 12.6239C7.13501 12.4506 7.03425 12.2923 6.90563 12.1583C6.77701 12.0242 6.62308 11.9169 6.45275 11.8427C6.28242 11.7685 6.09906 11.7288 5.91328 11.7259Z" fill="#F1D0A5"/>
</svg>
