<svg width="265" height="32" viewBox="0 0 265 32" fill="none" xmlns="http://www.w3.org/2000/svg">
<path fill-rule="evenodd" clip-rule="evenodd" d="M27.6654 0.0921388C27.6272 0.130356 27.0002 0.193165 26.2721 0.231803C25.544 0.270302 24.4109 0.397738 23.754 0.51492C23.0971 0.632101 22.4016 0.754761 22.2084 0.787359C21.3474 0.932641 20.5228 1.20663 20.5271 1.34587C20.5298 1.42947 20.6736 2.09856 20.8464 2.8327C21.1191 3.99102 21.2021 4.1734 21.4739 4.21246C21.646 4.23705 21.7869 4.1859 21.7869 4.09879C21.7869 4.01153 21.8461 3.97669 21.9184 4.02137C21.9908 4.06619 22.3227 4.03444 22.6561 3.95084C22.9895 3.86738 23.3571 3.79628 23.473 3.79277C23.5889 3.78926 24.1579 3.68514 24.7375 3.56136C26.1306 3.26377 31.8409 3.23145 33.0976 3.51401C35.2049 3.98793 36.7618 4.40411 36.8842 4.52621C36.9576 4.59941 37.0989 4.65927 37.1981 4.65927C37.2973 4.65927 37.7671 4.84754 38.2422 5.07769C38.7174 5.30784 39.1767 5.45565 39.2631 5.40633C39.3497 5.35715 39.3751 5.36685 39.3197 5.42811C39.2644 5.48951 39.3769 5.66374 39.57 5.81563C39.8652 6.04788 39.959 6.06263 40.1623 5.90906C40.365 5.75605 40.3763 5.7576 40.2333 5.91847C40.0969 6.07205 40.125 6.16267 40.3738 6.37188C42.6022 8.24496 43.5679 10.1071 43.5631 12.5219C43.561 13.6179 43.2498 15.2513 42.9816 15.5746C42.8973 15.6761 42.8692 15.7592 42.9191 15.7592C42.9689 15.7592 42.908 15.9144 42.7836 16.1043C42.6593 16.2941 42.5942 16.5088 42.639 16.5813C42.6838 16.6539 42.6195 16.752 42.4961 16.7995C42.3726 16.8468 42.3058 16.9747 42.3475 17.0836C42.3892 17.1925 42.3354 17.3153 42.2279 17.3566C42.1204 17.3978 41.9052 17.681 41.7496 17.9858C41.5941 18.2905 41.3845 18.6256 41.2837 18.7303C40.6679 19.3696 40.241 20.1351 40.6364 19.8907C40.7409 19.8261 40.7602 19.8524 40.6908 19.9649C40.6202 20.0789 40.5351 20.0915 40.4452 20.0016C40.3551 19.9115 40.0289 20.1449 39.5035 20.6752C39.0613 21.1214 38.0538 21.9624 37.2644 22.5439C36.4752 23.1255 35.8786 23.6285 35.9388 23.6616C35.9989 23.6948 35.9611 23.6996 35.8547 23.6723C35.7484 23.645 35.5739 23.6954 35.4668 23.784C35.0946 24.093 32.1755 25.6079 31.8246 25.6742C31.7428 25.6897 31.3267 25.8621 30.8999 26.0572C30.4732 26.2524 29.8448 26.4918 29.5032 26.5892C29.1618 26.6867 28.73 26.8979 28.5437 27.0586C28.3574 27.2194 28.257 27.2611 28.3208 27.1514C28.4084 27.0007 28.3768 26.9749 28.1914 27.046C28.0565 27.0978 27.8565 27.1401 27.7469 27.1401C27.5333 27.1401 27.4636 27.7741 27.6635 27.8977C27.7273 27.9372 27.8958 28.4783 28.0379 29.1003C28.1799 29.7223 28.355 30.2312 28.4269 30.2312C28.7439 30.2312 30.582 29.6196 30.709 29.4718C30.7863 29.3819 31.0392 29.2946 31.271 29.2778C31.5029 29.2609 31.7652 29.1491 31.854 29.0292C31.9429 28.9091 32.0376 28.8761 32.0647 28.9556C32.093 29.0382 32.4702 28.93 32.9474 28.7023C33.4923 28.4422 33.7112 28.2737 33.5797 28.2154C33.4691 28.1664 33.5065 28.157 33.6628 28.1946C33.8192 28.2321 34.1758 28.1404 34.4554 27.9905C34.7349 27.8407 35.0021 27.7567 35.0492 27.8039C35.0964 27.8509 35.1349 27.8186 35.1349 27.7321C35.1349 27.6457 35.4168 27.4501 35.7612 27.2978C36.2514 27.081 36.3756 26.9591 36.3329 26.7373C36.293 26.5303 36.3357 26.4758 36.4911 26.5355C36.6653 26.6024 36.6699 26.6416 36.5166 26.7513C36.067 27.0734 36.836 26.7112 37.3886 26.3408C37.7126 26.1236 38.1771 25.8194 38.4209 25.6648C39.2215 25.1573 39.7616 24.7087 39.6974 24.6046C39.6626 24.5484 39.7404 24.4161 39.8704 24.3108C40.0328 24.1791 40.0735 24.174 40.001 24.2949C39.7851 24.6544 40.1532 24.453 40.6592 23.9348C40.9469 23.6401 41.1372 23.3538 41.0818 23.2984C40.8926 23.1092 40.9222 22.7968 41.1467 22.615C41.3363 22.4614 41.3512 22.4659 41.2427 22.6439C41.0606 22.9428 41.0401 23.1918 41.1897 23.2844C41.3738 23.398 43.5811 21.0651 43.4975 20.8452C43.4593 20.7446 43.4812 20.6951 43.5463 20.7353C43.673 20.8137 44.5488 19.6746 44.5488 19.4314C44.5488 19.3513 44.6595 19.2214 44.7947 19.1426C44.9298 19.0637 44.9908 18.9974 44.9301 18.995C44.8694 18.9928 44.98 18.7549 45.176 18.4664C45.372 18.178 45.5323 17.8767 45.5323 17.7969C45.5323 17.7171 45.6501 17.4315 45.7939 17.1621C46.1108 16.5688 46.5626 15.0567 46.4552 14.9492C46.4126 14.9066 46.4556 14.778 46.5507 14.6635C46.8386 14.3165 46.8667 11.594 46.594 10.4685C46.4658 9.93946 46.3229 9.41186 46.2767 9.29594C46.2303 9.18002 46.1758 9.0051 46.1555 8.90716C46.0779 8.53342 45.0876 6.62634 44.971 6.62634C44.9038 6.62634 44.8087 6.50031 44.7598 6.34617C44.6653 6.04844 42.5064 3.81623 42.3131 3.81623C42.2503 3.81623 41.972 3.63596 41.6948 3.41565C41.4176 3.19534 40.6344 2.7394 39.9542 2.40247C38.7083 1.78509 38.4909 1.70064 38.0607 1.66692C37.9311 1.65681 37.8498 1.60861 37.8798 1.56C37.9605 1.42933 36.9691 1.15253 36.7381 1.24119C36.6291 1.28306 36.54 1.24723 36.54 1.16167C36.54 1.0761 36.4262 1.00613 36.2871 1.00613C36.148 1.00613 35.974 0.950767 35.9007 0.883184C35.4402 0.458858 28.0123 -0.254629 27.6654 0.0921388ZM17.4313 2.17991C16.6971 2.42298 16.0332 2.661 15.9559 2.70891C15.8787 2.75668 15.5625 2.87415 15.2534 2.96983C14.4024 3.23342 11.3231 4.75944 10.0547 5.54627C6.90989 7.49733 4.28258 10.0094 2.50055 12.7694C1.84678 13.7817 1.02384 15.7051 0.756317 16.846C0.420369 18.278 0.422758 20.9367 0.761235 22.2224C1.26649 24.1419 2.91926 26.6859 4.39288 27.8123C6.00911 29.0478 6.04395 29.0684 8.7869 30.4178C8.93963 30.493 9.69836 30.7424 10.473 30.9721C13.2778 31.8041 15.2524 32.0509 18.6255 31.9916C21.3929 31.943 22.8921 31.7727 25.204 31.2448C26.7112 30.9006 26.8583 30.8395 26.7941 30.5835C26.4686 29.2856 26.0941 28.0328 26.0022 27.9347C25.9411 27.8693 25.3944 27.9196 24.7874 28.0464C21.6079 28.71 17.0353 29.0056 15.1832 28.6674C12.3683 28.1532 11.3134 27.8959 10.1952 27.4508C7.29712 26.2971 5.34789 24.6511 4.3326 22.5002C2.34023 18.2796 5.04623 12.7971 11.1085 8.772C11.6881 8.38715 12.4517 7.91238 12.8057 7.7168C13.1595 7.52122 13.5704 7.29191 13.719 7.20705C14.8655 6.55173 19.061 4.94028 19.6203 4.94028C19.8665 4.94028 19.8665 4.92763 19.6178 4.27568C19.5068 3.98442 19.3085 3.28765 19.1773 2.72732C19.0461 2.16698 18.9 1.71526 18.8525 1.72327C18.805 1.73127 18.1654 1.93683 17.4313 2.17991ZM59.9219 2.44546C58.7276 2.57402 56.7879 3.2299 55.6774 3.88086C53.8254 4.96627 52.1623 7.03479 51.3741 9.23356C50.554 11.5208 50.5174 14.7047 51.2846 17.0237C51.5465 17.8158 52.0048 18.8655 52.1435 18.9908C52.1862 19.0294 52.3647 19.2973 52.5402 19.586C53.0293 20.3909 54.6076 21.7342 55.7109 22.2845C57.5802 23.2169 60.1895 23.6573 62.1119 23.365C63.4414 23.1628 65.016 22.8307 65.9407 22.5573L66.7486 22.3184V20.0224C66.7486 18.7595 66.7207 17.7263 66.6864 17.7263C66.6522 17.7263 66.4151 17.8489 66.1595 17.9988C65.9039 18.1489 65.2206 18.4492 64.641 18.6662C63.6752 19.0282 63.4348 19.0601 61.7607 19.0493C59.9961 19.0379 59.9039 19.0223 59.0443 18.5881C57.6635 17.8906 56.7337 16.8588 56.277 15.5172C55.7576 13.9914 55.88 11.2866 56.5321 9.88157C56.9607 8.95774 58.107 7.79015 59.0551 7.31159C60.8248 6.41825 63.6973 6.48527 65.728 7.46726C66.2099 7.70022 66.6368 7.89089 66.6764 7.89089C66.7162 7.89089 66.7486 6.82853 66.7486 5.52998V3.16907L65.73 2.83691C64.5743 2.46008 61.6296 2.26168 59.9219 2.44546ZM153.23 2.77691C152.098 3.03741 151.296 3.28034 151.109 3.41874C151.025 3.48155 150.904 3.4859 150.841 3.42858C150.778 3.37139 150.765 3.43195 150.812 3.56318C150.872 3.73221 150.838 3.77928 150.695 3.72448C150.473 3.63933 149.222 4.31109 149.043 4.61149C148.981 4.71505 148.842 4.79977 148.733 4.79977C148.518 4.79977 147.589 5.88897 147.643 6.07795C147.661 6.14216 147.593 6.16267 147.491 6.12347C147.141 5.98901 145.357 9.07703 145.527 9.52215C145.583 9.66729 145.564 9.72884 145.479 9.67657C145.279 9.55279 145.008 11.0597 144.916 12.8086C144.81 14.8161 145.119 16.5578 145.857 18.1183C146.177 18.7966 146.473 19.2529 146.557 19.2007C146.638 19.151 146.694 19.1625 146.683 19.2263C146.629 19.5403 146.734 19.7432 147.145 20.1195C147.547 20.4866 147.619 20.5078 147.825 20.3211C148.031 20.1349 148.085 20.1466 148.324 20.4299L148.593 20.7471L148.297 20.4977C148.03 20.2725 147.983 20.2695 147.819 20.4681C147.665 20.6533 147.686 20.7258 147.953 20.9282C148.126 21.0605 148.432 21.3132 148.633 21.4898C148.833 21.6665 149.083 21.7779 149.188 21.7373C149.294 21.6968 149.344 21.7229 149.299 21.7954C149.254 21.8679 149.353 22 149.519 22.0889C149.759 22.2174 149.798 22.2136 149.71 22.0704C149.649 21.9715 149.833 22.0689 150.118 22.2868C150.404 22.5048 150.678 22.6432 150.727 22.5945C150.775 22.5457 150.884 22.5588 150.969 22.6234C151.173 22.7797 152.142 23.0091 153.474 23.2164C154.705 23.408 156.052 23.3239 158.077 22.9289C159.555 22.6406 160.196 22.4297 160.355 22.1785C160.545 21.8809 160.487 18.8822 160.29 18.8028C160.15 18.7462 160.15 18.7297 160.29 18.7209C160.387 18.7149 160.466 18.5756 160.466 18.4116C160.466 18.1889 160.421 18.1503 160.29 18.2592C160.194 18.3393 160.051 18.4261 159.974 18.452C159.897 18.4778 159.844 18.5307 159.857 18.5693C159.87 18.6079 159.743 18.648 159.576 18.6582C159.408 18.6683 158.991 18.7829 158.648 18.9125C157.579 19.3165 155.801 19.4781 154.543 19.2856C153.935 19.1926 153.365 19.1611 153.277 19.2158C153.186 19.2717 153.154 19.2536 153.203 19.1744C153.251 19.097 152.88 18.8277 152.379 18.5758C151.877 18.324 151.406 18.0031 151.331 17.8627C151.256 17.7225 151.103 17.5158 150.99 17.4037C150.665 17.078 149.787 15.3767 149.787 15.071C149.787 14.9177 149.74 14.7631 149.682 14.7275C149.577 14.6627 149.699 11.4142 149.835 10.6452C149.875 10.4214 149.961 10.2001 150.027 10.1534C150.093 10.1069 150.269 9.7842 150.419 9.43645C150.693 8.79841 150.943 8.49899 151.694 7.90789C151.921 7.73001 152.106 7.51124 152.106 7.42174C152.106 7.33224 152.232 7.2589 152.387 7.25876C152.546 7.25876 152.651 7.17782 152.629 7.07258C152.607 6.96622 152.658 6.92815 152.748 6.98379C152.835 7.03718 153.041 7.01413 153.208 6.93222C154.55 6.27297 157.941 6.40828 159.546 7.18541C159.869 7.34151 160.208 7.46937 160.299 7.46937C160.54 7.46937 160.504 7.09268 160.255 6.99699C160.139 6.95259 160.049 6.83513 160.055 6.73607C160.064 6.59515 160.082 6.59416 160.137 6.73172C160.354 7.26747 160.466 6.70783 160.466 5.09483V3.28217L159.798 3.1272C157.19 2.5212 154.877 2.39769 153.23 2.77691ZM42.5117 4.1311C42.575 4.07392 42.5793 4.10905 42.5214 4.20951C42.4404 4.35001 42.3707 4.35409 42.2179 4.22735C42.1089 4.13687 42.0197 4.03121 42.0197 3.99257C42.0197 3.95393 42.1045 3.99271 42.2082 4.07884C42.3119 4.16482 42.4485 4.18843 42.5117 4.1311ZM118.384 4.72137C116.686 5.21004 116.271 5.37865 116.244 5.59053C116.226 5.73525 116.195 6.42261 116.174 7.11811L116.136 8.38266L114.977 8.4234L113.818 8.46429V10.2795V12.0947L114.977 12.1356L116.136 12.1763L116.21 16.3212L116.284 20.4661L116.735 21.252C117.579 22.7183 118.85 23.3461 121.003 23.3586C121.755 23.3631 122.485 23.3061 122.625 23.2324C122.766 23.1585 123.146 23.0542 123.47 23.0004L124.06 22.9029L124.102 21.0752C124.126 20.0699 124.121 19.2238 124.092 19.195C124.063 19.1662 123.847 19.2422 123.611 19.3639C122.977 19.6917 121.883 19.6544 121.497 19.2919C120.972 18.799 120.843 17.9355 120.843 14.9142V12.106H122.459C124.04 12.106 124.075 12.0992 124.08 11.7899C124.083 11.616 124.099 10.794 124.115 9.96334L124.145 8.45291H122.494H120.843V6.27508C120.843 4.62175 120.801 4.09935 120.668 4.10624C120.571 4.11115 119.544 4.38795 118.384 4.72137ZM32.1506 7.10729C31.8616 7.21042 30.8974 7.43916 30.0079 7.61564C28.911 7.83328 28.3907 7.99697 28.3907 8.12441C28.3907 8.29751 28.5714 8.37535 28.8577 8.32561C28.9215 8.31451 28.9347 8.36846 28.8871 8.44546C28.8394 8.52246 28.9098 8.75233 29.0435 8.9562L29.2864 9.32699L28.2996 10.2599C27.7568 10.7729 26.7639 11.6973 26.0928 12.314C25.3261 13.0185 24.9011 13.5089 24.9488 13.6335C25.0079 13.7873 24.9817 13.796 24.8324 13.672C24.6837 13.5486 24.5823 13.5756 24.3882 13.79C24.1717 14.0291 24.1636 14.1025 24.3294 14.3163C24.5122 14.5522 24.5075 14.5527 24.2385 14.3246C23.9695 14.0966 23.9461 14.0987 23.7796 14.3655C23.6829 14.5201 23.6388 14.7029 23.6812 14.7717C23.7238 14.8404 23.6846 14.9424 23.5941 14.9983C23.4914 15.0619 23.4672 15.0392 23.5299 14.9379C23.668 14.7142 23.4537 14.7345 23.1063 14.9778C22.8371 15.1665 22.772 15.1287 22.1369 14.4158C21.7625 13.9956 21.4063 13.6516 21.3452 13.6516C21.2842 13.6516 21.0099 13.4272 20.7355 13.153C20.4612 12.8787 20.1755 12.6922 20.1003 12.7387C20.0251 12.7851 19.9911 12.7409 20.0247 12.6402C20.0583 12.5396 19.8935 12.3053 19.6584 12.1194C19.3077 11.842 19.2086 11.8169 19.1061 11.9789C19.0374 12.0875 18.9802 12.1254 18.9789 12.0631C18.9778 12.0008 18.5733 12.3486 18.0801 12.8358C17.5869 13.3232 16.765 14.1118 16.2535 14.5882C15.5635 15.231 15.345 15.5212 15.4071 15.7123C15.4612 15.879 15.4475 15.9105 15.3682 15.8015C15.2777 15.6771 15.127 15.7259 14.7928 15.9872C14.5439 16.1821 14.3401 16.4212 14.3401 16.5188C14.3401 16.6161 14.5503 16.939 14.8072 17.2363L15.2744 17.7766L15.6466 17.5055C15.8511 17.3564 15.9894 17.1522 15.9538 17.0516C15.9181 16.951 15.9489 16.9057 16.0221 16.951C16.0955 16.9963 16.4806 16.715 16.8778 16.326C17.2751 15.9369 17.6608 15.6187 17.7347 15.6187C17.8088 15.6187 17.8344 15.5621 17.7916 15.4929C17.7488 15.4237 17.8123 15.3294 17.9327 15.2832C18.0531 15.2369 18.1113 15.1339 18.062 15.0541C18.0127 14.9745 18.0358 14.9266 18.1134 14.9478C18.191 14.969 18.3584 14.86 18.4856 14.7054C18.6126 14.5508 18.6683 14.5192 18.609 14.6351C18.5174 14.8146 18.5358 14.8181 18.7326 14.6585C18.9276 14.5003 19.0306 14.5105 19.3919 14.7239C19.6272 14.8629 19.8198 15.0506 19.8198 15.1411C19.8198 15.2315 19.9721 15.4051 20.1583 15.5271C20.3445 15.6492 20.6723 15.9116 20.8868 16.1103C21.1014 16.3091 21.3633 16.4387 21.469 16.3981C21.5746 16.3576 21.6238 16.3846 21.5783 16.4582C21.4904 16.6004 21.9818 17.1642 22.1934 17.1642C22.2624 17.1642 22.3588 17.2681 22.4075 17.3951C22.4561 17.5221 22.5362 17.5859 22.5853 17.5369C22.6342 17.4878 22.7619 17.5203 22.8688 17.6091C23.0243 17.7382 23.3089 17.5206 24.2928 16.5189C24.9691 15.8306 25.9168 14.9229 26.3989 14.5019C26.8887 14.0741 27.2447 13.6565 27.2058 13.5552C27.1676 13.4555 27.213 13.389 27.3068 13.4074C27.4007 13.4258 27.46 13.3571 27.4387 13.2548C27.4171 13.1507 27.468 13.1107 27.5541 13.1638C27.6402 13.217 28.1248 12.8348 28.6544 12.2962C29.175 11.7666 29.839 11.1221 30.13 10.864C30.6378 10.4137 30.6699 10.4047 30.9299 10.6399C31.0788 10.7748 31.2008 10.8436 31.2008 10.793C31.2008 10.7424 31.3295 10.8297 31.4868 10.9871C31.8394 11.3396 31.9893 11.2603 32.0921 10.6671C32.2137 9.96643 32.5708 8.1726 32.7219 7.5045C32.8722 6.83963 32.8818 6.84623 32.1506 7.10729ZM131.943 8.06652C129.256 8.57712 128.059 9.25168 126.58 11.0894C126.228 11.5269 126.106 11.791 125.7 13.0019C125.392 13.9231 125.329 14.3619 125.328 15.6219C125.328 16.4543 125.368 17.3157 125.419 17.5362C126.297 21.3638 128.928 23.3307 133.204 23.3574C134.053 23.3628 134.985 23.2914 135.277 23.1988C137.609 22.4585 138.225 22.1234 139.205 21.06C139.922 20.2825 140.408 19.443 140.812 18.2883C141.079 17.5248 141.132 17.0754 141.137 15.5484C141.143 13.8711 141.11 13.6319 140.736 12.6203C140.511 12.0144 140.259 11.4454 140.175 11.3558C140.091 11.2661 139.836 10.9438 139.609 10.6396C138.993 9.81609 138.434 9.3565 137.462 8.87372C136.001 8.14759 133.467 7.77694 131.943 8.06652ZM104.998 8.24917C104.035 8.50855 103.558 8.76244 102.903 9.36451C102.277 9.93918 102.126 9.97514 102.162 9.54183C102.176 9.36788 102.18 9.05174 102.172 8.8393L102.156 8.45291H99.7674H97.3788V19.0611V29.6692H99.7674H102.156L102.173 25.9107C102.182 23.8436 102.177 22.0641 102.162 21.9563C102.147 21.8487 102.395 21.9834 102.713 22.2557C103.905 23.2761 105.809 23.6091 107.679 23.1243C108.998 22.7826 109.481 22.4848 110.622 21.3091C111.286 20.6254 112.044 19.1004 112.334 17.8668C112.614 16.6788 112.618 13.8726 112.342 12.7018C111.993 11.2207 111.264 10.0113 110.188 9.12733C109.043 8.18693 106.702 7.79071 104.998 8.24917ZM146.328 8.24946C146.376 8.37451 146.353 8.43085 146.273 8.38167C146.197 8.33446 146.134 8.23639 146.134 8.16361C146.134 7.96156 146.235 8.0061 146.328 8.24946ZM76.1674 8.43928C75.8011 8.5892 75.26 9.00074 74.8677 9.42745L74.1954 10.1586V9.30578V8.45291H71.8068H69.4182V15.7592V23.0655H71.7942H74.1701L74.2308 18.9557C74.2668 16.5216 74.3545 14.658 74.4456 14.3853C74.6681 13.7199 75.4039 12.8483 75.9703 12.5795C76.585 12.2879 77.9624 12.2933 78.5355 12.5898C78.7681 12.7101 78.9949 12.8086 79.0393 12.8086C79.0837 12.8086 79.1027 11.7812 79.0815 10.5254L79.0428 8.24215L77.9188 8.21208C77.0968 8.19017 76.6261 8.25129 76.1674 8.43928ZM79.9561 8.48888C79.9561 8.5892 80.0394 8.79616 80.1413 8.94847C80.2432 9.10092 80.4409 9.54183 80.5805 9.92822C80.7203 10.3146 80.9191 10.8204 81.0224 11.0523C81.1255 11.2841 81.562 12.359 81.9922 13.4408C82.4224 14.5227 82.8341 15.5344 82.907 15.6889C82.9798 15.8435 83.1726 16.3177 83.3353 16.7427C83.4981 17.1678 83.7182 17.7052 83.8247 17.937C83.931 18.1689 84.1491 18.7063 84.3093 19.1313C84.4694 19.5563 84.6595 20.0305 84.7316 20.1851C85.2113 21.2132 85.8085 22.92 85.7229 23.0181C85.6664 23.0827 85.4447 23.5579 85.2303 24.0739C84.6584 25.4498 84.2509 25.7837 83.0612 25.851C82.313 25.8931 81.9571 25.8416 81.45 25.6173L80.7992 25.3293V27.3587C80.7992 29.3827 80.8 29.3882 81.1223 29.3882C81.3001 29.3882 81.5079 29.4506 81.5842 29.5269C81.8277 29.7704 84.5832 29.7317 85.3414 29.4741C87.5667 28.718 88.8262 27.3219 90.1093 24.1895C90.3784 23.5326 90.6452 22.8371 90.7024 22.6439C90.7596 22.4508 90.8904 22.103 90.9932 21.8712C91.0961 21.6393 91.474 20.6593 91.8332 19.6933C92.524 17.8349 93.878 14.2402 94.6378 12.2466C94.8882 11.5897 95.204 10.7361 95.3398 10.3497C95.4755 9.96334 95.6736 9.44797 95.7801 9.20447C96.1822 8.28501 96.2231 8.30145 93.6397 8.34416L91.3054 8.38266L91.1245 8.87442C90.9633 9.3121 90.1044 12.0493 89.7798 13.1598C89.712 13.3917 89.4679 14.182 89.2373 14.9162C89.0068 15.6503 88.7312 16.5637 88.6249 16.9459C88.5187 17.3282 88.3687 17.6619 88.2917 17.6876C88.2149 17.7132 88.0719 17.3688 87.9739 16.9223C87.876 16.4758 87.7124 15.9208 87.6107 15.6889C87.5088 15.4571 87.2583 14.6668 87.054 13.9326C86.8496 13.1985 86.6282 12.4714 86.5618 12.3168C86.4955 12.1622 86.3044 11.5616 86.1374 10.982C85.9703 10.4024 85.722 9.58046 85.5856 9.15544L85.3378 8.38266L82.6469 8.34444C80.5142 8.31423 79.9561 8.34416 79.9561 8.48888ZM168.393 8.51853C166.923 8.78535 164.573 10.2143 164.327 10.9911C164.279 11.1429 164.189 11.2362 164.128 11.1984C163.918 11.0686 163.132 12.88 162.912 14.0029C162.573 15.7283 162.777 17.8762 163.435 19.5177C163.536 19.7689 163.703 19.9743 163.807 19.9743C163.91 19.9743 163.962 20.0284 163.921 20.0945C163.88 20.1607 164.224 20.6041 164.685 21.08C165.147 21.5559 165.524 21.9052 165.524 21.8564C165.524 21.8075 165.745 21.9361 166.015 22.1419C166.467 22.4871 167.772 22.9934 167.772 22.8238C167.772 22.7832 167.853 22.8172 167.952 22.8992C168.051 22.9813 168.675 23.127 169.339 23.223C170.396 23.3758 170.718 23.3661 171.934 23.1447C172.697 23.0058 173.67 22.7337 174.095 22.5403C175.031 22.114 176.1 21.2743 175.972 21.0659C175.92 20.9826 175.936 20.9503 176.007 20.994C176.349 21.2053 177.356 19.7235 177.766 18.4059C178.121 17.2644 178.244 15.3787 178.045 14.1077C177.871 12.9928 177.501 11.9277 177.326 12.0359C177.265 12.0736 177.178 12.0067 177.132 11.8871C177.079 11.749 177.106 11.7053 177.206 11.767C177.301 11.826 177.335 11.7875 177.292 11.6689C177.253 11.5616 177.15 11.4897 177.063 11.5089C176.976 11.5283 176.918 11.4967 176.934 11.4386C176.984 11.2549 176.476 10.4078 176.359 10.4801C176.297 10.5182 176.118 10.375 175.961 10.1619C175.803 9.94873 175.366 9.61924 174.99 9.42984C174.613 9.2403 174.274 9.04401 174.235 8.99371C174.11 8.83045 172.54 8.42635 172.336 8.5049C172.226 8.54677 172.099 8.52063 172.054 8.44673C171.936 8.2569 169.579 8.30313 168.393 8.51853ZM189.129 8.47202C188.311 8.60606 186.781 9.4453 186.849 9.72238C186.87 9.80836 186.821 9.83759 186.74 9.78729C186.6 9.7013 185.626 10.6484 185.619 10.8766C185.618 10.9347 185.569 10.9821 185.511 10.9823C185.453 10.9826 185.426 10.4451 185.451 9.78799L185.496 8.59341H183.307H181.118L181.154 15.7241L181.19 22.8547H183.298H185.405L185.476 18.2883C185.552 13.2987 185.576 13.1503 186.419 12.2873C186.925 11.7705 187.817 11.5978 188.758 11.8347C189.306 11.9728 189.462 12.0957 189.792 12.6488L190.18 13.3003L190.225 18.1126L190.27 22.925H192.439H194.609V18.7869C194.609 14.5843 194.707 13.5045 195.154 12.81C195.581 12.1468 195.794 11.9667 196.254 11.8805C196.507 11.833 196.687 11.7516 196.655 11.6996C196.578 11.5749 197.327 11.5856 197.421 11.7105C197.461 11.7634 197.651 11.8283 197.843 11.8545C198.035 11.8808 198.271 11.9519 198.367 12.0125C198.464 12.073 198.616 12.0775 198.705 12.0224C198.806 11.9596 198.829 11.984 198.765 12.0869C198.709 12.1776 198.81 12.4877 198.99 12.776C199.31 13.2911 199.317 13.3846 199.386 18.0775L199.456 22.8547L201.602 22.8935L203.749 22.9323L203.736 17.6934C203.726 13.1382 203.692 12.3576 203.482 11.7116C203.348 11.3031 203.191 11.0173 203.132 11.0764C203.072 11.1357 203.062 11.084 203.109 10.9616C203.215 10.6858 202.712 9.77352 202.483 9.82635C202.391 9.84756 202.352 9.80513 202.397 9.73221C202.443 9.65915 202.305 9.46216 202.092 9.2944C200.202 7.80799 196.596 8.2347 195.069 10.1251C194.783 10.4805 194.485 10.8145 194.409 10.8674C194.238 10.9862 194.016 10.8645 194.114 10.7056C194.154 10.6414 194.003 10.393 193.779 10.1533C193.555 9.9136 193.413 9.71535 193.463 9.71282C193.514 9.71015 193.404 9.58285 193.221 9.4297C192.974 9.2247 192.838 9.19098 192.705 9.30184C192.565 9.41818 192.539 9.39022 192.595 9.1789C192.654 8.95353 192.546 8.8674 191.986 8.69107C191.057 8.39825 190.05 8.32111 189.129 8.47202ZM215.509 8.41581C215.142 8.44462 214.841 8.53173 214.841 8.60943C214.841 8.68699 214.785 8.71594 214.717 8.67365C214.551 8.57122 213.717 8.8674 213.717 9.0287C213.717 9.09839 213.633 9.15544 213.53 9.15544C213.279 9.15544 212.075 10.3521 211.933 10.7427C211.855 10.9574 211.799 10.6865 211.75 9.85796L211.68 8.66367H209.572H207.465L207.429 19.0296L207.393 29.3955L209.536 29.3567L211.68 29.3179L211.712 25.5243C211.729 23.4378 211.745 21.6059 211.747 21.4534C211.75 21.2043 211.774 21.2114 211.99 21.5237C212.346 22.0377 212.479 22.1548 213.251 22.6296C213.637 22.8675 214.179 23.0787 214.454 23.0989C214.729 23.1191 214.925 23.1831 214.89 23.2411C214.764 23.4457 216.736 23.3535 217.04 23.1406C217.201 23.0275 217.369 22.9701 217.412 23.0131C217.524 23.1256 218.492 22.7541 218.414 22.6281C218.379 22.5702 218.423 22.4772 218.514 22.4212C218.617 22.3577 218.641 22.3804 218.578 22.4817C218.413 22.7495 218.705 22.6653 219.113 22.3278C220.26 21.3787 220.939 20.5309 221.299 19.5961C221.471 19.1473 221.674 18.6511 221.748 18.4934C221.822 18.3358 221.895 17.8779 221.91 17.4759C221.925 17.0739 221.984 16.7444 222.042 16.7438C222.19 16.7423 222.168 14.7476 222.008 13.6409C221.806 12.2402 221.167 10.8123 220.38 10.0013C220.011 9.62107 219.666 9.33697 219.613 9.36985C219.559 9.40287 219.401 9.30339 219.261 9.14883C218.812 8.65229 217.001 8.29849 215.509 8.41581ZM229.243 8.4657C228.043 8.59243 226.804 8.84632 226.574 9.01296C226.496 9.06888 226.133 9.20082 225.766 9.3062L225.098 9.49785V10.9507C225.098 12.0723 225.138 12.381 225.274 12.3044C225.414 12.2252 225.414 12.2432 225.274 12.3945C224.999 12.6901 225.068 12.8795 225.355 12.6196C225.497 12.4917 225.649 12.3871 225.695 12.3871C225.74 12.3871 226.083 12.2499 226.456 12.0824C226.83 11.9148 227.167 11.7671 227.206 11.7541C227.244 11.7412 227.371 11.6903 227.487 11.6411C227.824 11.4982 229.468 11.2653 230.147 11.2641C230.769 11.263 231.82 11.6706 232.117 12.0279C232.203 12.1318 232.311 12.5302 232.356 12.9132L232.439 13.6096L231.976 13.702C231.722 13.7529 231.084 13.8345 230.558 13.8834C230.032 13.9322 229.625 14.0107 229.654 14.0578C229.682 14.1049 229.317 14.1508 228.842 14.16C227.652 14.1829 226.041 14.7756 225.189 15.5042C224.778 15.8557 224.549 16.1532 224.597 16.2761C224.639 16.3863 224.615 16.4404 224.544 16.3965C224.433 16.3274 224.218 16.529 224.175 16.7427C224.168 16.7814 224.085 16.9977 223.992 17.2235C223.899 17.4495 223.854 17.7181 223.894 17.8207C223.933 17.9234 223.895 18.0073 223.809 18.0073C223.589 18.0073 223.75 20.0162 224.033 20.7997C224.313 21.5748 225.471 22.7188 226.171 22.9122C226.455 22.9907 226.741 23.0219 226.806 22.9816C226.871 22.9414 226.925 22.9796 226.925 23.0666C226.925 23.1586 227.037 23.1891 227.194 23.1395C227.342 23.0924 227.504 23.1198 227.554 23.2002C227.684 23.4118 228.444 23.3799 229.323 23.126C230.164 22.8829 231.166 22.4353 231.073 22.3433C231.041 22.3111 231.201 22.16 231.429 22.0076C231.685 21.8365 231.814 21.6517 231.765 21.5241C231.722 21.4106 231.73 21.3601 231.782 21.4121C231.889 21.5199 232.179 21.2647 232.301 20.9554C232.391 20.7251 232.444 21.4034 232.407 22.3278L232.383 22.925H234.511H236.638L236.594 17.6209L236.549 12.3168L236.089 11.3758C235.599 10.3749 234.733 9.38376 234.202 9.2181C234.025 9.16274 233.846 9.06495 233.804 9.00074C233.693 8.82932 232.183 8.48635 231.21 8.41174C230.747 8.37619 229.861 8.40036 229.243 8.4657ZM256.15 8.46359C255.725 8.5389 255.356 8.66254 255.33 8.73828C255.304 8.81415 255.221 8.83803 255.146 8.79124C255.07 8.7446 254.902 8.7949 254.771 8.90309C254.641 9.01128 254.227 9.25224 253.851 9.43869C252.688 10.0159 250.914 12.2822 251.148 12.892C251.192 13.0087 251.175 13.0706 251.108 13.0296C250.711 12.7838 250.341 16.7562 250.666 17.7865C250.74 18.0238 250.906 18.5776 251.033 19.0171C251.161 19.4566 251.368 19.9308 251.495 20.0709C251.621 20.211 251.882 20.5628 252.075 20.8526C252.268 21.1424 252.498 21.3528 252.585 21.3204C252.672 21.2878 252.735 21.3641 252.725 21.49C252.709 21.6972 254.084 22.6687 254.307 22.608C254.355 22.5949 254.524 22.6567 254.683 22.7454C255.874 23.4079 259.348 23.5321 260.787 22.9636C260.902 22.9178 261.052 22.8929 261.12 22.9082C261.341 22.959 262.613 22.4839 262.826 22.2708C262.984 22.1126 263.035 21.7059 263.035 20.5978V19.1336L262.438 19.3654C262.109 19.493 261.777 19.6446 261.7 19.7023C261.348 19.9652 259.703 20.1501 258.335 20.0803C256.958 20.01 256.85 19.9819 256.254 19.5336C255.547 19.0016 255.111 18.3295 254.969 17.5506L254.873 17.0237H259.516H264.159V15.5743C264.159 14.225 263.966 12.6426 263.763 12.3168C263.715 12.2395 263.656 12.0498 263.632 11.8953C263.608 11.7407 263.527 11.5932 263.452 11.5675C263.377 11.5416 263.316 11.4566 263.316 11.3784C263.316 11.3001 263.181 11.0466 263.016 10.8151C262.783 10.4878 262.687 10.4361 262.585 10.5827C262.497 10.7101 262.485 10.6631 262.549 10.4375C262.601 10.2539 262.589 10.1367 262.523 10.1769C262.397 10.2536 262.026 9.93004 262.126 9.83028C262.225 9.73067 260.46 8.77354 259.872 8.60817C259.067 8.38167 257.053 8.30355 256.15 8.46359ZM246.877 8.73027C246.529 8.87414 246.262 9.06495 246.283 9.15431C246.304 9.24367 246.263 9.28091 246.192 9.23693C246.121 9.19295 245.914 9.2809 245.732 9.43251C245.55 9.58412 245.451 9.71015 245.512 9.71282C245.573 9.71535 245.492 9.85754 245.333 10.0287C245.174 10.1998 245.076 10.4243 245.115 10.5278C245.16 10.6439 245.125 10.6772 245.025 10.615C244.915 10.5471 244.892 10.5929 244.954 10.7555C245.005 10.8881 244.99 10.9613 244.92 10.9182C244.85 10.8751 244.761 10.9192 244.722 11.0163C244.683 11.1134 244.646 10.6122 244.64 9.90278L244.628 8.61266L242.416 8.63824L240.203 8.66367V15.7592V22.8547H242.38H244.558L244.631 18.6395C244.702 14.5302 244.787 13.7606 245.196 13.5079C245.266 13.4643 245.345 13.2908 245.371 13.1222C245.396 12.9537 245.471 12.7667 245.537 12.7068C245.603 12.6469 245.612 12.6769 245.556 12.7734C245.405 13.0355 245.558 12.9888 246.164 12.5878C246.661 12.2592 246.82 12.23 247.932 12.2648C248.776 12.2912 249.177 12.3597 249.225 12.4856C249.441 13.047 249.546 12.4419 249.546 10.6458C249.546 8.93133 249.512 8.61055 249.324 8.53819C248.877 8.36664 247.493 8.47525 246.877 8.73027ZM213.782 9.56726C213.826 9.6392 213.809 9.73123 213.743 9.77183C213.677 9.81244 213.624 9.75357 213.624 9.64102C213.624 9.40413 213.668 9.38348 213.782 9.56726ZM253.199 10.1848C253.199 10.2099 253.025 10.3837 252.813 10.5712L252.427 10.9118L252.767 10.5254C253.085 10.1643 253.199 10.0745 253.199 10.1848ZM176.202 10.7774C176.202 10.7937 176.118 10.877 176.015 10.9626C175.875 11.0788 175.828 11.0712 175.828 10.933C175.828 10.8311 175.912 10.7478 176.015 10.7478C176.118 10.7478 176.202 10.7611 176.202 10.7774ZM259.155 11.4641C259.082 11.6542 259.321 11.889 259.592 11.8932C259.67 11.8943 259.738 11.9585 259.745 12.0358C259.751 12.1131 259.822 12.3344 259.903 12.5276C259.983 12.7208 260.095 13.2108 260.15 13.6165L260.251 14.3541H257.569H254.888L254.931 13.9677C254.955 13.7553 255.049 13.4437 255.14 13.2753C255.231 13.1071 255.269 12.8542 255.223 12.7133C255.159 12.5172 255.172 12.5027 255.278 12.6519C255.39 12.8086 255.451 12.7812 255.59 12.5114C255.783 12.1388 256.43 11.5109 256.729 11.4058C256.836 11.3684 257.409 11.3397 258.002 11.3421C258.65 11.3446 259.049 11.2929 258.999 11.2127C258.954 11.1392 258.987 11.1225 259.073 11.1756C259.159 11.2286 259.196 11.3584 259.155 11.4641ZM171.939 11.8746C172.105 11.886 172.218 11.9327 172.19 11.9783C172.162 12.024 172.318 12.1936 172.536 12.3552C172.847 12.585 172.974 12.6129 173.121 12.4829C173.275 12.3469 173.278 12.3574 173.14 12.5416C173.006 12.7198 173.019 12.862 173.201 13.227C173.642 14.1106 173.75 15.5737 173.482 17.0383C173.35 17.7645 173.237 18.5104 173.233 18.6962C173.227 18.9411 173.192 18.9808 173.105 18.8406C173.009 18.6847 172.968 18.6953 172.89 18.8963C172.838 19.0331 172.439 19.3232 172.005 19.5409C171.336 19.8757 171.079 19.9288 170.337 19.8862C169.407 19.8329 168.272 19.3973 168.135 19.042C168.089 18.9211 167.98 18.8755 167.878 18.9342C167.781 18.9901 167.744 18.9893 167.795 18.9324C167.846 18.8753 167.754 18.5333 167.592 18.1721C167.341 17.6147 167.3 17.2714 167.32 15.8997C167.348 13.8938 167.392 13.3794 167.526 13.4626C167.584 13.4983 167.632 13.4605 167.632 13.3783C167.632 13.2963 167.9 12.9494 168.229 12.6074C168.923 11.8849 169.653 11.6546 170.863 11.7761C171.288 11.8189 171.772 11.8631 171.939 11.8746ZM216.176 11.9522C216.623 12.1299 217.398 13.1105 217.463 13.5814C217.484 13.7359 217.542 14.3998 217.591 15.0567C217.688 16.3332 217.435 17.8444 217.02 18.478C216.903 18.6564 216.855 18.8549 216.913 18.9191C216.972 18.9834 216.947 18.9945 216.858 18.9439C216.77 18.8933 216.665 18.9371 216.625 19.0413C216.459 19.4736 215.362 19.8878 214.361 19.8961C213.703 19.9016 213.371 19.8475 213.331 19.7285C213.299 19.6319 213.183 19.5528 213.073 19.5528C212.964 19.5528 212.874 19.4896 212.874 19.4123C212.874 19.335 212.781 19.2718 212.667 19.2718C212.434 19.2718 212.143 18.7677 211.808 17.7808C211.471 16.7884 211.581 14.3901 212.008 13.4465C212.181 13.0632 212.448 12.6327 212.602 12.4898C212.755 12.3467 212.844 12.1711 212.8 12.0993C212.755 12.0264 212.826 12.0095 212.96 12.0612C213.138 12.1295 213.171 12.1042 213.085 11.9655C213 11.828 213.032 11.8014 213.202 11.8669C213.331 11.9162 213.578 11.897 213.752 11.8241C214.155 11.6553 215.625 11.733 216.176 11.9522ZM106.301 12.106C106.768 12.332 106.959 12.5489 107.276 13.2117C107.614 13.919 107.671 14.2136 107.676 15.285C107.688 18.0108 106.638 19.5528 104.769 19.5528C103.906 19.5528 103.427 19.348 102.907 18.756C102.27 18.0317 102.107 17.2943 102.191 15.514C102.264 13.944 102.439 13.3473 103.032 12.6405C103.714 11.8285 105.219 11.5824 106.301 12.106ZM134.267 11.9814C135.133 12.1996 135.808 12.9907 136.028 14.0471C136.213 14.9358 136.132 17.1408 135.89 17.7674C135.454 18.9019 134.473 19.5528 133.2 19.5528C131.843 19.5528 130.853 18.8759 130.444 17.6685C130.094 16.6352 130.124 14.4806 130.501 13.6435C131.18 12.1312 132.517 11.5411 134.267 11.9814ZM30.9717 12.5684C30.8845 12.6619 30.4488 13.0545 30.0034 13.4408C29.5581 13.8272 29.0606 14.2738 28.8976 14.4331C28.7348 14.5926 28.2063 15.0572 27.7233 15.4657L26.8451 16.2085V19.8477V23.487H29.0932H31.3413L31.3553 18.3585C31.3631 15.5379 31.3757 13.0605 31.3834 12.8531C31.399 12.435 31.2152 12.308 30.9717 12.5684ZM20.6629 13.4028C20.6629 13.4851 20.5737 13.4715 20.4521 13.3706C20.3362 13.2744 20.2414 13.1737 20.2414 13.1471C20.2414 13.1204 20.3362 13.1348 20.4521 13.1792C20.568 13.2238 20.6629 13.3244 20.6629 13.4028ZM19.9603 14.5499C19.9603 14.5802 19.8623 14.6427 19.7423 14.6888C19.6172 14.7367 19.5609 14.7131 19.6101 14.6336C19.6925 14.5 19.9603 14.436 19.9603 14.5499ZM20.3351 15.1207C20.3351 15.2333 20.2813 15.2921 20.2156 15.2515C20.15 15.2109 20.1326 15.1189 20.1771 15.047C20.2907 14.8632 20.3351 14.8838 20.3351 15.1207ZM16.8692 15.8997C16.8692 15.977 16.8414 16.0402 16.8073 16.0402C16.7731 16.0402 16.7062 15.977 16.6585 15.8997C16.6107 15.8224 16.6387 15.7592 16.7204 15.7592C16.8022 15.7592 16.8692 15.8224 16.8692 15.8997ZM17.2538 17.693L15.3237 19.6267V21.5569V23.487H17.2907H19.2578V19.6231C19.2578 17.4979 19.2411 15.7592 19.2209 15.7592C19.2005 15.7592 18.3153 16.6293 17.2538 17.693ZM232.545 16.7441C232.545 17.6925 232.264 18.6688 231.872 19.0858C231.666 19.304 231.512 19.5299 231.53 19.588C231.547 19.646 231.483 19.6776 231.386 19.6582C231.289 19.6388 231.223 19.6915 231.237 19.7752C231.272 19.9683 231.169 19.9873 229.817 20.0359C228.734 20.0749 228.692 20.0641 228.275 19.6388C227.945 19.302 227.828 19.0321 227.765 18.4639C227.72 18.0581 227.734 17.7263 227.796 17.7263C227.858 17.7263 227.908 17.6563 227.908 17.5709C227.908 17.3282 228.614 16.8298 229.212 16.6491C229.511 16.5589 230.289 16.4408 230.942 16.3864C231.594 16.332 232.163 16.2309 232.206 16.1616C232.364 15.9045 232.545 16.2143 232.545 16.7441ZM150.914 17.6546C150.979 17.6143 151.069 17.6399 151.113 17.7116C151.157 17.7834 151.086 17.8263 150.955 17.8071C150.823 17.7878 150.701 17.6969 150.684 17.6051C150.666 17.5133 150.684 17.5034 150.723 17.5831C150.763 17.6628 150.848 17.6949 150.914 17.6546ZM24.864 17.9064C23.9209 18.7109 23.1463 19.3505 23.0124 19.4348C22.89 19.5118 22.1799 19.1239 21.9274 18.8422C21.7875 18.6859 21.1597 18.2883 21.0531 18.2883C20.9931 18.2883 20.9439 19.458 20.9439 20.8876V23.487H23.1217H25.2995V20.5364C25.2995 18.9135 25.2837 17.5877 25.2644 17.5903C25.2452 17.5926 25.0649 17.7348 24.864 17.9064ZM228.143 19.7401C228.143 19.8433 228.059 19.9276 227.957 19.9276C227.819 19.9276 227.812 19.8802 227.928 19.7401C228.013 19.6371 228.097 19.5528 228.113 19.5528C228.129 19.5528 228.143 19.6371 228.143 19.7401ZM255.784 19.6699C255.824 19.7344 255.767 19.7871 255.658 19.7871C255.549 19.7871 255.492 19.7344 255.532 19.6699C255.572 19.6055 255.629 19.5528 255.658 19.5528C255.688 19.5528 255.744 19.6055 255.784 19.6699ZM262.754 19.6148C262.754 19.6489 262.69 19.7158 262.613 19.7636C262.536 19.8114 262.473 19.7834 262.473 19.7016C262.473 19.6199 262.536 19.5528 262.613 19.5528C262.69 19.5528 262.754 19.5806 262.754 19.6148ZM43.3327 20.3317C43.2869 20.4509 43.2193 20.5184 43.1825 20.4816C43.1457 20.4448 43.1572 20.3471 43.2082 20.2648C43.3468 20.0405 43.4277 20.0841 43.3327 20.3317ZM176.472 20.1515C176.44 20.1716 176.255 20.3139 176.062 20.4677L175.711 20.7471L175.978 20.431C176.126 20.2572 176.31 20.1149 176.388 20.1149C176.466 20.1149 176.504 20.1313 176.472 20.1515ZM175.57 21.5199C175.522 21.5972 175.408 21.6594 175.316 21.6583C175.215 21.6569 175.233 21.6017 175.359 21.5199C175.629 21.3454 175.678 21.3454 175.57 21.5199ZM41.7387 22.5566C41.7387 22.5856 41.628 22.6964 41.4928 22.8024C41.2699 22.9771 41.265 22.9722 41.4397 22.7493C41.6233 22.5152 41.7387 22.4409 41.7387 22.5566ZM32.9426 25.4306C32.9824 25.4951 32.9258 25.5478 32.8166 25.5478C32.7074 25.5478 32.6508 25.4951 32.6906 25.4306C32.7303 25.3662 32.7871 25.3135 32.8166 25.3135C32.8461 25.3135 32.9029 25.3662 32.9426 25.4306Z" fill="white"/>
</svg>
