<svg width="15" height="16" viewBox="0 0 15 16" fill="none" xmlns="http://www.w3.org/2000/svg">
<rect width="15" height="16" fill="#E5E5E5"/>
<g clip-path="url(#clip0)">
<rect width="1440" height="2699" transform="translate(-950 -2542)" fill="white"/>
<rect width="1440" height="395" transform="translate(-950 -238)" fill="white"/>
<path d="M6.05233 6.71191C5.59633 6.71191 5.23633 7.11191 5.23633 7.59991C5.23633 8.08791 5.60433 8.48791 6.05233 8.48791C6.50833 8.48791 6.86833 8.08791 6.86833 7.59991C6.87633 7.11191 6.50833 6.71191 6.05233 6.71191ZM8.97233 6.71191C8.51633 6.71191 8.15633 7.11191 8.15633 7.59991C8.15633 8.08791 8.52433 8.48791 8.97233 8.48791C9.42833 8.48791 9.78833 8.08791 9.78833 7.59991C9.78833 7.11191 9.42833 6.71191 8.97233 6.71191Z" fill="#52606D"/>
<path d="M12.86 0H2.14C1.236 0 0.5 0.736 0.5 1.648V12.464C0.5 13.376 1.236 14.112 2.14 14.112H11.212L10.788 12.632L11.812 13.584L12.78 14.48L14.5 16V1.648C14.5 0.736 13.764 0 12.86 0ZM9.772 10.448C9.772 10.448 9.484 10.104 9.244 9.8C10.292 9.504 10.692 8.848 10.692 8.848C10.364 9.064 10.052 9.216 9.772 9.32C9.372 9.488 8.988 9.6 8.612 9.664C7.92684 9.79015 7.22416 9.78744 6.54 9.656C6.13834 9.57741 5.7447 9.46226 5.364 9.312C5.16333 9.23483 4.9682 9.14395 4.78 9.04C4.756 9.024 4.732 9.016 4.708 9C4.692 8.992 4.684 8.984 4.676 8.976C4.532 8.896 4.452 8.84 4.452 8.84C4.452 8.84 4.836 9.48 5.852 9.784C5.612 10.088 5.316 10.448 5.316 10.448C3.548 10.392 2.876 9.232 2.876 9.232C2.876 6.656 4.028 4.568 4.028 4.568C5.18 3.704 6.276 3.728 6.276 3.728L6.356 3.824C4.916 4.24 4.252 4.872 4.252 4.872C4.252 4.872 4.428 4.776 4.724 4.64C5.58 4.264 6.26 4.16 6.54 4.136C6.588 4.128 6.628 4.12 6.676 4.12C8.06328 3.93223 9.47416 4.1959 10.7 4.872C10.7 4.872 10.068 4.272 8.708 3.856L8.82 3.728C8.82 3.728 9.916 3.704 11.068 4.568C11.068 4.568 12.22 6.656 12.22 9.232C12.22 9.232 11.54 10.392 9.772 10.448Z" fill="#52606D"/>
</g>
<defs>
<clipPath id="clip0">
<rect width="1440" height="2699" fill="white" transform="translate(-950 -2542)"/>
</clipPath>
</defs>
</svg>
