<svg width="18" height="17" viewBox="0 0 18 17" fill="none" xmlns="http://www.w3.org/2000/svg">
<rect width="18" height="17" fill="#E5E5E5"/>
<rect width="375" height="4311" transform="translate(-177 -1172)" fill="white"/>
<rect x="-13" y="-15" width="48" height="48" rx="8" fill="#F5F7FA"/>
<g clip-path="url(#clip0)">
<path d="M10.0624 14.25H7.63719C7.84528 13.9543 8.02074 13.6369 8.1605 13.3033C8.25191 13.0745 8.28583 12.8267 8.25927 12.5816C8.23271 12.3366 8.1465 12.1018 8.00817 11.8978C7.87403 11.6987 7.69313 11.5356 7.48129 11.4226C7.26945 11.3097 7.03315 11.2504 6.79308 11.25C6.28789 11.25 6.01012 11.5596 5.78271 11.8134C5.37842 12.264 4.0555 13.5377 3.90572 13.6875H-0.625C-0.724456 13.6875 -0.819839 13.727 -0.890165 13.7973C-0.960491 13.8677 -1 13.963 -1 14.0625C-1 14.162 -0.960491 14.2573 -0.890165 14.3277C-0.819839 14.398 -0.724456 14.4375 -0.625 14.4375H4.06246C4.11257 14.4375 4.16217 14.4274 4.20834 14.4079C4.2545 14.3884 4.29629 14.3599 4.33125 14.324C4.49256 14.1581 5.91839 12.7852 6.34539 12.3093C6.55083 12.0802 6.63671 12 6.79308 12C6.91082 11.9997 7.0268 12.0286 7.13056 12.0843C7.23431 12.1399 7.32259 12.2205 7.38743 12.3188C7.45776 12.4211 7.50154 12.5392 7.51483 12.6627C7.52813 12.7861 7.51052 12.9108 7.4636 13.0258C7.24096 13.5154 6.94836 13.9701 6.59496 14.3756C6.54688 14.4296 6.51544 14.4964 6.50443 14.5678C6.49341 14.6393 6.50329 14.7124 6.53288 14.7784C6.56246 14.8444 6.61049 14.9004 6.67118 14.9397C6.73186 14.979 6.80262 15 6.87493 15H10.0624C10.3202 15 11.1749 15.0504 11.348 15.6982C11.3944 15.9029 11.3763 16.117 11.296 16.311C11.1298 16.7107 10.9944 17.1225 10.8911 17.5428C10.8701 17.6886 10.8668 17.8365 10.8812 17.9832C10.893 18.1285 10.893 18.2745 10.881 18.4199C10.8627 18.615 10.6241 19.0759 10.5963 19.1792C10.4645 19.6677 10.1463 20.25 9.37831 20.25H7.01774C6.88466 20.2499 6.75428 20.2124 6.64147 20.1418L5.14405 19.2079C4.91703 19.0465 4.64893 18.9528 4.3708 18.9375H2.65878C2.55932 18.9375 2.46394 18.977 2.39361 19.0473C2.32329 19.1177 2.28378 19.213 2.28378 19.3125C2.28378 19.412 2.32329 19.5073 2.39361 19.5777C2.46394 19.648 2.55932 19.6875 2.65878 19.6875H4.3708C4.50643 19.7105 4.63504 19.7641 4.74689 19.8442L6.24468 20.7783C6.47655 20.9231 6.74438 20.9999 7.01774 21H9.37831C10.3339 21 11.0418 20.4075 11.3203 19.3746C11.3388 19.3274 11.3605 19.2815 11.3851 19.2372C11.516 19.0071 11.5985 18.7527 11.6278 18.4896C11.6433 18.3063 11.6441 18.1221 11.6299 17.9387C11.6205 17.8498 11.6206 17.7602 11.6301 17.6713C11.728 17.2995 11.8504 16.9346 11.9965 16.5789C12.1346 16.2378 12.1613 15.8618 12.0727 15.5046C11.8627 14.7191 11.1112 14.25 10.0624 14.25Z" fill="#52606D" stroke="#52606D" stroke-width="0.5"/>
<path d="M3.87581 15.9375C3.8758 15.838 3.83629 15.7426 3.76596 15.6723C3.69564 15.602 3.60026 15.5625 3.50081 15.5625H1.43831C1.389 15.5624 1.34015 15.572 1.29456 15.5908C1.24897 15.6096 1.20753 15.6372 1.17262 15.672C1.13772 15.7069 1.11002 15.7482 1.09112 15.7938C1.07223 15.8393 1.0625 15.8882 1.0625 15.9375C1.0625 15.9868 1.07223 16.0356 1.09112 16.0812C1.11002 16.1267 1.13772 16.1681 1.17262 16.2029C1.20753 16.2377 1.24897 16.2653 1.29456 16.2841C1.34015 16.3029 1.389 16.3126 1.43831 16.3124H3.50081C3.60026 16.3124 3.69564 16.2729 3.76597 16.2026C3.83629 16.1323 3.8758 16.0369 3.87581 15.9375ZM15.5008 1.125C15.0929 1.125 14.6941 1.24596 14.3549 1.47259C14.0158 1.69922 13.7514 2.02134 13.5953 2.39822C13.4392 2.77509 13.3984 3.18979 13.4779 3.58987C13.5575 3.98996 13.754 4.35746 14.0424 4.64591C14.3308 4.93435 14.6983 5.13079 15.0984 5.21037C15.4985 5.28995 15.9132 5.24911 16.2901 5.093C16.667 4.9369 16.9891 4.67254 17.2157 4.33336C17.4423 3.99419 17.5633 3.59542 17.5633 3.1875C17.5633 2.64049 17.346 2.11589 16.9592 1.72909C16.5724 1.3423 16.0478 1.125 15.5008 1.125ZM15.5008 4.5C15.2412 4.5 14.9875 4.42302 14.7716 4.2788C14.5558 4.13458 14.3876 3.9296 14.2882 3.68977C14.1889 3.44994 14.1629 3.18604 14.2135 2.93144C14.2642 2.67684 14.3892 2.44298 14.5727 2.25942C14.7563 2.07587 14.9902 1.95086 15.2448 1.90022C15.4994 1.84958 15.7633 1.87557 16.0031 1.97491C16.2429 2.07425 16.4479 2.24247 16.5921 2.45831C16.7363 2.67415 16.8133 2.92791 16.8133 3.1875C16.8129 3.53548 16.6745 3.86909 16.4285 4.11514C16.1824 4.3612 15.8488 4.49961 15.5008 4.5Z" fill="#52606D" stroke="#52606D" stroke-width="0.5"/>
<path d="M22.6269 -1.55866C22.5112 -1.62478 22.3803 -1.65938 22.2471 -1.65899C22.1139 -1.6586 21.9831 -1.62325 21.8679 -1.55646C19.8971 -0.41606 17.8269 -1.16773 15.6352 -1.9635C13.2892 -2.81528 10.8629 -3.69598 8.50502 -2.16135C8.34904 -2.05948 8.22109 -1.92013 8.13287 -1.75604C8.04465 -1.59196 7.99897 -1.40837 8.00002 -1.22208V10.8578C8.015 10.8675 8.0288 10.8791 8.04356 10.8892C8.05727 10.8986 8.07047 10.9087 8.08398 10.9184C8.14284 10.9606 8.19966 11.0057 8.25443 11.0535C8.26321 11.0612 8.27207 11.0688 8.28072 11.0766C8.41235 11.1938 8.52929 11.3265 8.62899 11.4719C8.67285 11.5375 8.71325 11.6054 8.75002 11.6752V7.80135C8.98614 7.63409 9.23721 7.48899 9.50002 7.36789V13.4941H10.0625C10.126 13.4941 10.188 13.4971 10.25 13.5V7.10413C11.8949 6.69611 13.5985 7.31548 15.3759 7.96247C16.7854 8.47528 18.2226 8.99837 19.6587 8.99837C20.7459 9.0075 21.8073 8.66771 22.6871 8.0289C22.7842 7.95961 22.8633 7.86806 22.9177 7.76193C22.9721 7.65581 23.0004 7.53818 23 7.4189V-0.91186C23.0009 -1.04311 22.9668 -1.17223 22.9012 -1.28592C22.8357 -1.39961 22.7409 -1.49375 22.6269 -1.55866ZM22.2496 7.42C20.1502 8.90228 17.9558 8.10358 15.6324 7.25802C14.2208 6.74428 12.7818 6.22048 11.3441 6.22048C10.433 6.21199 9.53668 6.45016 8.75002 6.90973V-1.22208C8.74965 -1.28343 8.76443 -1.34394 8.79305 -1.39821C8.82167 -1.45249 8.86324 -1.49886 8.91408 -1.53322C10.959 -2.86378 13.1059 -2.08411 15.3792 -1.25887C17.6363 -0.439482 19.97 0.408273 22.25 -0.91186L22.2496 7.42Z" fill="#52606D" stroke="#52606D" stroke-width="0.5"/>
</g>
<defs>
<clipPath id="clip0">
<rect width="24" height="24" fill="white" transform="translate(-1 -3)"/>
</clipPath>
</defs>
</svg>
