<svg width="14" height="14" viewBox="0 0 14 14" fill="none" xmlns="http://www.w3.org/2000/svg">
<path fill-rule="evenodd" clip-rule="evenodd" d="M7.01652 0.333008C3.34385 0.333008 0.367188 3.30967 0.367188 6.98234C0.367188 9.91967 2.27185 12.4123 4.91452 13.2923C5.24719 13.3523 5.36719 13.1477 5.36719 12.9717C5.36719 12.8137 5.36185 12.395 5.35985 11.841C3.50985 12.2423 3.11919 10.949 3.11919 10.949C2.81785 10.181 2.38119 9.97634 2.38119 9.97634C1.77785 9.56367 2.42719 9.57301 2.42719 9.57301C3.09519 9.61967 3.44519 10.2583 3.44519 10.2583C4.03852 11.2743 5.00252 10.981 5.37985 10.811C5.44052 10.381 5.61385 10.0877 5.80319 9.92167C4.32719 9.75434 2.77519 9.18367 2.77519 6.63501C2.77519 5.91034 3.03452 5.31567 3.45785 4.85167C3.39052 4.68301 3.16052 4.00634 3.52385 3.09167C3.52385 3.09167 4.08185 2.91234 5.35185 3.77234C5.89425 3.62479 6.45375 3.54947 7.01585 3.54834C7.57798 3.54925 8.1375 3.62457 8.67985 3.77234C9.95052 2.91167 10.5079 3.09167 10.5079 3.09167C10.8712 4.00634 10.6432 4.68301 10.5739 4.85167C11.0005 5.31567 11.2565 5.90967 11.2565 6.63501C11.2565 9.19034 9.70319 9.75167 8.22185 9.91634C8.45852 10.1217 8.67185 10.527 8.67185 11.147C8.67185 12.0363 8.66385 12.7537 8.66385 12.9717C8.66385 13.1497 8.78252 13.3563 9.12185 13.291C11.7632 12.4097 13.6659 9.91901 13.6659 6.98234C13.6659 3.30967 10.6892 0.333008 7.01652 0.333008Z" fill="#52606D"/>
</svg>
