<svg width="122" height="24" viewBox="0 0 122 24" fill="none" xmlns="http://www.w3.org/2000/svg">
<path d="M4.52975 23.9993H0.25V5.35938H4.52975V23.9993Z" fill="white"/>
<path d="M15.0843 23.963C13.8874 23.963 12.7268 23.7449 11.5662 23.2908C10.4418 22.8366 9.39002 22.1644 8.50143 21.256C7.63097 20.384 6.96 19.3484 6.4885 18.222C6.03513 17.0956 5.78125 15.8966 5.78125 14.6612C5.78125 13.3894 6.03513 12.1904 6.4885 11.064C6.94186 9.9376 7.61284 8.95655 8.50143 8.06634C9.40816 7.15796 10.4418 6.48576 11.6024 6.03157C12.763 5.57739 13.9237 5.35938 15.1205 5.35938C16.3174 5.35938 17.478 5.57739 18.6024 6.03157C19.7267 6.48576 20.7785 7.15796 21.6671 8.06634L18.6386 11.1003C18.149 10.6098 17.5868 10.2464 16.9521 10.0103C16.3174 9.75593 15.6827 9.66509 15.048 9.66509C14.4133 9.66509 13.7786 9.77409 13.1439 10.0103C12.5092 10.2646 11.9833 10.6098 11.4936 11.1003C11.0403 11.5908 10.6413 12.154 10.4056 12.7536C10.1517 13.3531 10.0247 14.0253 10.0247 14.6975C10.0247 15.3697 10.1698 16.0056 10.4056 16.6051C10.6594 17.2046 11.0403 17.7678 11.4936 18.222C11.9833 18.7125 12.5454 19.0759 13.1439 19.3121C13.7786 19.5664 14.377 19.6572 15.048 19.6572C15.6827 19.6572 16.3174 19.5482 16.9521 19.3121C17.5868 19.0577 18.149 18.7125 18.6386 18.222L21.6671 21.256C20.7604 22.1644 19.7267 22.8366 18.6024 23.2908C17.478 23.7449 16.2811 23.963 15.0843 23.963Z" fill="white"/>
<path d="M62.6893 6.77637C64.5209 6.77637 65.9535 7.30323 67.1141 8.39328C68.2384 9.48333 68.8006 11.1002 68.8006 13.3167V21.7646H67.2955V13.1714C67.2229 11.5544 66.8058 10.319 66.026 9.42883C65.2462 8.57496 64.0131 8.1571 62.3629 8.1571C61.4199 8.1571 60.5313 8.37511 59.7333 8.79297C58.9173 9.21082 58.1556 9.91936 57.4121 10.9367C57.6297 11.6089 57.7204 12.4083 57.7204 13.3712V21.7464H56.2515V13.2985C56.2515 9.91936 54.6013 8.22977 51.3008 8.22977C49.3604 8.22977 47.8552 9.04731 46.6946 10.6279V21.7646H45.1895V7.33956H46.4226L46.7128 8.81114C48.091 7.46674 49.7049 6.83087 51.5003 6.83087C53.9303 6.83087 55.7256 7.81192 56.8862 9.75585C57.7386 8.7748 58.5727 8.02993 59.4251 7.53941C60.2593 7.01255 61.3655 6.77637 62.6893 6.77637Z" fill="white"/>
<path d="M71.1584 17.623C71.0859 16.7509 71.2672 15.9334 71.6118 15.2249C71.9563 14.5163 72.4641 13.9895 73.0444 13.5716C73.6428 13.1538 74.3501 12.8631 75.1117 12.6632C75.8734 12.4634 76.6894 12.3725 77.5418 12.4089C78.7749 12.4452 79.863 12.6996 80.7697 13.1901C81.6764 13.6806 82.4562 14.2075 83.0184 14.8797V14.2801C83.0184 12.2454 82.6013 10.7193 81.7852 9.73825C80.9692 8.7572 79.7179 8.30301 77.9951 8.30301C76.9796 8.30301 75.9822 8.52103 75.0755 8.90254C74.1325 9.28406 73.3889 9.84726 72.7905 10.5558L71.9745 9.28406C72.718 8.50286 73.5884 7.90333 74.6765 7.48547C75.7283 7.06762 76.8526 6.84961 77.977 6.84961C80.1169 6.84961 81.7308 7.44914 82.8552 8.61186C83.9432 9.77459 84.5054 11.6095 84.5054 14.0985V21.856H83.2723L82.9821 20.3844C82.4199 20.875 81.6402 21.3292 80.5884 21.7288C79.5366 22.1104 78.521 22.3284 77.5236 22.3647C75.6195 22.401 74.0781 22.0559 72.9537 21.2383C71.9019 20.4026 71.2309 19.2036 71.1584 17.623ZM83.0547 19.0582V16.7328C82.7101 16.0242 82.0028 15.352 80.9873 14.7525C79.9718 14.153 78.8474 13.8078 77.6506 13.7351C77.0159 13.6988 76.4174 13.7351 75.819 13.8805C75.2205 13.9895 74.6946 14.1893 74.205 14.48C73.7154 14.7707 73.3345 15.1885 73.0444 15.7154C72.7542 16.2422 72.6636 16.8781 72.6998 17.5866C72.7724 18.6767 73.2257 19.5306 74.1325 20.0938C75.0392 20.657 76.1635 20.9476 77.578 20.9658C78.5936 20.9658 79.591 20.8205 80.534 20.4753C81.4769 20.1483 82.3111 19.6577 83.0547 19.0582Z" fill="white"/>
<path d="M94.4753 6.86739L94.167 8.33896C94.022 8.33896 93.8225 8.30263 93.5323 8.30263C91.2837 8.30263 89.6334 9.08383 88.5091 10.6281V21.7648H87.0039V7.33975H88.2008L88.5091 8.81132C89.8873 7.46692 91.6463 6.83105 93.7137 6.83105C93.8769 6.83105 94.1308 6.83105 94.4753 6.86739Z" fill="white"/>
<path d="M98.2298 0V21.7647H96.7246V0H98.2298ZM108.077 7.3397L101.004 14.5341L108.349 21.7466H106.245L99.0458 14.5341L106.009 7.3397H108.077Z" fill="white"/>
<path d="M121.03 8.28402L120.286 9.55575C119.833 9.17423 119.198 8.81088 118.31 8.50203C117.439 8.19318 116.55 8.01151 115.68 8.01151C114.664 8.01151 113.848 8.22952 113.25 8.64737C112.652 9.06523 112.307 9.66475 112.271 10.4096C112.198 11.2817 112.579 11.9539 113.323 12.3899C113.994 12.7714 114.9 13.0621 116.061 13.2983C117.566 13.6071 118.763 13.9341 119.579 14.2793C120.486 14.6608 121.084 15.224 121.447 16.0416C121.755 16.8228 121.828 17.6948 121.664 18.6759C121.411 19.9113 120.649 20.8196 119.416 21.3828C118.509 21.8007 117.385 22.0187 116.043 22.0187C114.918 22.0187 113.794 21.8007 112.67 21.3828C111.545 20.965 110.657 20.4745 110.004 19.9113L110.747 18.6395L110.893 18.7849C111.346 19.2391 112.089 19.6569 113.069 20.0566C114.084 20.4381 115.082 20.6198 116.061 20.6198C117.221 20.6561 118.164 20.4745 118.872 20.0929C119.615 19.7114 120.069 19.1482 120.214 18.4034C120.468 17.1316 120.032 16.2596 118.872 15.7327C118.092 15.3875 117.076 15.0969 115.807 14.8607C114.266 14.5518 113.177 14.1521 112.506 13.807C111.165 13.0258 110.566 11.9357 110.675 10.5368C110.784 9.22873 111.346 8.21135 112.434 7.50281C113.25 6.93962 114.338 6.68527 115.626 6.68527C117.747 6.59444 119.506 7.15763 121.03 8.28402Z" fill="white"/>
<path d="M31.1512 5.17773C26.0192 5.17773 21.8301 9.37444 21.8301 14.5159C21.8301 19.6573 26.0192 23.854 31.1512 23.854C36.2833 23.854 40.4724 19.6573 40.4724 14.5159C40.4724 9.37444 36.2833 5.17773 31.1512 5.17773ZM35.5398 15.7513L36.3558 20.5112C36.3558 20.5475 36.3558 20.6202 36.3558 20.6928C36.3558 20.8382 36.3196 20.9472 36.247 21.038C36.1745 21.147 36.0657 21.1834 35.9569 21.1834C35.8481 21.1834 35.703 21.147 35.5761 21.0744L31.3144 18.8579L27.0528 21.1107C26.9077 21.1834 26.7627 21.2197 26.672 21.2197C26.5269 21.2197 26.4181 21.1834 26.3637 21.0744C26.2912 20.9653 26.2549 20.8563 26.2549 20.7292C26.2549 20.6928 26.2549 20.6202 26.2912 20.5475L27.1072 15.7513L23.6617 12.3721C23.4803 12.1904 23.4078 12.0632 23.4078 11.9179C23.4078 11.6636 23.5891 11.5364 23.9337 11.5L28.7212 10.7915L30.8611 6.46763C30.9699 6.21329 31.1512 6.08611 31.3144 6.08611C31.4958 6.08611 31.659 6.23145 31.7678 6.46763L33.9077 10.7915L38.6952 11.5C39.0397 11.5727 39.2211 11.7181 39.2211 11.9179C39.2211 12.0632 39.1486 12.2086 38.9672 12.3721L35.5398 15.7513Z" fill="white"/>
</svg>
