<svg width="20" height="18" viewBox="0 0 20 18" fill="none" xmlns="http://www.w3.org/2000/svg">
<rect width="20" height="18" fill="#E5E5E5"/>
<rect width="1440" height="3016" transform="translate(-272 -1904)" fill="white"/>
<rect x="-272" y="-306" width="1440" height="1023" fill="white"/>
<rect width="1165" height="863" transform="translate(-134 -226)" fill="white"/>
<path d="M18.25 3H14.4993V2.25C14.4986 1.65347 14.2613 1.08156 13.8395 0.65975C13.4177 0.237938 12.8458 0.000669968 12.2493 0H7.74925C7.15272 0.000669968 6.58081 0.237938 6.159 0.65975C5.73719 1.08156 5.49992 1.65347 5.49925 2.25V3H1.75C1.35231 3.00045 0.971041 3.15863 0.689833 3.43983C0.408625 3.72104 0.250447 4.10231 0.25 4.5V16.5C0.250447 16.8977 0.408625 17.279 0.689833 17.5602C0.971041 17.8414 1.35231 17.9996 1.75 18H18.25C18.6477 17.9996 19.029 17.8414 19.3102 17.5602C19.5914 17.279 19.7496 16.8977 19.75 16.5V4.5C19.7496 4.10231 19.5914 3.72104 19.3102 3.43983C19.029 3.15863 18.6477 3.00045 18.25 3ZM6.99925 2.25C6.9995 2.05116 7.0786 1.86054 7.21919 1.71994C7.35979 1.57935 7.55041 1.50025 7.74925 1.5H12.2493C12.4481 1.50025 12.6387 1.57935 12.7793 1.71994C12.9199 1.86054 12.999 2.05116 12.9993 2.25V3H6.99925V2.25ZM12.9993 4.5V16.5H6.99925V4.5H12.9993ZM1.75 4.5H5.49925V16.5H1.75V4.5ZM18.25 16.5H14.4993V4.5H18.25L18.2509 16.5H18.25Z" fill="#52606D"/>
</svg>
