<svg width="9" height="8" viewBox="0 0 9 8" fill="none" xmlns="http://www.w3.org/2000/svg">
<path d="M6.97034 0.97028C6.96322 0.977184 6.95653 0.984532 6.95034 0.992281L3.47734 5.41728L1.38434 3.32328C1.24216 3.1908 1.05412 3.11868 0.859816 3.12211C0.665515 3.12553 0.48013 3.20425 0.342717 3.34166C0.205304 3.47907 0.126592 3.66446 0.123164 3.85876C0.119736 4.05306 0.191858 4.24111 0.324338 4.38328L2.97034 7.03028C3.04162 7.10143 3.1265 7.1575 3.21992 7.19514C3.31334 7.23277 3.41339 7.25121 3.51408 7.24934C3.61478 7.24747 3.71407 7.22534 3.80604 7.18427C3.898 7.1432 3.98074 7.08403 4.04934 7.01028L8.04134 2.02028C8.17727 1.87761 8.25159 1.68718 8.24823 1.49015C8.24487 1.29312 8.16411 1.10533 8.02339 0.967375C7.88268 0.829421 7.69333 0.752389 7.49627 0.752933C7.29921 0.753476 7.11029 0.831552 6.97034 0.97028Z" fill="#4BCA81"/>
</svg>
