<svg width="18" height="22" viewBox="0 0 18 22" fill="none" xmlns="http://www.w3.org/2000/svg">
<rect width="18" height="22" fill="#E5E5E5"/>
<rect width="1440" height="3016" transform="translate(-141 -1902)" fill="white"/>
<rect x="-141" y="-304" width="1440" height="1023" fill="white"/>
<rect width="1165" height="863" transform="translate(-3 -224)" fill="white"/>
<path d="M3.03239 14.2873L8.99999 21L14.9676 14.2873C19.5446 9.1388 15.8893 1 8.99999 1C2.11068 1 -1.54462 9.1388 3.03239 14.2873Z" stroke="#52606D" stroke-width="1.5" stroke-linecap="round" stroke-linejoin="round"/>
<path d="M9 12C10.6569 12 12 10.6569 12 9C12 7.34315 10.6569 6 9 6C7.34315 6 6 7.34315 6 9C6 10.6569 7.34315 12 9 12Z" stroke="#52606D" stroke-width="1.5" stroke-linecap="round" stroke-linejoin="round"/>
</svg>
