<!DOCTYPE svg PUBLIC "-//W3C//DTD SVG 1.1//EN"
  "http://www.w3.org/Graphics/SVG/1.1/DTD/svg11.dtd">
<svg width="12" height="12" viewBox="0 0 12 12" fill="none" xmlns="http://www.w3.org/2000/svg">
<defs>
    <style type="text/css"><![CDATA[
      .markers {
	animation: 6s linear forwards Component_3;
	  animation-iteration-count: infinite;
	    animation-direction: reverse;
}
@keyframes Component_3 {
	from {
	fill:#CBD2D9
	}
	to {
	fill:#0967D2
	}
}
    ]]></style>
  </defs>
<path d="M12 6C12 7.5913 11.3679 9.11742 10.2426 10.2426C9.11742 11.3679 7.5913 12 6 12C4.4087 12 2.88258 11.3679 1.75736 10.2426C0.632141 9.11742 0 7.5913 0 6C0 4.4087 0.632141 2.88258 1.75736 1.75736C2.88258 0.632141 4.4087 0 6 0C7.5913 0 9.11742 0.632141 10.2426 1.75736C11.3679 2.88258 12 4.4087 12 6ZM9.0225 3.7275C8.96893 3.67411 8.90514 3.63208 8.83495 3.60391C8.76476 3.57574 8.68961 3.56202 8.61399 3.56356C8.53838 3.5651 8.46385 3.58187 8.39486 3.61288C8.32588 3.64388 8.26385 3.68848 8.2125 3.744L5.60775 7.06275L4.038 5.49225C3.93137 5.39289 3.79033 5.3388 3.64461 5.34137C3.49888 5.34394 3.35984 5.40297 3.25678 5.50603C3.15372 5.60909 3.09469 5.74813 3.09212 5.89386C3.08955 6.03958 3.14364 6.18062 3.243 6.28725L5.2275 8.2725C5.28096 8.32586 5.34462 8.36791 5.41469 8.39614C5.48475 8.42437 5.55979 8.43819 5.63531 8.43679C5.71083 8.43539 5.7853 8.4188 5.85427 8.38799C5.92324 8.35719 5.9853 8.31281 6.03675 8.2575L9.03075 4.515C9.13282 4.40887 9.18921 4.26696 9.18781 4.11972C9.1864 3.97248 9.12732 3.83166 9.02325 3.7275H9.0225Z" fill="#CBD2D9" class="markers"/>
</svg>
