<svg width="22" height="22" viewBox="0 0 22 22" fill="none" xmlns="http://www.w3.org/2000/svg">
<rect width="22" height="22" fill="#E5E5E5"/>
<rect width="375" height="4311" transform="translate(-177 -1719)" fill="white"/>
<rect x="-177" y="-128" width="375" height="694" fill="#F5F7FA"/>
<path d="M11 21C16.5228 21 21 16.5228 21 11C21 5.47715 16.5228 1 11 1C5.47715 1 1 5.47715 1 11C1 16.5228 5.47715 21 11 21Z" stroke="#171717" stroke-width="1.5" stroke-linecap="round" stroke-linejoin="round"/>
<path d="M2 11H21" stroke="#171717" stroke-width="1.5" stroke-linecap="round" stroke-linejoin="round"/>
<path d="M11 1.20215C13.4744 3.72723 15 7.18551 15 11.0001C15 14.8148 13.4744 18.273 11 20.7981" stroke="#171717" stroke-width="1.5" stroke-linecap="round" stroke-linejoin="round"/>
<path d="M11 1.20215C8.52563 3.72723 7 7.18551 7 11.0001C7 14.8148 8.52563 18.273 11 20.7981" stroke="#171717" stroke-width="1.5" stroke-linecap="round" stroke-linejoin="round"/>
</svg>
