<svg width="24" height="16" viewBox="0 0 24 16" fill="none" xmlns="http://www.w3.org/2000/svg">
<path d="M24 10.6C24 11.2 22.8 11.6 21.4 11.8C20.5 10.1 18.7 8.8 16.6 7.9C16.8 7.6 17 7.4 17.2 7.1H18C21.1 7 24 8.9 24 10.6ZM6.8 7H6C2.9 7 0 8.9 0 10.6C0 11.2 1.2 11.6 2.6 11.8C3.5 10.1 5.3 8.8 7.4 7.9L6.8 7ZM12 8C14.2 8 16 6.2 16 4C16 1.8 14.2 0 12 0C9.8 0 8 1.8 8 4C8 6.2 9.8 8 12 8ZM12 9C7.9 9 4 11.6 4 14C4 16 12 16 12 16C12 16 20 16 20 14C20 11.6 16.1 9 12 9ZM17.7 6H18C19.7 6 21 4.7 21 3C21 1.3 19.7 0 18 0C17.5 0 17.1 0.1 16.7 0.3C17.5 1.3 18 2.6 18 4C18 4.7 17.9 5.4 17.7 6ZM6 6H6.3C6.1 5.4 6 4.7 6 4C6 2.6 6.5 1.3 7.3 0.3C6.9 0.1 6.5 0 6 0C4.3 0 3 1.3 3 3C3 4.7 4.3 6 6 6Z" fill="white"/>
</svg>
