<svg width="24" height="32" viewBox="0 0 24 32" fill="none" xmlns="http://www.w3.org/2000/svg">
<rect width="24" height="32" fill="#E5E5E5"/>
<rect width="375" height="4983" transform="translate(-35 -1636)" fill="white"/>
<circle cx="12" cy="16" r="32" fill="#E6F6FF"/>
<path d="M13.6616 21.9014C13.2857 21.7521 12.9011 21.6257 12.51 21.5227C12.3696 21.4831 12.2189 21.4422 12.0592 21.3995C11.8124 21.3321 11.6116 21.275 11.4582 21.2313C11.2536 21.1726 11.1688 21.1449 11.1396 21.1343C11.0113 21.0893 10.8971 21.0111 10.8086 20.9077C10.7503 20.8359 10.7192 20.7459 10.7205 20.6534C10.7239 20.5696 10.7475 20.4879 10.7891 20.4152C10.8307 20.3424 10.8892 20.2807 10.9596 20.2353C11.1018 20.14 11.2652 20.0811 11.4355 20.0637C11.5863 20.0418 11.7386 20.0317 11.8909 20.0334C12.0641 20.0303 12.2367 20.0522 12.4036 20.0985C12.523 20.1316 12.6349 20.1874 12.7331 20.2629C12.8445 20.3514 12.9327 20.4657 12.9901 20.5958C13.07 20.7665 13.2138 20.8988 13.3904 20.9643C13.5671 21.0298 13.7624 21.0231 13.9342 20.9457C14.1059 20.8683 14.2403 20.7265 14.3083 20.5508C14.3763 20.3751 14.3725 20.1797 14.2976 20.0068C14.2426 19.879 14.1736 19.7576 14.0921 19.6449C13.857 19.3469 13.5404 19.1236 13.1809 19.0019C13.0081 18.9368 12.8301 18.8867 12.6487 18.8522V18.3311H11.2153V18.8251C11.0884 18.8458 10.963 18.8748 10.8399 18.9117C10.5772 18.9808 10.3285 19.0953 10.1053 19.2501C9.86352 19.4219 9.66496 19.6476 9.52533 19.9094C9.3762 20.1897 9.3021 20.5038 9.31021 20.8211C9.31833 21.1385 9.40838 21.4484 9.57163 21.7207C9.75576 22.0149 10.0227 22.2481 10.3389 22.3911C10.6673 22.5345 11.0063 22.6522 11.3529 22.7432C11.5461 22.7988 11.7607 22.8557 11.9989 22.9161C12.1503 22.954 12.2863 22.9907 12.4058 23.0236C12.6219 23.0736 12.831 23.1497 13.0286 23.2503C13.1 23.2917 13.159 23.3516 13.1992 23.4237C13.2394 23.4958 13.2594 23.5774 13.2571 23.66C13.255 23.7684 13.2279 23.875 13.178 23.9713C13.1281 24.0676 13.0568 24.1512 12.9695 24.2156C12.8111 24.3365 12.6236 24.4132 12.4259 24.4381C12.2863 24.4609 12.1449 24.4717 12.0034 24.4703C11.8186 24.4725 11.6343 24.4512 11.4548 24.4069C11.2856 24.365 11.1275 24.2865 10.992 24.1769C10.8369 24.0451 10.7193 23.8747 10.6513 23.683C10.6171 23.5953 10.566 23.5153 10.5009 23.4474C10.4358 23.3795 10.358 23.325 10.2719 23.2872C10.1857 23.2494 10.093 23.2289 9.99895 23.227C9.9049 23.225 9.81138 23.2415 9.72374 23.2757C9.63609 23.3099 9.55604 23.361 9.48814 23.4261C9.42024 23.4912 9.36583 23.569 9.32801 23.6551C9.29019 23.7413 9.26971 23.834 9.26774 23.9281C9.26576 24.0221 9.28233 24.1156 9.31649 24.2033C9.4617 24.5844 9.70564 24.92 10.0233 25.1757C10.3727 25.4373 10.7829 25.6057 11.2153 25.6652V26.1727H12.6487V25.676C12.9113 25.6338 13.1675 25.5589 13.4115 25.4531C13.8087 25.2886 14.1489 25.0112 14.39 24.6552C14.6121 24.3284 14.7316 23.9427 14.7333 23.5475C14.7445 23.186 14.6434 22.83 14.4439 22.5283C14.248 22.2493 13.9766 22.0318 13.6616 21.9014Z" fill="#1487C5"/>
<path d="M23.1192 23.872L18.1068 13.1579L18.1682 12.8303L19.7564 4.34237C19.8082 4.04715 19.7548 3.74311 19.6054 3.48322C19.4561 3.22333 19.2204 3.02403 18.9393 2.92005L12.4973 0.422525C12.2376 0.321412 11.9533 0.301841 11.6822 0.36642C11.411 0.430998 11.166 0.57666 10.9798 0.783997C10.7942 0.999282 10.6842 1.26935 10.6664 1.55302L10.521 3.35729L6.34826 2.62104C6.07294 2.57213 5.78924 2.60858 5.53521 2.72548C5.4024 2.78444 5.28053 2.86546 5.17477 2.9651C5.02303 3.1062 4.90835 3.28248 4.84084 3.47839C4.77334 3.67429 4.75509 3.88379 4.7877 4.08842L6.16906 12.4893L0.880142 23.872C0.491543 24.7081 0.319972 25.6287 0.381283 26.5487C0.442594 27.4687 0.73481 28.3584 1.23093 29.1356C1.72704 29.9128 2.41105 30.5524 3.21975 30.9953C4.02844 31.4382 4.93573 31.6702 5.85777 31.6697H18.1426C19.0647 31.6703 19.972 31.4384 20.7807 30.9955C21.5894 30.5526 22.2734 29.9129 22.7694 29.1357C23.2655 28.3584 23.5576 27.4687 23.6187 26.5486C23.6799 25.6286 23.5081 24.708 23.1192 23.872H23.1192ZM10.3152 5.93572L10.2609 6.62897C10.2502 6.80055 10.2736 6.97256 10.3297 7.13508C10.3857 7.2976 10.4734 7.44742 10.5876 7.57592C10.7018 7.70441 10.8403 7.80904 10.9952 7.88377C11.15 7.9585 11.3181 8.00186 11.4897 8.01134C11.5246 8.01441 11.5573 8.01544 11.5921 8.01544C11.923 8.02036 12.2436 7.90076 12.4903 7.68035C12.7371 7.45995 12.892 7.15484 12.9243 6.82556L13.1916 3.46481L16.9353 4.91581L15.642 11.8155C14.6153 12.429 13.4503 12.7733 12.2551 12.8164C11.0599 12.8596 9.87307 12.6001 8.80483 12.0623L7.72043 5.479L10.3152 5.93572ZM11.9997 27.414C10.9787 27.414 9.98073 27.1112 9.13185 26.544C8.28298 25.9768 7.62136 25.1706 7.23066 24.2274C6.83997 23.2842 6.73774 22.2463 6.93692 21.245C7.1361 20.2436 7.62772 19.3239 8.34964 18.602C9.07155 17.8801 9.99132 17.3884 10.9926 17.1892C11.994 16.9901 13.0319 17.0923 13.9751 17.483C14.9183 17.8737 15.7245 18.5353 16.2917 19.3842C16.8589 20.2331 17.1616 21.2311 17.1616 22.252C17.1602 23.6206 16.6159 24.9328 15.6482 25.9005C14.6804 26.8683 13.3683 27.4126 11.9997 27.414Z" fill="#395062"/>
</svg>
