<svg width="19" height="24" viewBox="0 0 19 24" fill="none" xmlns="http://www.w3.org/2000/svg">
<rect width="19" height="24" fill="#E5E5E5"/>
<rect width="375" height="4311" transform="translate(-179 -964)" fill="white"/>
<rect x="-15" y="-12" width="48" height="48" rx="8" fill="#FEE7E7"/>
<g clip-path="url(#clip0)">
<path d="M11.0979 0.00246477C8.43846 -0.0657852 5.82261 1.28583 4.40062 3.74958C2.704 6.68913 3.23089 10.3051 5.45092 12.6529L4.23656 14.7578C4.21189 14.8005 4.19588 14.8477 4.18945 14.8966C4.18302 14.9455 4.1863 14.9951 4.19909 15.0427C4.21188 15.0903 4.23393 15.135 4.26399 15.1741C4.29405 15.2132 4.33152 15.246 4.37426 15.2706L4.5266 15.3585L3.76635 16.6754L3.05883 17.9013L2.45824 18.9429L1.94848 19.8248L0.969959 21.5211C0.515252 22.3089 0.788733 23.3248 1.5764 23.7799C2.3641 24.2347 3.37901 23.9627 3.83373 23.1749L7.39037 17.0123L7.54418 17.1002C7.58679 17.1249 7.63385 17.141 7.68268 17.1475C7.73151 17.154 7.78115 17.1509 7.82876 17.1383C7.87637 17.1256 7.92102 17.1037 7.96016 17.0738C7.9993 17.0439 8.03217 17.0065 8.05687 16.9638L9.29027 14.8253C12.3943 15.5039 15.7158 14.1467 17.3879 11.2496C19.4563 7.66593 18.2268 3.0721 14.6443 1.003C13.5247 0.356424 12.3067 0.0334398 11.0979 0.00246477ZM11.0745 0.74807C12.162 0.77657 13.2594 1.07019 14.2693 1.65339C17.5008 3.51969 18.6048 7.64193 16.739 10.8746C14.8732 14.1072 10.7523 15.2121 7.52074 13.3458C4.28924 11.4795 3.18526 7.35716 5.05101 4.12458C6.33372 1.90211 8.68176 0.68507 11.0745 0.74807ZM11.0569 1.50105C8.92933 1.44705 6.83725 2.52911 5.69994 4.49958C4.04567 7.36578 5.02891 11.042 7.89427 12.6968C10.7596 14.3517 14.4358 13.3658 16.0901 10.4996C17.7443 7.63346 16.7596 3.95707 13.8943 2.30227C12.9988 1.78514 12.0239 1.52565 11.0569 1.50105ZM11.0349 2.24807C11.8807 2.27057 12.7335 2.49896 13.5193 2.95271C16.0336 4.40486 16.8928 7.60938 15.4411 10.1246C13.9895 12.6398 10.7836 13.5001 8.26927 12.0479C5.75496 10.5958 4.89718 7.38971 6.34886 4.87458C7.3469 3.14538 9.17409 2.19887 11.0349 2.24807ZM6.01048 13.1846C6.35811 13.4831 6.73477 13.7573 7.14574 13.9947C7.59721 14.2554 8.06528 14.4639 8.54173 14.6217L7.59398 16.2636L5.07298 14.8076L6.01048 13.1846ZM5.17552 15.7335L6.74144 16.6373L3.1848 22.7999C2.93126 23.2391 2.39045 23.3845 1.9514 23.1309C1.51233 22.8774 1.36685 22.3353 1.62035 21.8961L2.59886 20.1998L3.10863 19.3179L3.70921 18.2763L4.41673 17.0504L5.17552 15.7335Z" fill="#C40808"/>
</g>
<defs>
<clipPath id="clip0">
<rect width="24" height="24" fill="white" transform="translate(-3)"/>
</clipPath>
</defs>
</svg>
