<svg width="20" height="14" viewBox="0 0 20 14" fill="none" xmlns="http://www.w3.org/2000/svg">
<rect width="20" height="14" fill="#E5E5E5"/>
<rect width="375" height="4311" transform="translate(-178 -1379)" fill="white"/>
<rect x="-14" y="-17" width="48" height="48" rx="8" fill="#E8FEE6"/>
<path d="M7 7C8.93 7 10.5 5.43 10.5 3.5C10.5 1.57 8.93 0 7 0C5.07 0 3.5 1.57 3.5 3.5C3.5 5.43 5.07 7 7 7ZM7 2C7.83 2 8.5 2.67 8.5 3.5C8.5 4.33 7.83 5 7 5C6.17 5 5.5 4.33 5.5 3.5C5.5 2.67 6.17 2 7 2ZM7 8.75C4.66 8.75 0 9.92 0 12.25V13C0 13.55 0.45 14 1 14H13C13.55 14 14 13.55 14 13V12.25C14 9.92 9.34 8.75 7 8.75ZM2.34 12C3.18 11.42 5.21 10.75 7 10.75C8.79 10.75 10.82 11.42 11.66 12H2.34ZM14.04 8.81C15.2 9.65 16 10.77 16 12.25V14H19C19.55 14 20 13.55 20 13V12.25C20 10.23 16.5 9.08 14.04 8.81ZM13 7C14.93 7 16.5 5.43 16.5 3.5C16.5 1.57 14.93 0 13 0C12.46 0 11.96 0.13 11.5 0.35C12.13 1.24 12.5 2.33 12.5 3.5C12.5 4.67 12.13 5.76 11.5 6.65C11.96 6.87 12.46 7 13 7Z" fill="#17C408"/>
</svg>
