<svg width="20" height="20" viewBox="0 0 20 20" fill="none" xmlns="http://www.w3.org/2000/svg">
<rect width="20" height="20" fill="#E5E5E5"/>
<rect width="375" height="4311" transform="translate(-129 -384)" fill="white"/>
<rect x="-98.5" y="-13.5" width="315" height="47" rx="3.5" fill="white"/>
<path d="M17.4998 0H7.49979C6.39679 0 5.49979 0.897 5.49979 2V7.586L0.792787 12.293C0.652977 12.4329 0.557771 12.611 0.519203 12.805C0.480636 12.9989 0.500439 13.2 0.576109 13.3827C0.651779 13.5654 0.779918 13.7215 0.944328 13.8314C1.10874 13.9413 1.30204 14 1.49979 14V19C1.49979 19.2652 1.60514 19.5196 1.79268 19.7071C1.98022 19.8946 2.23457 20 2.49979 20H18.4998C18.765 20 19.0194 19.8946 19.2069 19.7071C19.3944 19.5196 19.4998 19.2652 19.4998 19V2C19.4998 0.897 18.6028 0 17.4998 0ZM9.49979 18H3.49979V12.414L6.49979 9.414L9.49979 12.414V18ZM17.4998 18H11.4998V14C11.6978 14.0004 11.8914 13.942 12.0561 13.8322C12.2208 13.7224 12.3492 13.5662 12.425 13.3833C12.5007 13.2004 12.5204 12.9991 12.4816 12.805C12.4427 12.6109 12.3471 12.4327 12.2068 12.293L7.49979 7.586V2H17.4998V18Z" fill="#52606D"/>
<path d="M9.5 4H11.5V6H9.5V4ZM13.5 4H15.5V6H13.5V4ZM13.5 8.031H15.5V10H13.5V8.031ZM13.5 12H15.5V14H13.5V12ZM5.5 13H7.5V15H5.5V13Z" fill="#52606D"/>
<rect x="-98.5" y="-13.5" width="315" height="47" rx="3.5" stroke="#CBD2D9"/>
</svg>
