<svg id="Layer_1" data-name="Layer 1" xmlns="http://www.w3.org/2000/svg" xmlns:xlink="http://www.w3.org/1999/xlink" viewBox="0 0 1080 1080"><defs><style>.cls-1{fill:url(#linear-gradient);}.cls-2{fill:url(#linear-gradient-2);}.cls-3{fill:url(#linear-gradient-3);}.cls-4{fill:url(#linear-gradient-4);}.cls-5{fill:url(#linear-gradient-5);}</style><linearGradient id="linear-gradient" x1="1340.19" y1="869.63" x2="111.58" y2="886.84" gradientUnits="userSpaceOnUse"><stop offset="0" stop-color="#40bad5"/><stop offset="1" stop-color="#035aa6"/></linearGradient><linearGradient id="linear-gradient-2" x1="818.57" y1="763.41" x2="580.45" y2="57.66" xlink:href="#linear-gradient"/><linearGradient id="linear-gradient-3" x1="730.27" y1="735.76" x2="254.03" y2="21.4" xlink:href="#linear-gradient"/><linearGradient id="linear-gradient-4" x1="594.14" y1="826.51" x2="117.9" y2="112.16" xlink:href="#linear-gradient"/><linearGradient id="linear-gradient-5" x1="662.2" y1="781.14" x2="185.96" y2="66.78" xlink:href="#linear-gradient"/></defs><title>logo</title><polygon class="cls-1" points="1032.68 1029.47 725.44 1029.47 521.04 725.57 821.18 731.57 1032.68 1029.47"/><path class="cls-2" d="M1032.68,415A366.57,366.57,0,0,1,666.13,781.59H560.26L391.16,540.08H664a124.33,124.33,0,0,0,0-248.65H516.44L352.46,58l-6.71-9.45H666.13C868.57,48.5,1032.68,212.61,1032.68,415Z"/><polygon class="cls-3" points="543.65 414.02 500.14 414.02 244.43 48.8 288.14 49.09 543.65 414.02"/><polygon class="cls-4" points="347.01 414.02 303.5 414.02 47.79 48.8 91.5 49.09 347.01 414.02"/><polygon class="cls-5" points="445.33 414.02 401.82 414.02 146.11 48.8 189.82 49.09 445.33 414.02"/></svg>