<svg width="22" height="24" viewBox="0 0 22 24" fill="none" xmlns="http://www.w3.org/2000/svg">
<path fill-rule="evenodd" clip-rule="evenodd" d="M11 0C9.96501 0 8.23551 0.3975 6.60801 0.84C4.94301 1.29 3.26451 1.8225 2.27751 2.145C1.86485 2.28128 1.49899 2.5312 1.22198 2.86605C0.944973 3.20091 0.768039 3.60711 0.711508 4.038C-0.182492 10.7535 1.89201 15.7305 4.40901 19.023C5.47638 20.4314 6.74905 21.6717 8.18451 22.7025C8.76351 23.112 9.30051 23.4255 9.75651 23.64C10.1765 23.838 10.628 24 11 24C11.372 24 11.822 23.838 12.2435 23.64C12.7932 23.3728 13.3191 23.0592 13.8155 22.7025C15.251 21.6718 16.5237 20.4315 17.591 19.023C20.108 15.7305 22.1825 10.7535 21.2885 4.038C21.2321 3.6069 21.0552 3.20046 20.7782 2.86535C20.5012 2.53024 20.1353 2.28004 19.7225 2.1435C18.2897 1.67372 16.8458 1.23859 15.392 0.8385C13.7645 0.399 12.035 0 11 0ZM14.219 7.719C14.3598 7.57817 14.5508 7.49905 14.75 7.49905C14.9492 7.49905 15.1402 7.57817 15.281 7.719C15.4218 7.85983 15.501 8.05084 15.501 8.25C15.501 8.44916 15.4218 8.64017 15.281 8.781L10.781 13.281C10.7113 13.3508 10.6286 13.4063 10.5375 13.4441C10.4463 13.4819 10.3487 13.5013 10.25 13.5013C10.1514 13.5013 10.0537 13.4819 9.96256 13.4441C9.87144 13.4063 9.78868 13.3508 9.71901 13.281L7.46901 11.031C7.39928 10.9613 7.34396 10.8785 7.30622 10.7874C7.26848 10.6963 7.24906 10.5986 7.24906 10.5C7.24906 10.4014 7.26848 10.3037 7.30622 10.2126C7.34396 10.1215 7.39928 10.0387 7.46901 9.969C7.53874 9.89927 7.62152 9.84395 7.71263 9.80622C7.80374 9.76848 7.90139 9.74905 8.00001 9.74905C8.09862 9.74905 8.19627 9.76848 8.28738 9.80622C8.37849 9.84395 8.46128 9.89927 8.53101 9.969L10.25 11.6895L14.219 7.719Z" fill="white"/>
</svg>
