<svg width="58" height="58" viewBox="0 0 58 58" fill="none" xmlns="http://www.w3.org/2000/svg">
<circle opacity="0.1" cx="29" cy="29" r="29" fill="#40BAD5"/>
<path d="M33.8428 41.1223C34.1028 40.9821 34.2649 40.7154 34.2649 40.4253V35.9081H43.1841C43.6345 35.9081 44 35.5511 44 35.1111C44 34.6712 43.6345 34.3142 43.1841 34.3142H34.2649V29.797C34.2649 29.5059 34.1028 29.2391 33.8428 29.0999C33.5828 28.9586 33.2652 28.9682 33.0139 29.1223L24.3807 34.4364C24.1436 34.583 24 34.837 24 35.1111C24 35.3853 24.1436 35.6393 24.3807 35.7859L33.0139 41.1C33.1466 41.1808 33.2978 41.2222 33.449 41.2222C33.5839 41.2222 33.7199 41.1882 33.8428 41.1223Z" fill="#40BAD5"/>
<path d="M24.1572 17.0999C23.8972 17.2402 23.7351 17.5069 23.7351 17.797V22.3141L14.8159 22.3141C14.3655 22.3141 14 22.6712 14 23.1111C14 23.551 14.3655 23.908 14.8159 23.908L23.7351 23.908V28.4252C23.7351 28.7164 23.8972 28.9831 24.1572 29.1223C24.4172 29.2636 24.7348 29.2541 24.9861 29.1L33.6193 23.7858C33.8564 23.6392 34 23.3852 34 23.1111C34 22.8369 33.8564 22.583 33.6193 22.4363L24.9861 17.1222C24.8534 17.0414 24.7022 17 24.551 17C24.4161 17 24.2801 17.034 24.1572 17.0999Z" fill="#40BAD5"/>
</svg>
