<svg width="14" height="13" viewBox="0 0 14 13" fill="none" xmlns="http://www.w3.org/2000/svg">
<path d="M13.572 0.298256C13.1874 -0.0862721 12.5663 -0.0862721 12.1817 0.298256L7.36035 5.10978L2.53896 0.288396C2.15444 -0.096132 1.53328 -0.096132 1.14875 0.288396C0.76422 0.672924 0.76422 1.29408 1.14875 1.67861L5.97014 6.5L1.14875 11.3214C0.76422 11.7059 0.76422 12.3271 1.14875 12.7116C1.53328 13.0961 2.15444 13.0961 2.53896 12.7116L7.36035 7.89022L12.1817 12.7116C12.5663 13.0961 13.1874 13.0961 13.572 12.7116C13.9565 12.3271 13.9565 11.7059 13.572 11.3214L8.75057 6.5L13.572 1.67861C13.9466 1.30394 13.9466 0.672924 13.572 0.298256Z" fill="white"/>
</svg>
