<svg width="380" height="427" viewBox="0 0 380 427" fill="none" xmlns="http://www.w3.org/2000/svg">
<rect x="33" y="18" width="320" height="367" rx="20" fill="#40BAD5"/>
<g filter="url(#filter0_d)">
<rect x="25" y="10" width="320" height="367" rx="20" fill="white"/>
</g>
<rect x="45" y="294" width="280" height="60" rx="20" fill="#40BAD5" fill-opacity="0.15"/>
<path d="M171.113 326.016C171.113 325.573 170.956 325.234 170.644 325C170.331 324.76 169.769 324.51 168.956 324.25C168.144 323.984 167.501 323.724 167.027 323.469C165.735 322.771 165.089 321.831 165.089 320.648C165.089 320.034 165.261 319.487 165.605 319.008C165.954 318.523 166.451 318.146 167.097 317.875C167.748 317.604 168.477 317.469 169.284 317.469C170.097 317.469 170.821 317.617 171.456 317.914C172.092 318.206 172.584 318.62 172.933 319.156C173.287 319.693 173.464 320.302 173.464 320.984H171.12C171.12 320.464 170.956 320.06 170.628 319.773C170.3 319.482 169.839 319.336 169.245 319.336C168.672 319.336 168.227 319.458 167.909 319.703C167.592 319.943 167.433 320.26 167.433 320.656C167.433 321.026 167.618 321.336 167.988 321.586C168.363 321.836 168.912 322.07 169.636 322.289C170.969 322.69 171.941 323.188 172.55 323.781C173.159 324.375 173.464 325.115 173.464 326C173.464 326.984 173.092 327.758 172.347 328.32C171.602 328.878 170.599 329.156 169.339 329.156C168.464 329.156 167.667 328.997 166.948 328.68C166.23 328.357 165.68 327.917 165.3 327.359C164.925 326.802 164.738 326.156 164.738 325.422H167.089C167.089 326.677 167.839 327.305 169.339 327.305C169.896 327.305 170.331 327.193 170.644 326.969C170.956 326.74 171.113 326.422 171.113 326.016ZM183.061 325.93L184.17 320.547H186.35L184.194 329H182.303L180.702 323.68L179.1 329H177.217L175.061 320.547H177.241L178.342 325.922L179.889 320.547H181.522L183.061 325.93ZM193.173 329C193.069 328.797 192.994 328.544 192.947 328.242C192.4 328.852 191.689 329.156 190.814 329.156C189.986 329.156 189.298 328.917 188.752 328.438C188.21 327.958 187.939 327.354 187.939 326.625C187.939 325.729 188.27 325.042 188.931 324.562C189.598 324.083 190.559 323.841 191.814 323.836H192.853V323.352C192.853 322.961 192.752 322.648 192.548 322.414C192.351 322.18 192.035 322.062 191.603 322.062C191.223 322.062 190.923 322.154 190.705 322.336C190.491 322.518 190.384 322.768 190.384 323.086H188.127C188.127 322.596 188.278 322.143 188.58 321.727C188.882 321.31 189.309 320.984 189.861 320.75C190.413 320.51 191.033 320.391 191.72 320.391C192.762 320.391 193.588 320.654 194.197 321.18C194.811 321.701 195.119 322.435 195.119 323.383V327.047C195.124 327.849 195.236 328.456 195.455 328.867V329H193.173ZM191.306 327.43C191.64 327.43 191.947 327.357 192.228 327.211C192.509 327.06 192.718 326.859 192.853 326.609V325.156H192.009C190.879 325.156 190.278 325.547 190.205 326.328L190.197 326.461C190.197 326.742 190.296 326.974 190.494 327.156C190.692 327.339 190.963 327.43 191.306 327.43ZM205.263 324.852C205.263 326.154 204.966 327.198 204.372 327.984C203.783 328.766 202.986 329.156 201.981 329.156C201.127 329.156 200.437 328.859 199.911 328.266V332.25H197.653V320.547H199.747L199.825 321.375C200.372 320.719 201.085 320.391 201.966 320.391C203.007 320.391 203.817 320.776 204.395 321.547C204.973 322.318 205.263 323.38 205.263 324.734V324.852ZM203.005 324.688C203.005 323.901 202.864 323.294 202.583 322.867C202.307 322.44 201.903 322.227 201.372 322.227C200.664 322.227 200.177 322.497 199.911 323.039V326.5C200.187 327.057 200.679 327.336 201.388 327.336C202.466 327.336 203.005 326.453 203.005 324.688Z" fill="#40BAD5"/>
<rect x="45" y="165" width="280" height="99" rx="20" fill="#F8F8F8"/>
<rect x="45" y="30" width="280" height="99" rx="20" fill="#F8F8F8"/>
<path d="M71.6445 58.6045H67.4678V63H66.1553V53.0469H72.3213V54.127H67.4678V57.5312H71.6445V58.6045ZM77.7928 56.7383C77.6014 56.7064 77.394 56.6904 77.1707 56.6904C76.3413 56.6904 75.7785 57.0436 75.4822 57.75V63H74.2176V55.6035H75.448L75.4686 56.458C75.8833 55.7972 76.4712 55.4668 77.2322 55.4668C77.4783 55.4668 77.6652 55.4987 77.7928 55.5625V56.7383ZM79.19 59.2334C79.19 58.5088 79.3313 57.8571 79.6139 57.2783C79.901 56.6995 80.2975 56.2529 80.8033 55.9385C81.3137 55.624 81.8948 55.4668 82.5465 55.4668C83.5536 55.4668 84.3671 55.8154 84.9869 56.5127C85.6113 57.21 85.9234 58.1374 85.9234 59.2949V59.3838C85.9234 60.1038 85.7844 60.751 85.5064 61.3252C85.233 61.8949 84.8388 62.3392 84.3238 62.6582C83.8134 62.9772 83.2255 63.1367 82.5602 63.1367C81.5576 63.1367 80.7441 62.7881 80.1197 62.0908C79.4999 61.3936 79.19 60.4707 79.19 59.3223V59.2334ZM80.4615 59.3838C80.4615 60.2041 80.6507 60.8626 81.0289 61.3594C81.4117 61.8561 81.9221 62.1045 82.5602 62.1045C83.2027 62.1045 83.7132 61.8538 84.0914 61.3525C84.4697 60.8467 84.6588 60.1403 84.6588 59.2334C84.6588 58.4222 84.4651 57.766 84.0777 57.2646C83.6949 56.7588 83.1845 56.5059 82.5465 56.5059C81.9221 56.5059 81.4186 56.7542 81.0357 57.251C80.6529 57.7477 80.4615 58.4587 80.4615 59.3838ZM89.3988 55.6035L89.433 56.4238C89.9753 55.7858 90.7068 55.4668 91.6273 55.4668C92.6618 55.4668 93.366 55.8633 93.7396 56.6562C93.9857 56.3008 94.3048 56.0137 94.6967 55.7949C95.0932 55.5762 95.5603 55.4668 96.098 55.4668C97.7204 55.4668 98.5453 56.3258 98.5727 58.0439V63H97.308V58.1191C97.308 57.5905 97.1872 57.1963 96.9457 56.9365C96.7042 56.6722 96.2986 56.54 95.7289 56.54C95.2595 56.54 94.8699 56.6813 94.56 56.9639C94.2501 57.2419 94.0701 57.6178 94.0199 58.0918V63H92.7484V58.1533C92.7484 57.0778 92.2221 56.54 91.1693 56.54C90.3399 56.54 89.7725 56.8932 89.4672 57.5996V63H88.2025V55.6035H89.3988Z" fill="#40BAD5"/>
<path d="M77.1172 100.723C77.1172 103.262 76.6836 105.148 75.8164 106.383C74.9492 107.617 73.5938 108.234 71.75 108.234C69.9297 108.234 68.582 107.633 67.707 106.43C66.832 105.219 66.3789 103.414 66.3477 101.016V98.1211C66.3477 95.6133 66.7812 93.75 67.6484 92.5312C68.5156 91.3125 69.875 90.7031 71.7266 90.7031C73.5625 90.7031 74.9141 91.293 75.7812 92.4727C76.6484 93.6445 77.0938 95.457 77.1172 97.9102V100.723ZM74.9492 97.7578C74.9492 95.9219 74.6914 94.5859 74.1758 93.75C73.6602 92.9062 72.8438 92.4844 71.7266 92.4844C70.6172 92.4844 69.8086 92.9023 69.3008 93.7383C68.793 94.5742 68.5312 95.8594 68.5156 97.5938V101.062C68.5156 102.906 68.7812 104.27 69.3125 105.152C69.8516 106.027 70.6641 106.465 71.75 106.465C72.8203 106.465 73.6133 106.051 74.1289 105.223C74.6523 104.395 74.9258 103.09 74.9492 101.309V97.7578ZM81.3641 106.863C81.3641 106.488 81.4734 106.176 81.6922 105.926C81.9187 105.676 82.2547 105.551 82.7 105.551C83.1453 105.551 83.4812 105.676 83.7078 105.926C83.9422 106.176 84.0594 106.488 84.0594 106.863C84.0594 107.223 83.9422 107.523 83.7078 107.766C83.4812 108.008 83.1453 108.129 82.7 108.129C82.2547 108.129 81.9187 108.008 81.6922 107.766C81.4734 107.523 81.3641 107.223 81.3641 106.863ZM99.3219 100.723C99.3219 103.262 98.8883 105.148 98.0211 106.383C97.1539 107.617 95.7984 108.234 93.9547 108.234C92.1344 108.234 90.7867 107.633 89.9117 106.43C89.0367 105.219 88.5836 103.414 88.5523 101.016V98.1211C88.5523 95.6133 88.9859 93.75 89.8531 92.5312C90.7203 91.3125 92.0797 90.7031 93.9312 90.7031C95.7672 90.7031 97.1187 91.293 97.9859 92.4727C98.8531 93.6445 99.2984 95.457 99.3219 97.9102V100.723ZM97.1539 97.7578C97.1539 95.9219 96.8961 94.5859 96.3805 93.75C95.8648 92.9062 95.0484 92.4844 93.9312 92.4844C92.8219 92.4844 92.0133 92.9023 91.5055 93.7383C90.9977 94.5742 90.7359 95.8594 90.7203 97.5938V101.062C90.7203 102.906 90.9859 104.27 91.5172 105.152C92.0562 106.027 92.8687 106.465 93.9547 106.465C95.025 106.465 95.818 106.051 96.3336 105.223C96.857 104.395 97.1305 103.09 97.1539 101.309V97.7578Z" fill="#BEBEBE"/>
<path d="M73.0322 189.127H69.833V198H68.5273V189.127H65.335V188.047H73.0322V189.127ZM73.992 194.233C73.992 193.509 74.1333 192.857 74.4158 192.278C74.7029 191.7 75.0994 191.253 75.6053 190.938C76.1157 190.624 76.6967 190.467 77.3484 190.467C78.3556 190.467 79.1691 190.815 79.7889 191.513C80.4132 192.21 80.7254 193.137 80.7254 194.295V194.384C80.7254 195.104 80.5864 195.751 80.3084 196.325C80.035 196.895 79.6408 197.339 79.1258 197.658C78.6154 197.977 78.0275 198.137 77.3621 198.137C76.3595 198.137 75.546 197.788 74.9217 197.091C74.3019 196.394 73.992 195.471 73.992 194.322V194.233ZM75.2635 194.384C75.2635 195.204 75.4526 195.863 75.8309 196.359C76.2137 196.856 76.7241 197.104 77.3621 197.104C78.0047 197.104 78.5151 196.854 78.8934 196.353C79.2716 195.847 79.4607 195.14 79.4607 194.233C79.4607 193.422 79.2671 192.766 78.8797 192.265C78.4969 191.759 77.9865 191.506 77.3484 191.506C76.7241 191.506 76.2205 191.754 75.8377 192.251C75.4549 192.748 75.2635 193.459 75.2635 194.384Z" fill="#40BAD5"/>
<path d="M77.1172 235.723C77.1172 238.262 76.6836 240.148 75.8164 241.383C74.9492 242.617 73.5938 243.234 71.75 243.234C69.9297 243.234 68.582 242.633 67.707 241.43C66.832 240.219 66.3789 238.414 66.3477 236.016V233.121C66.3477 230.613 66.7812 228.75 67.6484 227.531C68.5156 226.312 69.875 225.703 71.7266 225.703C73.5625 225.703 74.9141 226.293 75.7812 227.473C76.6484 228.645 77.0938 230.457 77.1172 232.91V235.723ZM74.9492 232.758C74.9492 230.922 74.6914 229.586 74.1758 228.75C73.6602 227.906 72.8438 227.484 71.7266 227.484C70.6172 227.484 69.8086 227.902 69.3008 228.738C68.793 229.574 68.5312 230.859 68.5156 232.594V236.062C68.5156 237.906 68.7812 239.27 69.3125 240.152C69.8516 241.027 70.6641 241.465 71.75 241.465C72.8203 241.465 73.6133 241.051 74.1289 240.223C74.6523 239.395 74.9258 238.09 74.9492 236.309V232.758ZM81.3641 241.863C81.3641 241.488 81.4734 241.176 81.6922 240.926C81.9187 240.676 82.2547 240.551 82.7 240.551C83.1453 240.551 83.4812 240.676 83.7078 240.926C83.9422 241.176 84.0594 241.488 84.0594 241.863C84.0594 242.223 83.9422 242.523 83.7078 242.766C83.4812 243.008 83.1453 243.129 82.7 243.129C82.2547 243.129 81.9187 243.008 81.6922 242.766C81.4734 242.523 81.3641 242.223 81.3641 241.863ZM99.3219 235.723C99.3219 238.262 98.8883 240.148 98.0211 241.383C97.1539 242.617 95.7984 243.234 93.9547 243.234C92.1344 243.234 90.7867 242.633 89.9117 241.43C89.0367 240.219 88.5836 238.414 88.5523 236.016V233.121C88.5523 230.613 88.9859 228.75 89.8531 227.531C90.7203 226.312 92.0797 225.703 93.9312 225.703C95.7672 225.703 97.1187 226.293 97.9859 227.473C98.8531 228.645 99.2984 230.457 99.3219 232.91V235.723ZM97.1539 232.758C97.1539 230.922 96.8961 229.586 96.3805 228.75C95.8648 227.906 95.0484 227.484 93.9312 227.484C92.8219 227.484 92.0133 227.902 91.5055 228.738C90.9977 229.574 90.7359 230.859 90.7203 232.594V236.062C90.7203 237.906 90.9859 239.27 91.5172 240.152C92.0562 241.027 92.8687 241.465 93.9547 241.465C95.025 241.465 95.818 241.051 96.3336 240.223C96.857 239.395 97.1305 238.09 97.1539 236.309V232.758Z" fill="#BEBEBE"/>
<path d="M183.593 140V151.17L178.713 146.29C178.323 145.9 177.682 145.9 177.292 146.29C176.903 146.68 176.903 147.31 177.292 147.7L183.883 154.29C184.273 154.68 184.902 154.68 185.292 154.29L191.883 147.7C192.273 147.31 192.273 146.68 191.883 146.29C191.493 145.9 190.862 145.9 190.472 146.29L185.592 151.17V140C185.592 139.45 185.143 139 184.593 139C184.043 139 183.593 139.45 183.593 140Z" fill="#40BAD5"/>
<path d="M195.84 100.974H193.503V105H192.183V95.0469H195.478C196.599 95.0469 197.461 95.3021 198.062 95.8125C198.668 96.3229 198.971 97.0658 198.971 98.041C198.971 98.6608 198.803 99.2008 198.465 99.6611C198.133 100.121 197.668 100.465 197.071 100.693L199.409 104.918V105H198.001L195.84 100.974ZM193.503 99.9004H195.519C196.171 99.9004 196.688 99.7318 197.071 99.3945C197.458 99.0573 197.652 98.6061 197.652 98.041C197.652 97.4258 197.467 96.9541 197.098 96.626C196.734 96.2979 196.205 96.1315 195.512 96.127H193.503V99.9004ZM208.866 103.694C208.528 104.177 208.057 104.54 207.451 104.781C206.849 105.018 206.147 105.137 205.345 105.137C204.534 105.137 203.814 104.948 203.185 104.569C202.556 104.187 202.068 103.644 201.722 102.942C201.38 102.241 201.205 101.427 201.196 100.502V99.6338C201.196 98.1344 201.544 96.9723 202.242 96.1475C202.943 95.3226 203.928 94.9102 205.195 94.9102C206.234 94.9102 207.07 95.1768 207.704 95.71C208.337 96.2386 208.724 96.9906 208.866 97.9658H207.553C207.307 96.6488 206.523 95.9902 205.202 95.9902C204.322 95.9902 203.654 96.3001 203.199 96.9199C202.747 97.5352 202.52 98.4284 202.515 99.5996V100.413C202.515 101.53 202.77 102.418 203.281 103.079C203.791 103.735 204.482 104.063 205.352 104.063C205.844 104.063 206.275 104.009 206.644 103.899C207.013 103.79 207.318 103.605 207.56 103.346V101.11H205.256V100.044H208.866V103.694ZM213.072 101.104V105H211.76V95.0469H215.431C216.52 95.0469 217.372 95.3249 217.988 95.8809C218.607 96.4368 218.917 97.1729 218.917 98.0889C218.917 99.055 218.614 99.8001 218.008 100.324C217.406 100.844 216.543 101.104 215.417 101.104H213.072ZM213.072 100.03H215.431C216.133 100.03 216.67 99.8662 217.044 99.5381C217.418 99.2054 217.605 98.7269 217.605 98.1025C217.605 97.5101 217.418 97.0361 217.044 96.6807C216.67 96.3252 216.158 96.1406 215.506 96.127H213.072V100.03ZM225.219 100.96C225.219 99.93 225.355 98.9411 225.629 97.9932C225.907 97.0452 226.319 96.1839 226.866 95.4092C227.413 94.6344 227.98 94.0876 228.568 93.7686L228.828 94.6025C228.163 95.113 227.616 95.8923 227.187 96.9404C226.763 97.9886 226.531 99.1621 226.49 100.461L226.483 101.042C226.483 102.801 226.804 104.328 227.447 105.622C227.834 106.397 228.295 107.003 228.828 107.44L228.568 108.213C227.962 107.876 227.383 107.311 226.832 106.518C225.756 104.968 225.219 103.116 225.219 100.96ZM230.95 105V95.0469H234.204C235.284 95.0469 236.095 95.2702 236.637 95.7168C237.184 96.1634 237.458 96.8242 237.458 97.6992C237.458 98.1641 237.325 98.5765 237.061 98.9365C236.797 99.292 236.437 99.5677 235.981 99.7637C236.519 99.9141 236.943 100.201 237.253 100.625C237.567 101.044 237.724 101.546 237.724 102.129C237.724 103.022 237.435 103.724 236.856 104.234C236.277 104.745 235.459 105 234.402 105H230.95ZM232.262 100.345V103.927H234.429C235.04 103.927 235.521 103.77 235.872 103.455C236.227 103.136 236.405 102.699 236.405 102.143C236.405 100.944 235.753 100.345 234.45 100.345H232.262ZM232.262 99.292H234.245C234.819 99.292 235.277 99.1484 235.619 98.8613C235.965 98.5742 236.138 98.1846 236.138 97.6924C236.138 97.1455 235.979 96.749 235.66 96.5029C235.341 96.2523 234.855 96.127 234.204 96.127H232.262V99.292ZM245.998 100.399H241.685V103.927H246.696V105H240.372V95.0469H246.627V96.127H241.685V99.3262H245.998V100.399ZM250.342 101.104V105H249.029V95.0469H252.7C253.79 95.0469 254.642 95.3249 255.257 95.8809C255.877 96.4368 256.187 97.1729 256.187 98.0889C256.187 99.055 255.884 99.8001 255.278 100.324C254.676 100.844 253.812 101.104 252.687 101.104H250.342ZM250.342 100.03H252.7C253.402 100.03 253.94 99.8662 254.314 99.5381C254.687 99.2054 254.874 98.7269 254.874 98.1025C254.874 97.5101 254.687 97.0361 254.314 96.6807C253.94 96.3252 253.427 96.1406 252.776 96.127H250.342V100.03ZM260.995 101.288H257.659V100.256H260.995V101.288ZM269.324 105H262.803V104.091L266.248 100.263C266.758 99.6839 267.109 99.2145 267.301 98.8545C267.497 98.4899 267.595 98.1139 267.595 97.7266C267.595 97.207 267.437 96.7809 267.123 96.4482C266.808 96.1156 266.389 95.9492 265.865 95.9492C265.236 95.9492 264.746 96.1292 264.395 96.4893C264.049 96.8447 263.876 97.3415 263.876 97.9795H262.611C262.611 97.0635 262.905 96.3229 263.493 95.7578C264.085 95.1927 264.876 94.9102 265.865 94.9102C266.79 94.9102 267.522 95.154 268.059 95.6416C268.597 96.1247 268.866 96.7695 268.866 97.5762C268.866 98.556 268.242 99.7227 266.993 101.076L264.327 103.968H269.324V105ZM277.605 100.755C277.605 102.236 277.352 103.337 276.846 104.057C276.34 104.777 275.55 105.137 274.474 105.137C273.412 105.137 272.626 104.786 272.116 104.084C271.605 103.378 271.341 102.325 271.323 100.926V99.2373C271.323 97.7744 271.576 96.6875 272.082 95.9766C272.588 95.2656 273.38 94.9102 274.461 94.9102C275.532 94.9102 276.32 95.2542 276.826 95.9424C277.332 96.626 277.591 97.6833 277.605 99.1143V100.755ZM276.34 99.0254C276.34 97.9544 276.19 97.1751 275.889 96.6875C275.588 96.1953 275.112 95.9492 274.461 95.9492C273.813 95.9492 273.342 96.193 273.046 96.6807C272.749 97.1683 272.597 97.918 272.588 98.9297V100.953C272.588 102.029 272.742 102.824 273.052 103.339C273.367 103.849 273.841 104.104 274.474 104.104C275.099 104.104 275.561 103.863 275.862 103.38C276.167 102.897 276.327 102.136 276.34 101.097V99.0254ZM282.974 101.028C282.974 102.045 282.84 103.02 282.571 103.954C282.306 104.884 281.899 105.743 281.347 106.531C280.8 107.32 280.226 107.88 279.624 108.213L279.358 107.44C280.06 106.903 280.622 106.069 281.046 104.938C281.475 103.804 281.693 102.546 281.703 101.165V100.946C281.703 99.9893 281.602 99.1006 281.402 98.2803C281.201 97.4554 280.921 96.7171 280.561 96.0654C280.205 95.4137 279.804 94.9056 279.358 94.541L279.624 93.7686C280.226 94.1012 280.798 94.6572 281.34 95.4365C281.887 96.2158 282.295 97.0749 282.564 98.0137C282.837 98.9525 282.974 99.9574 282.974 101.028Z" fill="#120136"/>
<path d="M303.462 97.2925L299.582 101.173L295.702 97.2925C295.312 96.9025 294.682 96.9025 294.292 97.2925C293.903 97.6825 293.903 98.3125 294.292 98.7025L298.883 103.293C299.273 103.683 299.903 103.683 300.293 103.293L304.882 98.7025C305.272 98.3125 305.272 97.6825 304.882 97.2925C304.492 96.9125 303.852 96.9025 303.462 97.2925V97.2925Z" fill="#120136"/>
<circle cx="171" cy="100" r="10" fill="#40BAD5"/>
<path d="M175.79 104.753H172.876L170.94 101.872L173.783 101.93L175.79 104.753Z" fill="white"/>
<path d="M175.79 98.9301C175.79 99.8903 175.4 100.76 174.772 101.388C174.144 102.016 173.275 102.406 172.314 102.406H171.309L169.705 100.116H172.29C172.614 100.116 172.909 99.9847 173.123 99.7713C173.336 99.5579 173.467 99.2625 173.467 98.9383C173.467 98.2859 172.938 97.7607 172.29 97.7607H170.891L169.335 95.549L169.27 95.4587H172.306C174.235 95.4546 175.79 97.0098 175.79 98.9301Z" fill="white"/>
<path d="M171.153 98.9178H170.743L168.318 95.4546L168.732 95.4587L171.153 98.9178Z" fill="white"/>
<path d="M169.29 98.9178H168.876L166.455 95.4546L166.869 95.4587L169.29 98.9178Z" fill="white"/>
<path d="M170.221 98.9178H169.811L167.386 95.4546L167.8 95.4587L170.221 98.9178Z" fill="white"/>
<path d="M195.245 239.974H192.907V244H191.588V234.047H194.882C196.004 234.047 196.865 234.302 197.466 234.812C198.073 235.323 198.376 236.066 198.376 237.041C198.376 237.661 198.207 238.201 197.87 238.661C197.537 239.121 197.072 239.465 196.475 239.693L198.813 243.918V244H197.405L195.245 239.974ZM192.907 238.9H194.923C195.575 238.9 196.092 238.732 196.475 238.395C196.863 238.057 197.056 237.606 197.056 237.041C197.056 236.426 196.872 235.954 196.503 235.626C196.138 235.298 195.609 235.132 194.917 235.127H192.907V238.9ZM208.27 242.694C207.933 243.177 207.461 243.54 206.855 243.781C206.253 244.018 205.551 244.137 204.749 244.137C203.938 244.137 203.218 243.948 202.589 243.569C201.96 243.187 201.473 242.644 201.126 241.942C200.785 241.241 200.609 240.427 200.6 239.502V238.634C200.6 237.134 200.949 235.972 201.646 235.147C202.348 234.323 203.332 233.91 204.599 233.91C205.638 233.91 206.474 234.177 207.108 234.71C207.741 235.239 208.129 235.991 208.27 236.966H206.957C206.711 235.649 205.927 234.99 204.606 234.99C203.726 234.99 203.059 235.3 202.603 235.92C202.152 236.535 201.924 237.428 201.919 238.6V239.413C201.919 240.53 202.175 241.418 202.685 242.079C203.195 242.735 203.886 243.063 204.756 243.063C205.248 243.063 205.679 243.009 206.048 242.899C206.417 242.79 206.723 242.605 206.964 242.346V240.11H204.661V239.044H208.27V242.694ZM212.477 240.104V244H211.164V234.047H214.835C215.924 234.047 216.777 234.325 217.392 234.881C218.012 235.437 218.321 236.173 218.321 237.089C218.321 238.055 218.018 238.8 217.412 239.324C216.811 239.844 215.947 240.104 214.821 240.104H212.477ZM212.477 239.03H214.835C215.537 239.03 216.075 238.866 216.448 238.538C216.822 238.205 217.009 237.727 217.009 237.103C217.009 236.51 216.822 236.036 216.448 235.681C216.075 235.325 215.562 235.141 214.91 235.127H212.477V239.03ZM224.623 239.96C224.623 238.93 224.76 237.941 225.033 236.993C225.311 236.045 225.723 235.184 226.27 234.409C226.817 233.634 227.385 233.088 227.972 232.769L228.232 233.603C227.567 234.113 227.02 234.892 226.592 235.94C226.168 236.989 225.935 238.162 225.894 239.461L225.888 240.042C225.888 241.801 226.209 243.328 226.851 244.622C227.239 245.397 227.699 246.003 228.232 246.44L227.972 247.213C227.366 246.876 226.788 246.311 226.236 245.518C225.161 243.968 224.623 242.116 224.623 239.96ZM235.98 239.399H231.667V242.927H236.677V244H230.354V234.047H236.609V235.127H231.667V238.326H235.98V239.399ZM242.662 239.974H240.324V244H239.004V234.047H242.299C243.42 234.047 244.282 234.302 244.883 234.812C245.489 235.323 245.792 236.066 245.792 237.041C245.792 237.661 245.624 238.201 245.287 238.661C244.954 239.121 244.489 239.465 243.892 239.693L246.23 243.918V244H244.822L242.662 239.974ZM240.324 238.9H242.34C242.992 238.9 243.509 238.732 243.892 238.395C244.279 238.057 244.473 237.606 244.473 237.041C244.473 236.426 244.288 235.954 243.919 235.626C243.555 235.298 243.026 235.132 242.333 235.127H240.324V238.9ZM255.659 240.842C255.536 241.895 255.147 242.708 254.49 243.282C253.839 243.852 252.971 244.137 251.886 244.137C250.71 244.137 249.767 243.715 249.056 242.872C248.349 242.029 247.996 240.901 247.996 239.488V238.531C247.996 237.606 248.16 236.793 248.488 236.091C248.821 235.389 249.291 234.851 249.897 234.478C250.503 234.099 251.205 233.91 252.002 233.91C253.059 233.91 253.907 234.206 254.545 234.799C255.183 235.387 255.555 236.202 255.659 237.246H254.34C254.226 236.453 253.978 235.879 253.595 235.523C253.217 235.168 252.686 234.99 252.002 234.99C251.164 234.99 250.505 235.3 250.027 235.92C249.553 236.54 249.316 237.422 249.316 238.565V239.529C249.316 240.609 249.541 241.468 249.992 242.106C250.444 242.744 251.075 243.063 251.886 243.063C252.615 243.063 253.173 242.899 253.561 242.571C253.953 242.239 254.212 241.662 254.34 240.842H255.659ZM260.591 240.288H257.255V239.256H260.591V240.288ZM268.92 244H262.398V243.091L265.844 239.263C266.354 238.684 266.705 238.215 266.896 237.854C267.092 237.49 267.19 237.114 267.19 236.727C267.19 236.207 267.033 235.781 266.719 235.448C266.404 235.116 265.985 234.949 265.461 234.949C264.832 234.949 264.342 235.129 263.991 235.489C263.645 235.845 263.471 236.341 263.471 236.979H262.207C262.207 236.063 262.501 235.323 263.089 234.758C263.681 234.193 264.472 233.91 265.461 233.91C266.386 233.91 267.117 234.154 267.655 234.642C268.193 235.125 268.462 235.77 268.462 236.576C268.462 237.556 267.837 238.723 266.589 240.076L263.923 242.968H268.92V244ZM277.201 239.755C277.201 241.236 276.948 242.337 276.442 243.057C275.936 243.777 275.145 244.137 274.07 244.137C273.008 244.137 272.222 243.786 271.712 243.084C271.201 242.378 270.937 241.325 270.919 239.926V238.237C270.919 236.774 271.171 235.688 271.677 234.977C272.183 234.266 272.976 233.91 274.056 233.91C275.127 233.91 275.916 234.254 276.421 234.942C276.927 235.626 277.187 236.683 277.201 238.114V239.755ZM275.936 238.025C275.936 236.954 275.786 236.175 275.485 235.688C275.184 235.195 274.708 234.949 274.056 234.949C273.409 234.949 272.937 235.193 272.641 235.681C272.345 236.168 272.192 236.918 272.183 237.93V239.953C272.183 241.029 272.338 241.824 272.648 242.339C272.963 242.849 273.436 243.104 274.07 243.104C274.694 243.104 275.157 242.863 275.458 242.38C275.763 241.897 275.922 241.136 275.936 240.097V238.025ZM282.57 240.028C282.57 241.045 282.435 242.02 282.166 242.954C281.902 243.884 281.494 244.743 280.943 245.531C280.396 246.32 279.822 246.88 279.22 247.213L278.954 246.44C279.655 245.903 280.218 245.069 280.642 243.938C281.07 242.804 281.289 241.546 281.298 240.165V239.946C281.298 238.989 281.198 238.101 280.997 237.28C280.797 236.455 280.517 235.717 280.157 235.065C279.801 234.414 279.4 233.906 278.954 233.541L279.22 232.769C279.822 233.101 280.394 233.657 280.936 234.437C281.483 235.216 281.891 236.075 282.16 237.014C282.433 237.952 282.57 238.957 282.57 240.028Z" fill="#120136"/>
<path d="M303.462 236.292L299.582 240.173L295.702 236.292C295.312 235.903 294.682 235.903 294.292 236.292C293.903 236.682 293.903 237.312 294.292 237.702L298.883 242.293C299.273 242.683 299.903 242.683 300.293 242.293L304.882 237.702C305.272 237.312 305.272 236.682 304.882 236.292C304.492 235.912 303.852 235.903 303.462 236.292V236.292Z" fill="#120136"/>
<circle cx="171" cy="239" r="10" fill="#40BAD5"/>
<path d="M175.79 243.753H172.876L170.94 240.872L173.783 240.93L175.79 243.753Z" fill="white"/>
<path d="M175.79 237.93C175.79 238.89 175.4 239.76 174.772 240.388C174.144 241.016 173.275 241.406 172.314 241.406H171.309L169.705 239.116H172.29C172.614 239.116 172.909 238.985 173.123 238.771C173.336 238.558 173.467 238.262 173.467 237.938C173.467 237.286 172.938 236.761 172.29 236.761H170.891L169.335 234.549L169.27 234.459H172.306C174.235 234.455 175.79 236.01 175.79 237.93Z" fill="white"/>
<path d="M171.153 237.918H170.743L168.318 234.455L168.732 234.459L171.153 237.918Z" fill="white"/>
<path d="M169.29 237.918H168.876L166.455 234.455L166.869 234.459L169.29 237.918Z" fill="white"/>
<path d="M170.221 237.918H169.811L167.386 234.455L167.8 234.459L170.221 237.918Z" fill="white"/>
<defs>
<filter id="filter0_d" x="0" y="0" width="380" height="427" filterUnits="userSpaceOnUse" color-interpolation-filters="sRGB">
<feFlood flood-opacity="0" result="BackgroundImageFix"/>
<feColorMatrix in="SourceAlpha" type="matrix" values="0 0 0 0 0 0 0 0 0 0 0 0 0 0 0 0 0 0 127 0"/>
<feOffset dx="5" dy="20"/>
<feGaussianBlur stdDeviation="15"/>
<feColorMatrix type="matrix" values="0 0 0 0 0.25098 0 0 0 0 0.729412 0 0 0 0 0.835294 0 0 0 0.15 0"/>
<feBlend mode="normal" in2="BackgroundImageFix" result="effect1_dropShadow"/>
<feBlend mode="normal" in="SourceGraphic" in2="effect1_dropShadow" result="shape"/>
</filter>
</defs>
</svg>
