<svg width="20" height="18" viewBox="0 0 20 18" fill="none" xmlns="http://www.w3.org/2000/svg">
<path fill-rule="evenodd" clip-rule="evenodd" d="M9.93324 0C4.92308 0 0.860352 4.13124 0.860352 9.22778C0.860352 13.3049 3.46001 16.7639 7.06494 17.9841C7.51838 18.0696 7.68485 17.784 7.68485 17.5402C7.68485 17.3202 7.67643 16.5933 7.67253 15.8222C5.14844 16.3804 4.61583 14.7334 4.61583 14.7334C4.20311 13.6668 3.60845 13.3832 3.60845 13.3832C2.78527 12.8104 3.6705 12.8222 3.6705 12.8222C4.58157 12.8871 5.0613 13.7731 5.0613 13.7731C5.87051 15.1839 7.18379 14.776 7.70152 14.5402C7.78296 13.944 8.01809 13.5366 8.27756 13.3063C6.26234 13.073 4.14392 12.2817 4.14392 8.74582C4.14392 7.73833 4.49834 6.91514 5.07873 6.26891C4.98453 6.03633 4.67397 5.09792 5.16662 3.82684C5.16662 3.82684 5.9285 3.57883 7.66231 4.77274C8.38603 4.56828 9.16219 4.46574 9.93324 4.46223C10.7043 4.46574 11.481 4.56828 12.2061 4.77274C13.9378 3.57883 14.6986 3.82684 14.6986 3.82684C15.1925 5.09792 14.8818 6.03633 14.7876 6.26891C15.3693 6.91514 15.7214 7.73833 15.7214 8.74582C15.7214 12.2901 13.5989 13.0705 11.5785 13.299C11.904 13.5853 12.1939 14.1469 12.1939 15.0078C12.1939 16.2424 12.1834 17.2361 12.1834 17.5402C12.1834 17.7858 12.3467 18.0735 12.8066 17.9829C16.4096 16.7613 19.006 13.3035 19.006 9.22778C19.006 4.13124 14.9438 0 9.93324 0Z" fill="white"/>
<path fill-rule="evenodd" clip-rule="evenodd" d="M4.29671 13.2491C4.27673 13.2951 4.20582 13.3087 4.14121 13.2773C4.0754 13.2472 4.03845 13.1847 4.05978 13.1387C4.07931 13.0914 4.15038 13.0785 4.21603 13.1098C4.28199 13.14 4.31955 13.2032 4.29671 13.2491Z" fill="white"/>
<path fill-rule="evenodd" clip-rule="evenodd" d="M4.66421 13.666C4.62094 13.7068 4.53635 13.6879 4.47896 13.6234C4.41961 13.559 4.40849 13.473 4.45237 13.4316C4.49699 13.3908 4.57902 13.4099 4.63852 13.4742C4.69786 13.5393 4.70943 13.6248 4.66421 13.666Z" fill="white"/>
<path fill-rule="evenodd" clip-rule="evenodd" d="M5.02194 14.1975C4.96635 14.2368 4.87545 14.1999 4.81926 14.1179C4.76367 14.0358 4.76367 13.9374 4.82046 13.898C4.8768 13.8586 4.96635 13.894 5.02329 13.9755C5.07873 14.0587 5.07873 14.1573 5.02194 14.1975Z" fill="white"/>
<path fill-rule="evenodd" clip-rule="evenodd" d="M5.51203 14.7109C5.4623 14.7667 5.35638 14.7517 5.27885 14.6756C5.19952 14.6012 5.17744 14.4956 5.22732 14.4398C5.27765 14.3839 5.38417 14.3997 5.4623 14.4751C5.54103 14.5494 5.56507 14.6558 5.51203 14.7109Z" fill="white"/>
<path fill-rule="evenodd" clip-rule="evenodd" d="M6.18812 15.0091C6.16619 15.0813 6.06417 15.1142 5.96141 15.0835C5.85879 15.0519 5.79163 14.9672 5.81237 14.8942C5.8337 14.8214 5.93617 14.7872 6.03968 14.82C6.14215 14.8515 6.20946 14.9356 6.18812 15.0091Z" fill="white"/>
<path fill-rule="evenodd" clip-rule="evenodd" d="M6.93063 15.0644C6.93318 15.1405 6.84604 15.2036 6.73816 15.2048C6.62969 15.2074 6.54195 15.1458 6.54075 15.071C6.54075 14.9941 6.62593 14.9316 6.73441 14.9298C6.84228 14.9276 6.93063 14.9887 6.93063 15.0644Z" fill="white"/>
<path fill-rule="evenodd" clip-rule="evenodd" d="M7.62159 14.9447C7.63452 15.019 7.55954 15.0953 7.45242 15.1154C7.3471 15.1351 7.24959 15.0893 7.23622 15.0156C7.22315 14.9395 7.29947 14.8633 7.40464 14.8436C7.51192 14.8246 7.60792 14.8692 7.62159 14.9447Z" fill="white"/>
</svg>
