<svg width="21" height="20" viewBox="0 0 21 20" fill="none" xmlns="http://www.w3.org/2000/svg">
<path d="M10.8504 0C5.33035 0 0.860352 4.48 0.860352 10C0.860352 15.52 5.33035 20 10.8504 20C16.3804 20 20.8604 15.52 20.8604 10C20.8604 4.48 16.3804 0 10.8504 0ZM17.7804 6H14.8304C14.5104 4.75 14.0504 3.55 13.4504 2.44C15.2904 3.07 16.8204 4.35 17.7804 6ZM10.8604 2.04C11.6904 3.24 12.3404 4.57 12.7704 6H8.95035C9.38035 4.57 10.0304 3.24 10.8604 2.04ZM3.12035 12C2.96035 11.36 2.86035 10.69 2.86035 10C2.86035 9.31 2.96035 8.64 3.12035 8H6.50035C6.42035 8.66 6.36035 9.32 6.36035 10C6.36035 10.68 6.42035 11.34 6.50035 12H3.12035ZM3.94035 14H6.89035C7.21035 15.25 7.67035 16.45 8.27035 17.56C6.43035 16.93 4.90035 15.66 3.94035 14ZM6.89035 6H3.94035C4.90035 4.34 6.43035 3.07 8.27035 2.44C7.67035 3.55 7.21035 4.75 6.89035 6ZM10.8604 17.96C10.0304 16.76 9.38035 15.43 8.95035 14H12.7704C12.3404 15.43 11.6904 16.76 10.8604 17.96ZM13.2004 12H8.52035C8.43035 11.34 8.36035 10.68 8.36035 10C8.36035 9.32 8.43035 8.65 8.52035 8H13.2004C13.2904 8.65 13.3604 9.32 13.3604 10C13.3604 10.68 13.2904 11.34 13.2004 12ZM13.4504 17.56C14.0504 16.45 14.5104 15.25 14.8304 14H17.7804C16.8204 15.65 15.2904 16.93 13.4504 17.56ZM15.2204 12C15.3004 11.34 15.3604 10.68 15.3604 10C15.3604 9.32 15.3004 8.66 15.2204 8H18.6004C18.7604 8.64 18.8604 9.31 18.8604 10C18.8604 10.69 18.7604 11.36 18.6004 12H15.2204Z" fill="white"/>
</svg>
