<svg width="19" height="18" viewBox="0 0 19 18" fill="none" xmlns="http://www.w3.org/2000/svg">
<path fill-rule="evenodd" clip-rule="evenodd" d="M0.860352 9C0.860352 4.02944 4.88979 0 9.86035 0C14.8309 0 18.8604 4.02944 18.8604 9C18.8604 13.9706 14.8309 18 9.86035 18C4.88979 18 0.860352 13.9706 0.860352 9ZM7.2205 7.45422H5.18091V13.5824H7.2205V7.45422ZM7.35496 5.55851C7.34172 4.95765 6.91205 4.5 6.21431 4.5C5.51658 4.5 5.06042 4.95765 5.06042 5.55851C5.06042 6.14693 5.5031 6.61776 6.18784 6.61776H6.20087C6.91205 6.61776 7.35496 6.14693 7.35496 5.55851ZM14.5762 10.0687C14.5762 8.18636 13.57 7.3103 12.2278 7.3103C11.1449 7.3103 10.6601 7.9051 10.3894 8.32237V7.45437H8.34955C8.37643 8.0294 8.34955 13.5825 8.34955 13.5825H10.3894V10.16C10.3894 9.9769 10.4026 9.7942 10.4566 9.66307C10.604 9.29717 10.9396 8.91835 11.5031 8.91835C12.2414 8.91835 12.5366 9.48028 12.5366 10.3038V13.5823H14.5761L14.5762 10.0687Z" fill="white"/>
</svg>
