<svg width="19" height="18" viewBox="0 0 19 18" fill="none" xmlns="http://www.w3.org/2000/svg">
<path fill-rule="evenodd" clip-rule="evenodd" d="M18.8604 9C18.8604 13.9706 14.8309 18 9.86035 18C4.88979 18 0.860352 13.9706 0.860352 9C0.860352 4.02944 4.88979 0 9.86035 0C14.8309 0 18.8604 4.02944 18.8604 9ZM5.13206 5.71274C5.24206 5.81421 5.29823 5.96322 5.28332 6.11398V11.5421C5.31596 11.7379 5.25565 11.9379 5.12086 12.0809L3.86035 13.6457V13.8521H7.43458V13.6457L6.17408 12.0809C6.0383 11.9382 5.97425 11.7395 6.00041 11.5421V6.84766L9.13766 13.8521H9.50181L12.1965 6.84766V12.4306C12.1965 12.5796 12.1965 12.6082 12.1012 12.7057L11.1321 13.6687V13.875H15.8379V13.6687L14.9024 12.7286C14.8198 12.6642 14.7788 12.5583 14.7959 12.4535V5.54652C14.7788 5.44171 14.8198 5.33581 14.9024 5.27138L15.8604 4.33135V4.125H12.5438L10.1797 10.1607L7.4906 4.125H4.01161V4.33135L5.13206 5.71274Z" fill="white"/>
</svg>
