<svg width="19" height="12" viewBox="0 0 19 12" fill="none" xmlns="http://www.w3.org/2000/svg">
<path d="M1.86035 12H17.8604C18.4104 12 18.8604 11.55 18.8604 11C18.8604 10.45 18.4104 10 17.8604 10H1.86035C1.31035 10 0.860352 10.45 0.860352 11C0.860352 11.55 1.31035 12 1.86035 12ZM1.86035 7H17.8604C18.4104 7 18.8604 6.55 18.8604 6C18.8604 5.45 18.4104 5 17.8604 5H1.86035C1.31035 5 0.860352 5.45 0.860352 6C0.860352 6.55 1.31035 7 1.86035 7ZM0.860352 1C0.860352 1.55 1.31035 2 1.86035 2H17.8604C18.4104 2 18.8604 1.55 18.8604 1C18.8604 0.45 18.4104 0 17.8604 0H1.86035C1.31035 0 0.860352 0.45 0.860352 1Z" fill="#120136"/>
</svg>
