<svg width="1439" height="697" viewBox="0 0 1439 697" fill="none" xmlns="http://www.w3.org/2000/svg">
<rect y="-0.000976562" width="1439" height="697" fill="#120136"/>
<path opacity="0.45" d="M881.2 149.7C882.415 149.7 883.4 148.715 883.4 147.5C883.4 146.285 882.415 145.3 881.2 145.3C879.985 145.3 879 146.285 879 147.5C879 148.715 879.985 149.7 881.2 149.7Z" fill="white"/>
<path opacity="0.45" d="M907.9 114C907.9 116 906.3 117.7 904.2 117.7C902.2 117.7 900.5 116.1 900.5 114C900.5 112 902.1 110.3 904.2 110.3C906.3 110.3 907.9 111.9 907.9 114Z" fill="white"/>
<path opacity="0.45" d="M825.2 76C826.415 76 827.4 75.015 827.4 73.8C827.4 72.585 826.415 71.6 825.2 71.6C823.985 71.6 823 72.585 823 73.8C823 75.015 823.985 76 825.2 76Z" fill="white"/>
<path opacity="0.45" d="M894 96.9C894 98.1 893 99.1 891.8 99.1C890.6 99.1 889.6 98.1 889.6 96.9C889.6 95.7 890.6 94.7 891.8 94.7C893.1 94.7 894 95.7 894 96.9Z" fill="white"/>
<path opacity="0.45" d="M1097.9 170.4C1099.11 170.4 1100.1 169.415 1100.1 168.2C1100.1 166.985 1099.11 166 1097.9 166C1096.68 166 1095.7 166.985 1095.7 168.2C1095.7 169.415 1096.68 170.4 1097.9 170.4Z" fill="white"/>
<path opacity="0.45" d="M1059.8 189.5C1059.8 191.5 1058.2 193.2 1056.1 193.2C1054.1 193.2 1052.4 191.6 1052.4 189.5C1052.4 187.5 1054 185.8 1056.1 185.8C1058.1 185.9 1059.8 187.5 1059.8 189.5Z" fill="white"/>
<path opacity="0.45" d="M917.8 235.2C917.8 236.4 916.8 237.4 915.6 237.4C914.4 237.4 913.4 236.4 913.4 235.2C913.4 234 914.4 233 915.6 233C916.8 233 917.8 234 917.8 235.2Z" fill="white"/>
<path opacity="0.45" d="M1038.1 73.8C1038.1 74.5 1037.5 75.1 1036.8 75.1C1036.1 75.1 1035.5 74.5 1035.5 73.8C1035.5 73.1 1036.1 72.5 1036.8 72.5C1037.5 72.5 1038.1 73.1 1038.1 73.8Z" fill="white"/>
<path opacity="0.45" d="M1022.8 61.5999C1024.84 61.5999 1026.5 59.9434 1026.5 57.9C1026.5 55.8565 1024.84 54.2 1022.8 54.2C1020.76 54.2 1019.1 55.8565 1019.1 57.9C1019.1 59.9434 1020.76 61.5999 1022.8 61.5999Z" fill="white"/>
<path opacity="0.45" d="M1099.2 40.3C1099.2 41 1098.6 41.6 1097.9 41.6C1097.2 41.6 1096.6 41 1096.6 40.3C1096.6 39.6 1097.2 39 1097.9 39C1098.6 39 1099.2 39.6 1099.2 40.3Z" fill="white"/>
<path opacity="0.45" d="M1087.3 191.7C1088.52 191.7 1089.5 190.715 1089.5 189.5C1089.5 188.285 1088.52 187.3 1087.3 187.3C1086.09 187.3 1085.1 188.285 1085.1 189.5C1085.1 190.715 1086.09 191.7 1087.3 191.7Z" fill="white"/>
<path opacity="0.45" d="M262.17 124.401C263.186 124.946 264.44 124.584 264.972 123.593C265.504 122.602 265.112 121.357 264.097 120.812C263.081 120.267 261.827 120.628 261.295 121.619C260.763 122.61 261.155 123.856 262.17 124.401Z" fill="white"/>
<path opacity="0.45" d="M300.115 107.259C299.239 108.89 297.157 109.559 295.402 108.617C293.731 107.72 293.011 105.652 293.93 103.939C294.806 102.308 296.887 101.639 298.642 102.581C300.397 103.523 301.034 105.546 300.115 107.259Z" fill="white"/>
<path opacity="0.45" d="M247.639 39.1655C248.655 39.7105 249.909 39.3489 250.441 38.3579C250.973 37.3668 250.581 36.1216 249.566 35.5766C248.55 35.0315 247.296 35.3931 246.764 36.3841C246.232 37.3752 246.624 38.6205 247.639 39.1655Z" fill="white"/>
<path opacity="0.45" d="M295.985 87.0756C295.46 88.0544 294.186 88.4215 293.183 87.8832C292.18 87.3449 291.782 86.0806 292.308 85.1018C292.833 84.123 294.107 83.756 295.11 84.2943C296.196 84.8774 296.51 86.0968 295.985 87.0756Z" fill="white"/>
<path opacity="0.45" d="M434.205 238.494C435.22 239.039 436.475 238.677 437.007 237.686C437.539 236.695 437.147 235.45 436.131 234.905C435.116 234.36 433.861 234.721 433.329 235.712C432.798 236.704 433.189 237.949 434.205 238.494Z" fill="white"/>
<path opacity="0.45" d="M394.002 236.982C393.126 238.613 391.045 239.282 389.29 238.34C387.619 237.443 386.898 235.375 387.818 233.662C388.693 232.031 390.775 231.362 392.53 232.304C394.157 233.283 394.878 235.35 394.002 236.982Z" fill="white"/>
<path opacity="0.45" d="M255.323 210.558C254.797 211.537 253.524 211.904 252.521 211.366C251.518 210.827 251.12 209.563 251.646 208.584C252.171 207.606 253.445 207.239 254.447 207.777C255.45 208.315 255.848 209.579 255.323 210.558Z" fill="white"/>
<path opacity="0.45" d="M426.524 132.875C426.217 133.446 425.453 133.666 424.868 133.352C424.283 133.038 424.044 132.28 424.351 131.709C424.657 131.138 425.421 130.918 426.006 131.232C426.591 131.546 426.83 132.304 426.524 132.875Z" fill="white"/>
<path opacity="0.45" d="M419.079 116.061C420.787 116.977 422.896 116.369 423.791 114.703C424.686 113.036 424.027 110.941 422.319 110.025C420.611 109.108 418.502 109.716 417.607 111.383C416.712 113.05 417.371 115.144 419.079 116.061Z" fill="white"/>
<path opacity="0.45" d="M492.253 132.959C491.946 133.53 491.182 133.75 490.597 133.436C490.012 133.122 489.774 132.364 490.08 131.793C490.386 131.222 491.151 131.002 491.736 131.316C492.321 131.63 492.559 132.388 492.253 132.959Z" fill="white"/>
<path opacity="0.45" d="M416.021 251.112C417.036 251.657 418.29 251.296 418.822 250.305C419.354 249.314 418.962 248.069 417.947 247.523C416.932 246.978 415.677 247.34 415.145 248.331C414.613 249.322 415.005 250.567 416.021 251.112Z" fill="white"/>
<path opacity="0.45" d="M602.066 122.196C602.978 122.685 604.114 122.343 604.603 121.431C605.093 120.519 604.75 119.384 603.839 118.894C602.927 118.405 601.791 118.747 601.302 119.659C600.812 120.571 601.155 121.706 602.066 122.196Z" fill="white"/>
<path opacity="0.45" d="M636.481 106.162C635.676 107.662 633.79 108.294 632.214 107.448C630.714 106.642 630.083 104.757 630.928 103.181C631.734 101.68 633.619 101.049 635.195 101.895C636.771 102.741 637.327 104.586 636.481 106.162Z" fill="white"/>
<path opacity="0.45" d="M589.731 44.3369C590.642 44.8263 591.778 44.4839 592.268 43.5722C592.757 42.6605 592.415 41.5246 591.503 41.0352C590.591 40.5458 589.455 40.8882 588.966 41.8C588.477 42.7117 588.819 43.8475 589.731 44.3369Z" fill="white"/>
<path opacity="0.45" d="M632.939 87.7315C632.455 88.6319 631.302 88.9795 630.402 88.4962C629.501 88.0128 629.153 86.8597 629.637 85.9592C630.12 85.0588 631.273 84.7112 632.174 85.1945C633.149 85.7182 633.422 86.831 632.939 87.7315Z" fill="white"/>
<path opacity="0.45" d="M756.336 225.012C757.248 225.502 758.383 225.159 758.873 224.248C759.362 223.336 759.02 222.2 758.108 221.711C757.196 221.221 756.061 221.564 755.571 222.475C755.082 223.387 755.424 224.523 756.336 225.012Z" fill="white"/>
<path opacity="0.45" d="M720.053 223.998C719.248 225.499 717.362 226.13 715.787 225.284C714.286 224.479 713.655 222.594 714.5 221.018C715.306 219.517 717.191 218.886 718.767 219.732C720.228 220.612 720.859 222.498 720.053 223.998Z" fill="white"/>
<path opacity="0.45" d="M595.092 201.095C594.609 201.996 593.456 202.343 592.555 201.86C591.655 201.376 591.307 200.223 591.79 199.323C592.274 198.422 593.427 198.075 594.327 198.558C595.228 199.041 595.575 200.195 595.092 201.095Z" fill="white"/>
<path opacity="0.45" d="M750.372 128.439C750.09 128.964 749.398 129.173 748.873 128.891C748.348 128.609 748.139 127.917 748.421 127.392C748.703 126.867 749.395 126.658 749.92 126.94C750.446 127.222 750.654 127.914 750.372 128.439Z" fill="white"/>
<path opacity="0.45" d="M743.805 113.122C745.339 113.945 747.249 113.369 748.072 111.836C748.895 110.302 748.319 108.392 746.786 107.569C745.253 106.746 743.342 107.322 742.519 108.855C741.696 110.389 742.272 112.299 743.805 113.122Z" fill="white"/>
<path opacity="0.45" d="M809.714 127.912C809.432 128.437 808.74 128.645 808.215 128.363C807.689 128.082 807.481 127.39 807.763 126.864C808.045 126.339 808.737 126.131 809.262 126.413C809.787 126.694 809.996 127.386 809.714 127.912Z" fill="white"/>
<path opacity="0.45" d="M739.802 236.726C740.714 237.215 741.85 236.873 742.339 235.961C742.829 235.049 742.486 233.913 741.575 233.424C740.663 232.935 739.527 233.277 739.038 234.189C738.548 235.101 738.891 236.236 739.802 236.726Z" fill="white"/>
<path opacity="0.15" fill-rule="evenodd" clip-rule="evenodd" d="M901.548 344.106H974.632L733.798 0H661L901.548 344.106ZM825.684 0L1066.64 344.106H1139.19L898.357 0H825.684ZM990.243 0L1231.2 344.106H1303.75L1062.92 0H990.243Z" fill="url(#paint0_linear)"/>
<defs>
<linearGradient id="paint0_linear" x1="833.5" y1="-142.5" x2="890" y2="304.5" gradientUnits="userSpaceOnUse">
<stop stop-color="white"/>
<stop offset="1" stop-color="white" stop-opacity="0"/>
</linearGradient>
</defs>
</svg>
