<svg width="603" height="347" viewBox="0 0 603 347" fill="none" xmlns="http://www.w3.org/2000/svg">
<g filter="url(#filter0_d)">
<rect x="25" y="10" width="543" height="92" rx="20" fill="white"/>
</g>
<path d="M61 73C69.8366 73 77 65.8366 77 57C77 48.1634 69.8366 41 61 41C52.1634 41 45 48.1634 45 57C45 65.8366 52.1634 73 61 73Z" fill="#F3BA2F"/>
<path d="M57.116 55.404L61 51.52L64.886 55.406L67.146 53.146L61 47L54.856 53.144L57.116 55.404ZM51 57L53.26 54.74L55.52 57L53.26 59.26L51 57ZM57.116 58.596L61 62.48L64.886 58.594L67.146 60.853L61 67L54.856 60.856L54.853 60.853L57.116 58.596ZM66.48 57L68.74 54.74L71 57L68.74 59.26L66.48 57ZM63.292 56.998H63.294V57L61 59.294L58.709 57.004L58.705 57L58.709 56.997L59.11 56.595L59.305 56.4L61 54.706L63.293 56.999L63.292 56.998Z" fill="white"/>
<path d="M94.3105 67V47.0938H100.818C102.979 47.0938 104.601 47.5404 105.686 48.4336C106.779 49.3268 107.326 50.6484 107.326 52.3984C107.326 53.3281 107.062 54.153 106.533 54.873C106.005 55.584 105.285 56.1354 104.373 56.5273C105.449 56.8281 106.296 57.4023 106.916 58.25C107.545 59.0885 107.859 60.0911 107.859 61.2578C107.859 63.0443 107.281 64.4479 106.123 65.4688C104.965 66.4896 103.329 67 101.215 67H94.3105ZM96.9355 57.6895V64.8535H101.27C102.491 64.8535 103.452 64.5391 104.154 63.9102C104.865 63.2721 105.221 62.3971 105.221 61.2852C105.221 58.888 103.917 57.6895 101.311 57.6895H96.9355ZM96.9355 55.584H100.9C102.049 55.584 102.965 55.2969 103.648 54.7227C104.341 54.1484 104.688 53.3691 104.688 52.3848C104.688 51.291 104.368 50.498 103.73 50.0059C103.092 49.5046 102.122 49.2539 100.818 49.2539H96.9355V55.584ZM114.947 67H112.418V52.207H114.947V67ZM112.213 48.2832C112.213 47.873 112.336 47.5267 112.582 47.2441C112.837 46.9616 113.211 46.8203 113.703 46.8203C114.195 46.8203 114.569 46.9616 114.824 47.2441C115.08 47.5267 115.207 47.873 115.207 48.2832C115.207 48.6934 115.08 49.0352 114.824 49.3086C114.569 49.582 114.195 49.7188 113.703 49.7188C113.211 49.7188 112.837 49.582 112.582 49.3086C112.336 49.0352 112.213 48.6934 112.213 48.2832ZM122.241 52.207L122.323 54.0664C123.453 52.6445 124.929 51.9336 126.752 51.9336C129.879 51.9336 131.455 53.6973 131.483 57.2246V67H128.953V57.2109C128.944 56.1445 128.698 55.3561 128.215 54.8457C127.741 54.3353 126.998 54.0801 125.987 54.0801C125.166 54.0801 124.446 54.2988 123.826 54.7363C123.207 55.1738 122.724 55.748 122.377 56.459V67H119.848V52.207H122.241ZM145.27 67C145.124 66.7083 145.006 66.1888 144.915 65.4414C143.739 66.6628 142.335 67.2734 140.704 67.2734C139.245 67.2734 138.047 66.8633 137.108 66.043C136.178 65.2135 135.713 64.1654 135.713 62.8984C135.713 61.3581 136.297 60.1641 137.463 59.3164C138.639 58.4596 140.289 58.0312 142.413 58.0312H144.874V56.8691C144.874 55.985 144.609 55.2832 144.081 54.7637C143.552 54.235 142.773 53.9707 141.743 53.9707C140.84 53.9707 140.084 54.1986 139.473 54.6543C138.862 55.11 138.557 55.6615 138.557 56.3086H136.014C136.014 55.5703 136.274 54.8594 136.793 54.1758C137.322 53.4831 138.033 52.9362 138.926 52.5352C139.829 52.1341 140.818 51.9336 141.893 51.9336C143.597 51.9336 144.933 52.362 145.899 53.2188C146.865 54.0664 147.366 55.2376 147.403 56.7324V63.541C147.403 64.8991 147.576 65.9792 147.922 66.7812V67H145.27ZM141.073 65.0723C141.866 65.0723 142.618 64.8672 143.329 64.457C144.04 64.0469 144.555 63.5137 144.874 62.8574V59.8223H142.891C139.792 59.8223 138.243 60.7292 138.243 62.543C138.243 63.3359 138.507 63.9557 139.036 64.4023C139.564 64.849 140.243 65.0723 141.073 65.0723ZM154.6 52.207L154.682 54.0664C155.812 52.6445 157.289 51.9336 159.112 51.9336C162.238 51.9336 163.815 53.6973 163.842 57.2246V67H161.313V57.2109C161.304 56.1445 161.058 55.3561 160.575 54.8457C160.101 54.3353 159.358 54.0801 158.346 54.0801C157.526 54.0801 156.806 54.2988 156.186 54.7363C155.566 55.1738 155.083 55.748 154.737 56.459V67H152.208V52.207H154.6ZM174.43 65.209C175.333 65.209 176.121 64.9355 176.796 64.3887C177.47 63.8418 177.844 63.1582 177.917 62.3379H180.309C180.264 63.1855 179.972 63.9922 179.434 64.7578C178.897 65.5234 178.177 66.1341 177.274 66.5898C176.381 67.0456 175.433 67.2734 174.43 67.2734C172.416 67.2734 170.812 66.6035 169.618 65.2637C168.433 63.9147 167.841 62.0736 167.841 59.7402V59.3164C167.841 57.8763 168.105 56.5957 168.634 55.4746C169.162 54.3535 169.919 53.4831 170.903 52.8633C171.897 52.2435 173.068 51.9336 174.417 51.9336C176.076 51.9336 177.452 52.4303 178.546 53.4238C179.649 54.4173 180.236 55.707 180.309 57.293H177.917C177.844 56.3359 177.479 55.5521 176.823 54.9414C176.176 54.3216 175.374 54.0117 174.417 54.0117C173.132 54.0117 172.134 54.4766 171.423 55.4062C170.721 56.3268 170.37 57.6621 170.37 59.4121V59.8906C170.37 61.5951 170.721 62.9076 171.423 63.8281C172.124 64.7487 173.127 65.209 174.43 65.209ZM190.132 67.2734C188.127 67.2734 186.495 66.6172 185.237 65.3047C183.979 63.9831 183.351 62.2194 183.351 60.0137V59.5488C183.351 58.0814 183.629 56.7734 184.185 55.625C184.75 54.4674 185.533 53.5651 186.536 52.918C187.548 52.2617 188.642 51.9336 189.817 51.9336C191.741 51.9336 193.235 52.5671 194.302 53.834C195.368 55.1009 195.901 56.9147 195.901 59.2754V60.3281H185.88C185.916 61.7865 186.34 62.9668 187.151 63.8691C187.972 64.7624 189.011 65.209 190.269 65.209C191.162 65.209 191.918 65.0267 192.538 64.6621C193.158 64.2975 193.7 63.8145 194.165 63.2129L195.71 64.416C194.47 66.321 192.611 67.2734 190.132 67.2734ZM189.817 54.0117C188.797 54.0117 187.94 54.3854 187.247 55.1328C186.554 55.8711 186.126 56.9102 185.962 58.25H193.372V58.0586C193.299 56.7734 192.953 55.7799 192.333 55.0781C191.713 54.3672 190.875 54.0117 189.817 54.0117ZM222.505 60.6836C222.259 62.7891 221.48 64.416 220.167 65.5645C218.864 66.7038 217.128 67.2734 214.958 67.2734C212.607 67.2734 210.72 66.4303 209.298 64.7441C207.885 63.0579 207.179 60.8021 207.179 57.9766V56.0625C207.179 54.2122 207.507 52.5853 208.163 51.1816C208.829 49.778 209.768 48.7025 210.98 47.9551C212.192 47.1986 213.596 46.8203 215.191 46.8203C217.305 46.8203 219.001 47.4128 220.277 48.5977C221.553 49.7734 222.296 51.4049 222.505 53.4922H219.866C219.639 51.9062 219.142 50.7578 218.376 50.0469C217.62 49.3359 216.558 48.9805 215.191 48.9805C213.514 48.9805 212.197 49.6003 211.24 50.8398C210.292 52.0794 209.818 53.8431 209.818 56.1309V58.0586C209.818 60.2188 210.269 61.9368 211.171 63.2129C212.074 64.4889 213.336 65.127 214.958 65.127C216.417 65.127 217.533 64.7988 218.308 64.1426C219.092 63.4772 219.611 62.3242 219.866 60.6836H222.505ZM225.874 59.4668C225.874 58.0176 226.157 56.7142 226.722 55.5566C227.296 54.3991 228.089 53.5059 229.101 52.877C230.122 52.248 231.284 51.9336 232.587 51.9336C234.602 51.9336 236.229 52.6309 237.468 54.0254C238.717 55.4199 239.341 57.2747 239.341 59.5898V59.7676C239.341 61.2077 239.063 62.502 238.507 63.6504C237.96 64.7897 237.172 65.6784 236.142 66.3164C235.121 66.9544 233.945 67.2734 232.615 67.2734C230.609 67.2734 228.983 66.5762 227.734 65.1816C226.494 63.7871 225.874 61.9414 225.874 59.6445V59.4668ZM228.417 59.7676C228.417 61.4082 228.796 62.7253 229.552 63.7188C230.318 64.7122 231.339 65.209 232.615 65.209C233.9 65.209 234.921 64.7077 235.677 63.7051C236.434 62.6934 236.812 61.2806 236.812 59.4668C236.812 57.8444 236.425 56.5319 235.65 55.5293C234.884 54.5176 233.863 54.0117 232.587 54.0117C231.339 54.0117 230.331 54.5085 229.566 55.502C228.8 56.4954 228.417 57.9173 228.417 59.7676ZM246.101 67H243.572V52.207H246.101V67ZM243.367 48.2832C243.367 47.873 243.49 47.5267 243.736 47.2441C243.991 46.9616 244.365 46.8203 244.857 46.8203C245.349 46.8203 245.723 46.9616 245.978 47.2441C246.233 47.5267 246.361 47.873 246.361 48.2832C246.361 48.6934 246.233 49.0352 245.978 49.3086C245.723 49.582 245.349 49.7188 244.857 49.7188C244.365 49.7188 243.991 49.582 243.736 49.3086C243.49 49.0352 243.367 48.6934 243.367 48.2832ZM253.394 52.207L253.476 54.0664C254.607 52.6445 256.083 51.9336 257.906 51.9336C261.032 51.9336 262.609 53.6973 262.636 57.2246V67H260.107V57.2109C260.098 56.1445 259.852 55.3561 259.369 54.8457C258.895 54.3353 258.152 54.0801 257.14 54.0801C256.32 54.0801 255.6 54.2988 254.98 54.7363C254.36 55.1738 253.877 55.748 253.531 56.459V67H251.002V52.207H253.394Z" fill="#120136"/>
<path d="M275.473 67V47.0938H281.981C284.141 47.0938 285.763 47.5404 286.848 48.4336C287.941 49.3268 288.488 50.6484 288.488 52.3984C288.488 53.3281 288.224 54.153 287.695 54.873C287.167 55.584 286.447 56.1354 285.535 56.5273C286.611 56.8281 287.458 57.4023 288.078 58.25C288.707 59.0885 289.022 60.0911 289.022 61.2578C289.022 63.0443 288.443 64.4479 287.285 65.4688C286.128 66.4896 284.492 67 282.377 67H275.473ZM278.098 57.6895V64.8535H282.432C283.653 64.8535 284.615 64.5391 285.316 63.9102C286.027 63.2721 286.383 62.3971 286.383 61.2852C286.383 58.888 285.08 57.6895 282.473 57.6895H278.098ZM278.098 55.584H282.063C283.211 55.584 284.127 55.2969 284.811 54.7227C285.503 54.1484 285.85 53.3691 285.85 52.3848C285.85 51.291 285.531 50.498 284.893 50.0059C284.255 49.5046 283.284 49.2539 281.981 49.2539H278.098V55.584ZM309.057 67H306.418L296.397 51.6602V67H293.758V47.0938H296.397L306.446 62.502V47.0938H309.057V67ZM314.559 67V47.0938H321.067C323.227 47.0938 324.849 47.5404 325.934 48.4336C327.028 49.3268 327.575 50.6484 327.575 52.3984C327.575 53.3281 327.31 54.153 326.782 54.873C326.253 55.584 325.533 56.1354 324.621 56.5273C325.697 56.8281 326.545 57.4023 327.164 58.25C327.793 59.0885 328.108 60.0911 328.108 61.2578C328.108 63.0443 327.529 64.4479 326.371 65.4688C325.214 66.4896 323.578 67 321.463 67H314.559ZM317.184 57.6895V64.8535H321.518C322.739 64.8535 323.701 64.5391 324.403 63.9102C325.114 63.2721 325.469 62.3971 325.469 61.2852C325.469 58.888 324.166 57.6895 321.559 57.6895H317.184ZM317.184 55.584H321.149C322.297 55.584 323.213 55.2969 323.897 54.7227C324.59 54.1484 324.936 53.3691 324.936 52.3848C324.936 51.291 324.617 50.498 323.979 50.0059C323.341 49.5046 322.37 49.2539 321.067 49.2539H317.184V55.584Z" fill="#120136" fill-opacity="0.5"/>
<path d="M507.15 56.623L509.639 52.207H513.863L509.652 59.4531L514.041 67H509.803L507.164 62.3516L504.539 67H500.287L504.676 59.4531L500.479 52.207H504.717L507.15 56.623ZM517.028 57.2109L518.176 47.0938H529.332V50.3887H521.416L520.924 54.668C521.863 54.1667 522.861 53.916 523.918 53.916C525.814 53.916 527.3 54.5039 528.375 55.6797C529.451 56.8555 529.988 58.5007 529.988 60.6152C529.988 61.9004 529.715 63.0534 529.168 64.0742C528.63 65.0859 527.856 65.8743 526.844 66.4395C525.832 66.9954 524.638 67.2734 523.262 67.2734C522.059 67.2734 520.942 67.0319 519.912 66.5488C518.882 66.0566 518.067 65.3685 517.465 64.4844C516.873 63.6003 516.558 62.5931 516.522 61.4629H520.432C520.514 62.2923 520.801 62.9395 521.293 63.4043C521.794 63.86 522.446 64.0879 523.248 64.0879C524.141 64.0879 524.83 63.7689 525.313 63.1309C525.796 62.4837 526.037 61.5723 526.037 60.3965C526.037 59.2663 525.759 58.4004 525.203 57.7988C524.647 57.1973 523.859 56.8965 522.838 56.8965C521.899 56.8965 521.138 57.1426 520.555 57.6348L520.172 57.9902L517.028 57.2109ZM546.756 58.7695C546.756 61.5221 546.187 63.6276 545.047 65.0859C543.908 66.5443 542.24 67.2734 540.043 67.2734C537.874 67.2734 536.215 66.5579 535.067 65.127C533.918 63.696 533.33 61.6452 533.303 58.9746V55.3105C533.303 52.5306 533.877 50.4206 535.026 48.9805C536.183 47.5404 537.847 46.8203 540.016 46.8203C542.185 46.8203 543.844 47.5358 544.993 48.9668C546.141 50.3887 546.729 52.4349 546.756 55.1055V58.7695ZM542.805 54.75C542.805 53.1003 542.577 51.9017 542.121 51.1543C541.675 50.3978 540.973 50.0195 540.016 50.0195C539.086 50.0195 538.398 50.3796 537.951 51.0996C537.514 51.8105 537.282 52.9271 537.254 54.4492V59.2891C537.254 60.9115 537.473 62.1191 537.91 62.9121C538.357 63.696 539.068 64.0879 540.043 64.0879C541.009 64.0879 541.707 63.7096 542.135 62.9531C542.563 62.1966 542.787 61.0391 542.805 59.4805V54.75Z" fill="#120136"/>
<rect x="25.5" y="133.5" width="542" height="91" rx="19.5" stroke="#120136" stroke-opacity="0.1"/>
<g opacity="0.5">
<path d="M105.562 179.799H96.9355V186.854H106.957V189H94.3105V169.094H106.82V171.254H96.9355V177.652H105.562V179.799ZM114.1 170.625V174.207H116.861V176.162H114.1V185.336C114.1 185.928 114.223 186.375 114.469 186.676C114.715 186.967 115.134 187.113 115.727 187.113C116.018 187.113 116.419 187.059 116.93 186.949V189C116.264 189.182 115.617 189.273 114.988 189.273C113.858 189.273 113.006 188.932 112.432 188.248C111.858 187.564 111.57 186.594 111.57 185.336V176.162H108.877V174.207H111.57V170.625H114.1ZM123.198 175.998C124.319 174.622 125.777 173.934 127.573 173.934C130.699 173.934 132.276 175.697 132.303 179.225V189H129.774V179.211C129.765 178.145 129.519 177.356 129.035 176.846C128.562 176.335 127.819 176.08 126.807 176.08C125.987 176.08 125.267 176.299 124.647 176.736C124.027 177.174 123.544 177.748 123.198 178.459V189H120.668V168H123.198V175.998ZM143.069 189.273C141.064 189.273 139.432 188.617 138.174 187.305C136.916 185.983 136.288 184.219 136.288 182.014V181.549C136.288 180.081 136.566 178.773 137.122 177.625C137.687 176.467 138.471 175.565 139.473 174.918C140.485 174.262 141.579 173.934 142.754 173.934C144.678 173.934 146.172 174.567 147.239 175.834C148.305 177.101 148.838 178.915 148.838 181.275V182.328H138.817C138.853 183.786 139.277 184.967 140.088 185.869C140.909 186.762 141.948 187.209 143.206 187.209C144.099 187.209 144.855 187.027 145.475 186.662C146.095 186.298 146.637 185.814 147.102 185.213L148.647 186.416C147.407 188.321 145.548 189.273 143.069 189.273ZM142.754 176.012C141.734 176.012 140.877 176.385 140.184 177.133C139.491 177.871 139.063 178.91 138.899 180.25H146.309V180.059C146.236 178.773 145.89 177.78 145.27 177.078C144.65 176.367 143.812 176.012 142.754 176.012ZM159.768 176.477C159.385 176.413 158.971 176.381 158.524 176.381C156.865 176.381 155.74 177.087 155.147 178.5V189H152.618V174.207H155.079L155.12 175.916C155.949 174.594 157.125 173.934 158.647 173.934C159.139 173.934 159.513 173.997 159.768 174.125V176.477ZM168.811 189.273C166.806 189.273 165.175 188.617 163.917 187.305C162.659 185.983 162.03 184.219 162.03 182.014V181.549C162.03 180.081 162.308 178.773 162.864 177.625C163.429 176.467 164.213 175.565 165.216 174.918C166.227 174.262 167.321 173.934 168.497 173.934C170.42 173.934 171.915 174.567 172.981 175.834C174.048 177.101 174.581 178.915 174.581 181.275V182.328H164.559C164.596 183.786 165.02 184.967 165.831 185.869C166.651 186.762 167.69 187.209 168.948 187.209C169.841 187.209 170.598 187.027 171.218 186.662C171.837 186.298 172.38 185.814 172.845 185.213L174.389 186.416C173.15 188.321 171.29 189.273 168.811 189.273ZM168.497 176.012C167.476 176.012 166.619 176.385 165.927 177.133C165.234 177.871 164.805 178.91 164.641 180.25H172.052V180.059C171.979 178.773 171.632 177.78 171.012 177.078C170.393 176.367 169.554 176.012 168.497 176.012ZM187.493 187.537C186.509 188.695 185.064 189.273 183.159 189.273C181.582 189.273 180.379 188.818 179.55 187.906C178.729 186.986 178.315 185.628 178.306 183.832V174.207H180.835V183.764C180.835 186.006 181.746 187.127 183.569 187.127C185.502 187.127 186.787 186.407 187.425 184.967V174.207H189.954V189H187.548L187.493 187.537ZM197.028 174.207L197.097 175.848C198.181 174.572 199.644 173.934 201.485 173.934C203.554 173.934 204.963 174.727 205.71 176.312C206.202 175.602 206.84 175.027 207.624 174.59C208.417 174.152 209.351 173.934 210.427 173.934C213.672 173.934 215.321 175.652 215.376 179.088V189H212.847V179.238C212.847 178.181 212.605 177.393 212.122 176.873C211.639 176.344 210.828 176.08 209.689 176.08C208.75 176.08 207.97 176.363 207.351 176.928C206.731 177.484 206.371 178.236 206.271 179.184V189H203.728V179.307C203.728 177.156 202.675 176.08 200.569 176.08C198.911 176.08 197.776 176.786 197.165 178.199V189H194.636V174.207H197.028Z" fill="#120136"/>
<path d="M239.478 179.799H230.851V186.854H240.872V189H228.226V169.094H240.736V171.254H230.851V177.652H239.478V179.799ZM259.007 171.254H252.609V189H249.998V171.254H243.613V169.094H259.007V171.254ZM278.099 189H275.461V179.799H265.426V189H262.801V169.094H265.426V177.652H275.461V169.094H278.099V189Z" fill="#120136" fill-opacity="0.5"/>
<path d="M507.15 178.623L509.639 174.207H513.863L509.652 181.453L514.041 189H509.803L507.164 184.352L504.539 189H500.287L504.676 181.453L500.479 174.207H504.717L507.15 178.623ZM526.037 189H522.086V173.77L517.369 175.232V172.02L525.613 169.066H526.037V189ZM546.756 180.77C546.756 183.522 546.187 185.628 545.047 187.086C543.908 188.544 542.24 189.273 540.043 189.273C537.874 189.273 536.215 188.558 535.067 187.127C533.918 185.696 533.33 183.645 533.303 180.975V177.311C533.303 174.531 533.877 172.421 535.026 170.98C536.183 169.54 537.847 168.82 540.016 168.82C542.185 168.82 543.844 169.536 544.993 170.967C546.141 172.389 546.729 174.435 546.756 177.105V180.77ZM542.805 176.75C542.805 175.1 542.577 173.902 542.121 173.154C541.675 172.398 540.973 172.02 540.016 172.02C539.086 172.02 538.398 172.38 537.951 173.1C537.514 173.811 537.282 174.927 537.254 176.449V181.289C537.254 182.911 537.473 184.119 537.91 184.912C538.357 185.696 539.068 186.088 540.043 186.088C541.009 186.088 541.707 185.71 542.135 184.953C542.563 184.197 542.787 183.039 542.805 181.48V176.75Z" fill="#120136"/>
<path d="M61 195C69.8366 195 77 187.837 77 179C77 170.163 69.8366 163 61 163C52.1634 163 45 170.163 45 179C45 187.837 52.1634 195 61 195Z" fill="#627EEA"/>
<path d="M61.498 167V175.87L68.995 179.22L61.498 167Z" fill="white" fill-opacity="0.602"/>
<path d="M61.498 167L54 179.22L61.498 175.87V167Z" fill="white"/>
<path d="M61.498 184.968V190.995L69 180.616L61.498 184.968Z" fill="white" fill-opacity="0.602"/>
<path d="M61.498 190.995V184.967L54 180.616L61.498 190.995Z" fill="white"/>
<path d="M61.498 183.573L68.995 179.22L61.498 175.872V183.573Z" fill="white" fill-opacity="0.2"/>
<path d="M54 179.22L61.498 183.573V175.872L54 179.22Z" fill="white" fill-opacity="0.602"/>
</g>
<rect x="25.5" y="255.5" width="542" height="91" rx="19.5" stroke="#120136" stroke-opacity="0.1"/>
<g opacity="0.5">
<path d="M105.562 301.799H96.9355V308.854H106.957V311H94.3105V291.094H106.82V293.254H96.9355V299.652H105.562V301.799ZM126.377 301.689C126.377 303.64 126.049 305.344 125.393 306.803C124.736 308.252 123.807 309.359 122.604 310.125C121.401 310.891 119.997 311.273 118.393 311.273C116.825 311.273 115.435 310.891 114.223 310.125C113.011 309.35 112.067 308.252 111.393 306.83C110.727 305.399 110.386 303.745 110.367 301.867V300.432C110.367 298.518 110.7 296.827 111.365 295.359C112.031 293.892 112.97 292.771 114.182 291.996C115.403 291.212 116.798 290.82 118.365 290.82C119.96 290.82 121.364 291.208 122.576 291.982C123.798 292.748 124.736 293.865 125.393 295.332C126.049 296.79 126.377 298.49 126.377 300.432V301.689ZM123.766 300.404C123.766 298.044 123.292 296.234 122.344 294.977C121.396 293.71 120.07 293.076 118.365 293.076C116.707 293.076 115.399 293.71 114.442 294.977C113.494 296.234 113.006 297.984 112.979 300.227V301.689C112.979 303.977 113.457 305.777 114.414 307.09C115.38 308.393 116.707 309.045 118.393 309.045C120.088 309.045 121.401 308.43 122.33 307.199C123.26 305.96 123.738 304.187 123.766 301.881V300.404ZM137.02 302.127C134.769 301.48 133.128 300.687 132.098 299.748C131.077 298.8 130.567 297.633 130.567 296.248C130.567 294.68 131.191 293.386 132.44 292.365C133.698 291.335 135.329 290.82 137.334 290.82C138.701 290.82 139.918 291.085 140.985 291.613C142.06 292.142 142.89 292.871 143.473 293.801C144.065 294.73 144.362 295.747 144.362 296.85H141.723C141.723 295.646 141.34 294.703 140.575 294.02C139.809 293.327 138.729 292.98 137.334 292.98C136.04 292.98 135.028 293.268 134.299 293.842C133.579 294.407 133.219 295.195 133.219 296.207C133.219 297.018 133.561 297.706 134.244 298.271C134.937 298.827 136.108 299.338 137.758 299.803C139.417 300.268 140.711 300.783 141.641 301.348C142.58 301.904 143.272 302.555 143.719 303.303C144.175 304.05 144.403 304.93 144.403 305.941C144.403 307.555 143.774 308.849 142.516 309.824C141.258 310.79 139.576 311.273 137.471 311.273C136.104 311.273 134.828 311.014 133.643 310.494C132.458 309.965 131.542 309.245 130.895 308.334C130.257 307.423 129.938 306.388 129.938 305.23H132.576C132.576 306.434 133.019 307.386 133.903 308.088C134.796 308.781 135.985 309.127 137.471 309.127C138.856 309.127 139.918 308.844 140.657 308.279C141.395 307.714 141.764 306.944 141.764 305.969C141.764 304.993 141.422 304.242 140.739 303.713C140.055 303.175 138.815 302.646 137.02 302.127Z" fill="#120136"/>
<path d="M167.657 301.799H159.03V308.854H169.051V311H156.405V291.094H168.915V293.254H159.03V299.652H167.657V301.799ZM188.471 301.689C188.471 303.64 188.143 305.344 187.487 306.803C186.831 308.252 185.901 309.359 184.698 310.125C183.495 310.891 182.091 311.273 180.487 311.273C178.919 311.273 177.529 310.891 176.317 310.125C175.105 309.35 174.162 308.252 173.487 306.83C172.822 305.399 172.48 303.745 172.462 301.867V300.432C172.462 298.518 172.794 296.827 173.46 295.359C174.125 293.892 175.064 292.771 176.276 291.996C177.498 291.212 178.892 290.82 180.46 290.82C182.055 290.82 183.458 291.208 184.671 291.982C185.892 292.748 186.831 293.865 187.487 295.332C188.143 296.79 188.471 298.49 188.471 300.432V301.689ZM185.86 300.404C185.86 298.044 185.386 296.234 184.438 294.977C183.49 293.71 182.164 293.076 180.46 293.076C178.801 293.076 177.493 293.71 176.536 294.977C175.588 296.234 175.1 297.984 175.073 300.227V301.689C175.073 303.977 175.552 305.777 176.509 307.09C177.475 308.393 178.801 309.045 180.487 309.045C182.182 309.045 183.495 308.43 184.425 307.199C185.354 305.96 185.833 304.187 185.86 301.881V300.404ZM199.114 302.127C196.863 301.48 195.222 300.687 194.192 299.748C193.172 298.8 192.661 297.633 192.661 296.248C192.661 294.68 193.285 293.386 194.534 292.365C195.792 291.335 197.423 290.82 199.429 290.82C200.796 290.82 202.013 291.085 203.079 291.613C204.155 292.142 204.984 292.871 205.567 293.801C206.16 294.73 206.456 295.747 206.456 296.85H203.817C203.817 295.646 203.435 294.703 202.669 294.02C201.903 293.327 200.823 292.98 199.429 292.98C198.134 292.98 197.123 293.268 196.394 293.842C195.673 294.407 195.313 295.195 195.313 296.207C195.313 297.018 195.655 297.706 196.339 298.271C197.032 298.827 198.203 299.338 199.853 299.803C201.511 300.268 202.806 300.783 203.735 301.348C204.674 301.904 205.367 302.555 205.813 303.303C206.269 304.05 206.497 304.93 206.497 305.941C206.497 307.555 205.868 308.849 204.61 309.824C203.353 310.79 201.671 311.273 199.565 311.273C198.198 311.273 196.922 311.014 195.737 310.494C194.552 309.965 193.636 309.245 192.989 308.334C192.351 307.423 192.032 306.388 192.032 305.23H194.671C194.671 306.434 195.113 307.386 195.997 308.088C196.89 308.781 198.08 309.127 199.565 309.127C200.951 309.127 202.013 308.844 202.751 308.279C203.489 307.714 203.858 306.944 203.858 305.969C203.858 304.993 203.517 304.242 202.833 303.713C202.149 303.175 200.91 302.646 199.114 302.127Z" fill="#120136" fill-opacity="0.5"/>
<path d="M507.15 300.623L509.639 296.207H513.863L509.652 303.453L514.041 311H509.803L507.164 306.352L504.539 311H500.287L504.676 303.453L500.479 296.207H504.717L507.15 300.623ZM526.037 311H522.086V295.77L517.369 297.232V294.02L525.613 291.066H526.037V311ZM546.756 302.77C546.756 305.522 546.187 307.628 545.047 309.086C543.908 310.544 542.24 311.273 540.043 311.273C537.874 311.273 536.215 310.558 535.067 309.127C533.918 307.696 533.33 305.645 533.303 302.975V299.311C533.303 296.531 533.877 294.421 535.026 292.98C536.183 291.54 537.847 290.82 540.016 290.82C542.185 290.82 543.844 291.536 544.993 292.967C546.141 294.389 546.729 296.435 546.756 299.105V302.77ZM542.805 298.75C542.805 297.1 542.577 295.902 542.121 295.154C541.675 294.398 540.973 294.02 540.016 294.02C539.086 294.02 538.398 294.38 537.951 295.1C537.514 295.811 537.282 296.927 537.254 298.449V303.289C537.254 304.911 537.473 306.119 537.91 306.912C538.357 307.696 539.068 308.088 540.043 308.088C541.009 308.088 541.707 307.71 542.135 306.953C542.563 306.197 542.787 305.039 542.805 303.48V298.75Z" fill="#120136"/>
<path d="M61 317C69.8366 317 77 309.837 77 301C77 292.163 69.8366 285 61 285C52.1634 285 45 292.163 45 301C45 309.837 52.1634 317 61 317Z" fill="black"/>
<path d="M55.8861 296.61L61.0001 312.667L53.4121 307.913L55.8861 296.61L61.0001 289.624V294.524L53.4121 307.913H68.5951L61.0071 294.524V289.624L66.1201 296.61L68.5951 307.913L61.0071 312.667L66.1201 296.61" stroke="white" stroke-width="0.64" stroke-linecap="round" stroke-linejoin="round"/>
</g>
<defs>
<filter id="filter0_d" x="0" y="0" width="603" height="152" filterUnits="userSpaceOnUse" color-interpolation-filters="sRGB">
<feFlood flood-opacity="0" result="BackgroundImageFix"/>
<feColorMatrix in="SourceAlpha" type="matrix" values="0 0 0 0 0 0 0 0 0 0 0 0 0 0 0 0 0 0 127 0"/>
<feOffset dx="5" dy="20"/>
<feGaussianBlur stdDeviation="15"/>
<feColorMatrix type="matrix" values="0 0 0 0 0.25098 0 0 0 0 0.729412 0 0 0 0 0.835294 0 0 0 0.15 0"/>
<feBlend mode="normal" in2="BackgroundImageFix" result="effect1_dropShadow"/>
<feBlend mode="normal" in="SourceGraphic" in2="effect1_dropShadow" result="shape"/>
</filter>
</defs>
</svg>
