<svg width="58" height="58" viewBox="0 0 58 58" fill="none" xmlns="http://www.w3.org/2000/svg">
<circle opacity="0.1" cx="29" cy="29" r="29" fill="#40BAD5"/>
<path fill-rule="evenodd" clip-rule="evenodd" d="M28.6161 43.1134C28.7725 43.1951 28.9473 43.2366 29.1221 43.2352C29.2969 43.2338 29.4703 43.1909 29.6281 43.1079L34.6651 40.4152C36.0935 39.6538 37.212 38.8024 38.0847 37.8112C39.9821 35.6516 41.0182 32.8953 40.9997 30.0531L40.94 20.6781C40.9343 19.5983 40.2251 18.6347 39.1762 18.2845L29.8057 15.1406C29.2415 14.9495 28.6232 14.9537 28.0689 15.1503L18.734 18.4063C17.6908 18.7704 16.9943 19.7409 17 20.8221L17.0597 30.1902C17.0782 33.0365 18.1498 35.7803 20.0785 37.9178C20.9597 38.8952 22.0882 39.7341 23.5322 40.4831L28.6161 43.1134ZM27.2827 32.095C27.4931 32.2971 27.7659 32.3968 28.0388 32.394C28.3117 32.3926 28.5832 32.2902 28.7907 32.0853L34.2953 26.6585C34.7089 26.2501 34.7046 25.5939 34.2868 25.191C33.8675 24.7882 33.1924 24.791 32.7788 25.1994L28.0232 29.8869L26.076 28.0152C25.6568 27.6123 24.9831 27.6165 24.5681 28.0249C24.1545 28.4333 24.1587 29.0895 24.578 29.4923L27.2827 32.095Z" fill="#40BAD5"/>
</svg>
