<svg width="19" height="18" viewBox="0 0 19 18" fill="none" xmlns="http://www.w3.org/2000/svg">
<path fill-rule="evenodd" clip-rule="evenodd" d="M18.8604 9C18.8604 13.9705 14.8309 18 9.86035 18C4.8898 18 0.860352 13.9705 0.860352 9C0.860352 4.02945 4.8898 0 9.86035 0C14.8309 0 18.8604 4.02945 18.8604 9ZM6.88716 8.17556C5.98559 8.5692 5.05926 8.97367 4.2122 9.44025C3.76989 9.7641 4.35774 9.99319 4.90926 10.2081C4.99694 10.2422 5.08368 10.276 5.16524 10.3098C5.23311 10.3307 5.30211 10.3526 5.37205 10.3749C5.98544 10.5703 6.66936 10.7882 7.26486 10.4604C8.24309 9.8985 9.16623 9.24885 10.0887 8.59969C10.3909 8.38699 10.693 8.17436 10.997 7.96489C11.0113 7.95578 11.0273 7.94535 11.0449 7.93399C11.3038 7.7661 11.8863 7.38859 11.6708 7.90879C11.1614 8.46589 10.6158 8.95901 10.0672 9.45488C9.69741 9.78904 9.32631 10.1244 8.96406 10.4814C8.64858 10.7378 8.32094 11.2533 8.67423 11.6123C9.48794 12.1819 10.3144 12.7377 11.1403 13.2933C11.4091 13.474 11.6778 13.6548 11.946 13.836C12.4006 14.1989 13.111 13.9053 13.211 13.3382C13.2554 13.0773 13.3 12.8164 13.3447 12.5556C13.5913 11.1138 13.8379 9.67151 14.0559 8.22506C14.0855 7.99815 14.119 7.77127 14.1526 7.54429C14.2341 6.99412 14.3156 6.44329 14.341 5.89016C14.2754 5.33816 13.6061 5.45955 13.2337 5.58367C11.3192 6.31215 9.42389 7.09462 7.53606 7.8909C7.3222 7.98563 7.10541 8.08028 6.88716 8.17556Z" fill="white"/>
</svg>
