<svg width="19" height="18" viewBox="0 0 19 18" fill="none" xmlns="http://www.w3.org/2000/svg">
<path fill-rule="evenodd" clip-rule="evenodd" d="M0.860352 9C0.860352 4.02944 4.88979 0 9.86035 0C14.8309 0 18.8604 4.02944 18.8604 9C18.8604 13.9706 14.8309 18 9.86035 18C4.88979 18 0.860352 13.9706 0.860352 9ZM9.5908 7.31531L9.60969 7.62673L9.29492 7.5886C8.14918 7.44242 7.14822 6.94669 6.29835 6.11412L5.88286 5.70101L5.77584 6.00608C5.54921 6.68612 5.694 7.40429 6.16615 7.88731C6.41796 8.15424 6.36131 8.19237 5.92693 8.03349C5.77584 7.98264 5.64364 7.94451 5.63105 7.96358C5.58698 8.00806 5.73807 8.58642 5.85768 8.81521C6.02136 9.13299 6.35501 9.44441 6.72014 9.62872L7.02861 9.7749L6.66348 9.78125C6.31094 9.78125 6.29835 9.78761 6.33613 9.92107C6.46203 10.3342 6.95936 10.7727 7.51335 10.9634L7.90366 11.0968L7.56371 11.3002C7.06009 11.5926 6.46833 11.7578 5.87657 11.7705C5.59328 11.7769 5.36035 11.8023 5.36035 11.8214C5.36035 11.8849 6.12838 12.2408 6.57535 12.3807C7.91625 12.7938 9.50896 12.6158 10.7051 11.9104C11.5549 11.4083 12.4048 10.4104 12.8014 9.44441C13.0155 8.92961 13.2295 7.989 13.2295 7.53776C13.2295 7.2454 13.2484 7.20727 13.6009 6.85772C13.8087 6.65434 14.0038 6.4319 14.0416 6.36834C14.1045 6.24759 14.0982 6.24759 13.7772 6.35563C13.2421 6.5463 13.1665 6.52087 13.4309 6.23487C13.6261 6.0315 13.859 5.66288 13.859 5.55483C13.859 5.53577 13.7646 5.56755 13.6576 5.62475C13.5443 5.6883 13.2924 5.78363 13.1036 5.84083L12.7636 5.94888L12.4552 5.73914C12.2852 5.62475 12.046 5.49763 11.9201 5.4595C11.599 5.37052 11.108 5.38324 10.8184 5.48492C10.0315 5.77092 9.53414 6.50816 9.5908 7.31531Z" fill="white"/>
</svg>
