<svg width="58" height="58" viewBox="0 0 58 58" fill="none" xmlns="http://www.w3.org/2000/svg">
<circle opacity="0.1" cx="29" cy="29" r="29" fill="#40BAD5"/>
<path fill-rule="evenodd" clip-rule="evenodd" d="M33.5364 24.6177C33.5364 27.1809 31.4929 29.2363 28.9444 29.2363C26.3959 29.2363 24.3525 27.1809 24.3525 24.6177C24.3525 22.0534 26.3959 20 28.9444 20C31.4929 20 33.5364 22.0534 33.5364 24.6177ZM28.9444 37.4546C25.2013 37.4546 22.0052 36.8612 22.0052 34.4875C22.0052 32.1129 25.1808 31.4978 28.9444 31.4978C32.6875 31.4978 35.8836 32.0912 35.8836 34.4659C35.8836 36.8396 32.708 37.4546 28.9444 37.4546ZM35.4986 24.7009C35.4986 26.0076 35.1089 27.2249 34.4251 28.2369C34.3548 28.341 34.4173 28.4815 34.5414 28.5031C34.7123 28.5326 34.8891 28.5493 35.0688 28.5542C36.8613 28.6014 38.4701 27.4411 38.9145 25.6942C39.5729 23.0995 37.6398 20.77 35.1783 20.77C34.9106 20.77 34.6547 20.7985 34.4056 20.8496C34.3714 20.8575 34.3353 20.8732 34.3157 20.9037C34.2923 20.941 34.3099 20.9911 34.3333 21.0235C35.0728 22.0659 35.4986 23.3373 35.4986 24.7009ZM38.4672 30.3774C39.6716 30.6142 40.4637 31.0975 40.7919 31.8C41.0694 32.3767 41.0694 33.0458 40.7919 33.6215C40.2899 34.7111 38.6713 35.0609 38.0422 35.1513C37.9123 35.1709 37.8078 35.0579 37.8215 34.9272C38.1429 31.9081 35.5866 30.4766 34.9253 30.1475C34.8969 30.1327 34.8911 30.1102 34.894 30.0964C34.896 30.0866 34.9077 30.0709 34.9292 30.0679C36.3602 30.0414 37.8987 30.2379 38.4672 30.3774ZM22.9314 28.5542C23.1111 28.5493 23.2869 28.5335 23.4589 28.5031C23.5829 28.4815 23.6454 28.341 23.5751 28.2368C22.8913 27.2249 22.5016 26.0076 22.5016 24.7009C22.5016 23.3372 22.9275 22.0659 23.6669 21.0235C23.6904 20.991 23.707 20.9409 23.6845 20.9036C23.665 20.8741 23.6278 20.8574 23.5946 20.8496C23.3446 20.7985 23.0886 20.77 22.821 20.77C20.3595 20.77 18.4264 23.0994 19.0857 25.6942C19.5302 27.441 21.1389 28.6013 22.9314 28.5542ZM23.1058 30.0958C23.1087 30.1105 23.1028 30.1322 23.0755 30.1479C22.4132 30.477 19.8569 31.9085 20.1783 34.9267C20.1919 35.0583 20.0884 35.1703 19.9585 35.1517C19.3294 35.0613 17.7109 34.7115 17.2088 33.6219C16.9304 33.0452 16.9304 32.3771 17.2088 31.8004C17.537 31.0979 18.3282 30.6146 19.5326 30.3768C20.1021 30.2383 21.6396 30.0418 23.0716 30.0683C23.0931 30.0712 23.1038 30.087 23.1058 30.0958Z" fill="#40BAD5"/>
</svg>
