<svg width="180" height="30" viewBox="0 0 180 30" fill="none" xmlns="http://www.w3.org/2000/svg">
<path d="M24.5531 24.4557H16.8904L11.7964 16.8794L19.2756 17.0305L24.5531 24.4557Z" fill="white"/>
<path d="M24.5531 9.14119C24.5531 11.6666 23.5278 13.9546 21.8765 15.6059C20.2253 17.2571 17.9373 18.2824 15.4118 18.2824H12.7677L8.54781 12.2602H15.3471C16.1997 12.2602 16.9767 11.9149 17.5379 11.3537C18.0992 10.7924 18.4445 10.0154 18.4445 9.16277C18.4445 7.44677 17.0523 6.06534 15.3471 6.06534H11.6668L7.57649 0.248193L7.40381 0.0107635H15.3902C20.4627 -2.8979e-05 24.5531 4.09032 24.5531 9.14119Z" fill="white"/>
<path d="M12.3575 9.10885H11.2783L4.8999 0L5.98994 0.010803L12.3575 9.10885Z" fill="white"/>
<path d="M7.4576 9.10885H6.36756L0 0L1.09004 0.010803L7.4576 9.10885Z" fill="white"/>
<path d="M9.9073 9.10885H8.82806L2.44971 0L3.53974 0.010803L9.9073 9.10885Z" fill="white"/>
<path d="M41.4937 18.5045H38.7735V24.5711H35.3589V7.99905H41.5165C43.4742 7.99905 44.9842 8.43536 46.0465 9.30797C47.1088 10.1806 47.6399 11.4136 47.6399 13.0071C47.6399 14.1377 47.3933 15.0824 46.9001 15.8412C46.4145 16.5924 45.6747 17.1918 44.6806 17.6395L48.2659 24.4117V24.5711H44.601L41.4937 18.5045ZM38.7735 15.7387H41.5279C42.3853 15.7387 43.0492 15.5225 43.5197 15.09C43.9901 14.6499 44.2254 14.0466 44.2254 13.2802C44.2254 12.4987 44.0015 11.8841 43.5538 11.4364C43.1137 10.9887 42.4346 10.7648 41.5165 10.7648H38.7735V15.7387Z" fill="white"/>
<path d="M53.5016 24.5711H50.2009V12.2559H53.5016V24.5711ZM50.0074 9.06895C50.0074 8.57573 50.1705 8.16978 50.4968 7.85109C50.8307 7.53239 51.2821 7.37305 51.8512 7.37305C52.4127 7.37305 52.8604 7.53239 53.1943 7.85109C53.5282 8.16978 53.6951 8.57573 53.6951 9.06895C53.6951 9.56975 53.5244 9.9795 53.1829 10.2982C52.849 10.6169 52.4052 10.7762 51.8512 10.7762C51.2973 10.7762 50.8496 10.6169 50.5082 10.2982C50.1743 9.9795 50.0074 9.56975 50.0074 9.06895Z" fill="white"/>
<path d="M55.7438 18.3224C55.7438 16.433 56.1915 14.9116 57.0869 13.7583C57.9899 12.6049 59.2039 12.0282 60.7291 12.0282C62.0797 12.0282 63.1307 12.4911 63.8819 13.4168L64.0185 12.2559H67.0005V24.1613C67.0005 25.2388 66.7539 26.1759 66.2607 26.9726C65.7751 27.7694 65.0884 28.3764 64.2006 28.7937C63.3128 29.2111 62.2732 29.4198 61.0819 29.4198C60.179 29.4198 59.2988 29.2376 58.4413 28.8734C57.5839 28.5168 56.9351 28.0539 56.495 27.4848L57.9519 25.4816C58.7714 26.3998 59.7654 26.8588 60.934 26.8588C61.8066 26.8588 62.4857 26.6236 62.9713 26.1532C63.457 25.6903 63.6998 25.0301 63.6998 24.1727V23.5126C62.941 24.37 61.9432 24.7987 60.7063 24.7987C59.2267 24.7987 58.0278 24.222 57.1097 23.0687C56.1991 21.9077 55.7438 20.3712 55.7438 18.459V18.3224ZM59.0332 18.5614C59.0332 19.6769 59.257 20.5533 59.7047 21.1907C60.1524 21.8204 60.767 22.1353 61.5486 22.1353C62.5502 22.1353 63.2673 21.7597 63.6998 21.0085V15.8298C63.2597 15.0786 62.5502 14.703 61.5714 14.703C60.7822 14.703 60.16 15.0255 59.7047 15.6704C59.257 16.3154 59.0332 17.2791 59.0332 18.5614Z" fill="white"/>
<path d="M75.2069 24.7987C73.4009 24.7987 71.9289 24.2448 70.7907 23.137C69.6601 22.0291 69.0948 20.5533 69.0948 18.7094V18.3907C69.0948 17.1539 69.3338 16.0498 69.8118 15.0786C70.2899 14.0997 70.9652 13.3485 71.8378 12.825C72.718 12.2938 73.7196 12.0282 74.8426 12.0282C76.5272 12.0282 77.8512 12.5594 78.8149 13.6217C79.7862 14.684 80.2718 16.1902 80.2718 18.1403V19.4834H72.4297C72.5359 20.2877 72.8546 20.9327 73.3858 21.4183C73.9245 21.9039 74.6036 22.1467 75.4231 22.1467C76.6903 22.1467 77.6805 21.6877 78.3938 20.7695L80.01 22.5792C79.5168 23.2773 78.8491 23.8237 78.0068 24.2182C77.1645 24.6052 76.2312 24.7987 75.2069 24.7987ZM74.8313 14.6916C74.1787 14.6916 73.6475 14.9116 73.2378 15.3517C72.8356 15.7918 72.5776 16.4216 72.4638 17.2411H77.0393V16.9794C77.0242 16.2509 76.8269 15.6894 76.4475 15.2948C76.0681 14.8927 75.5293 14.6916 74.8313 14.6916Z" fill="white"/>
<path d="M85.6213 24.5711H82.3205V7.0885H85.6213V24.5711Z" fill="white"/>
<path d="M97.7771 18.7322V24.5711H94.3626V7.99905H100.827C102.072 7.99905 103.165 8.22669 104.105 8.68196C105.054 9.13724 105.782 9.78601 106.291 10.6283C106.799 11.4629 107.053 12.4152 107.053 13.4851C107.053 15.1089 106.496 16.3913 105.38 17.3322C104.272 18.2655 102.736 18.7322 100.771 18.7322H97.7771ZM97.7771 15.9664H100.827C101.73 15.9664 102.417 15.7539 102.888 15.329C103.366 14.9041 103.605 14.297 103.605 13.5079C103.605 12.696 103.366 12.0396 102.888 11.5388C102.41 11.038 101.749 10.78 100.907 10.7648H97.7771V15.9664Z" fill="white"/>
<path d="M116.113 15.3404C115.666 15.2797 115.271 15.2493 114.93 15.2493C113.685 15.2493 112.869 15.6704 112.483 16.5127V24.5711H109.193V12.2559H112.3L112.391 13.7241C113.052 12.5935 113.966 12.0282 115.134 12.0282C115.499 12.0282 115.84 12.0776 116.159 12.1762L116.113 15.3404Z" fill="white"/>
<path d="M116.785 18.2997C116.785 17.078 117.02 15.9891 117.491 15.0331C117.961 14.077 118.636 13.3372 119.517 12.8136C120.404 12.29 121.432 12.0282 122.601 12.0282C124.263 12.0282 125.617 12.5366 126.664 13.5534C127.719 14.5702 128.307 15.9512 128.429 17.6964L128.451 18.5387C128.451 20.4281 127.924 21.9456 126.869 23.0914C125.814 24.2296 124.399 24.7987 122.624 24.7987C120.848 24.7987 119.429 24.2296 118.367 23.0914C117.312 21.9532 116.785 20.4053 116.785 18.4476V18.2997ZM120.074 18.5387C120.074 19.7072 120.294 20.6026 120.734 21.2248C121.174 21.8394 121.804 22.1467 122.624 22.1467C123.421 22.1467 124.043 21.8432 124.49 21.2362C124.938 20.6216 125.162 19.6427 125.162 18.2997C125.162 17.1539 124.938 16.2661 124.49 15.6363C124.043 15.0065 123.413 14.6916 122.601 14.6916C121.797 14.6916 121.174 15.0065 120.734 15.6363C120.294 16.2585 120.074 17.226 120.074 18.5387Z" fill="white"/>
<path d="M134.415 9.22829V12.2559H136.521V14.6688H134.415V20.8151C134.415 21.2703 134.503 21.5966 134.677 21.7939C134.852 21.9912 135.186 22.0898 135.679 22.0898C136.043 22.0898 136.366 22.0633 136.646 22.0101V24.5028C136.001 24.7001 135.337 24.7987 134.654 24.7987C132.348 24.7987 131.172 23.634 131.126 21.3045V14.6688H129.328V12.2559H131.126V9.22829H134.415Z" fill="white"/>
<path d="M137.5 18.2997C137.5 17.078 137.735 15.9891 138.206 15.0331C138.676 14.077 139.351 13.3372 140.232 12.8136C141.119 12.29 142.147 12.0282 143.316 12.0282C144.978 12.0282 146.332 12.5366 147.379 13.5534C148.434 14.5702 149.022 15.9512 149.144 17.6964L149.166 18.5387C149.166 20.4281 148.639 21.9456 147.584 23.0914C146.53 24.2296 145.114 24.7987 143.339 24.7987C141.563 24.7987 140.144 24.2296 139.082 23.0914C138.027 21.9532 137.5 20.4053 137.5 18.4476V18.2997ZM140.789 18.5387C140.789 19.7072 141.009 20.6026 141.449 21.2248C141.89 21.8394 142.519 22.1467 143.339 22.1467C144.136 22.1467 144.758 21.8432 145.205 21.2362C145.653 20.6216 145.877 19.6427 145.877 18.2997C145.877 17.1539 145.653 16.2661 145.205 15.6363C144.758 15.0065 144.128 14.6916 143.316 14.6916C142.512 14.6916 141.89 15.0065 141.449 15.6363C141.009 16.2585 140.789 17.226 140.789 18.5387Z" fill="white"/>
<path d="M156.314 22.1467C156.921 22.1467 157.414 21.9798 157.794 21.6459C158.173 21.3121 158.37 20.8682 158.386 20.3142H161.47C161.463 21.1489 161.235 21.9153 160.787 22.6134C160.34 23.3039 159.725 23.8426 158.943 24.2296C158.169 24.609 157.312 24.7987 156.371 24.7987C154.611 24.7987 153.222 24.241 152.205 23.1256C151.189 22.0026 150.68 20.4546 150.68 18.4818V18.2655C150.68 16.3685 151.185 14.8547 152.194 13.7241C153.203 12.5935 154.588 12.0282 156.348 12.0282C157.889 12.0282 159.122 12.4683 160.047 13.3485C160.981 14.2211 161.455 15.3859 161.47 16.8428H158.386C158.37 16.2054 158.173 15.6894 157.794 15.2948C157.414 14.8927 156.914 14.6916 156.291 14.6916C155.525 14.6916 154.945 14.9724 154.55 15.5339C154.163 16.0878 153.969 16.9907 153.969 18.2427V18.5842C153.969 19.8514 154.163 20.7619 154.55 21.3159C154.937 21.8698 155.525 22.1467 156.314 22.1467Z" fill="white"/>
<path d="M162.836 18.2997C162.836 17.078 163.071 15.9891 163.542 15.0331C164.012 14.077 164.687 13.3372 165.568 12.8136C166.455 12.29 167.484 12.0282 168.652 12.0282C170.314 12.0282 171.668 12.5366 172.715 13.5534C173.77 14.5702 174.358 15.9512 174.48 17.6964L174.502 18.5387C174.502 20.4281 173.975 21.9456 172.92 23.0914C171.866 24.2296 170.45 24.7987 168.675 24.7987C166.899 24.7987 165.48 24.2296 164.418 23.0914C163.363 21.9532 162.836 20.4053 162.836 18.4476V18.2997ZM166.125 18.5387C166.125 19.7072 166.345 20.6026 166.785 21.2248C167.226 21.8394 167.855 22.1467 168.675 22.1467C169.472 22.1467 170.094 21.8432 170.541 21.2362C170.989 20.6216 171.213 19.6427 171.213 18.2997C171.213 17.1539 170.989 16.2661 170.541 15.6363C170.094 15.0065 169.464 14.6916 168.652 14.6916C167.848 14.6916 167.226 15.0065 166.785 15.6363C166.345 16.2585 166.125 17.226 166.125 18.5387Z" fill="white"/>
<path d="M180 24.5711H176.699V7.0885H180V24.5711Z" fill="white"/>
</svg>
