<svg width="25" height="25" viewBox="0 0 25 25" fill="none" xmlns="http://www.w3.org/2000/svg">
<path d="M24.5531 24.4557H16.8904L11.7964 16.8794L19.2756 17.0305L24.5531 24.4557Z" fill="white"/>
<path d="M24.5531 9.14119C24.5531 11.6666 23.5278 13.9546 21.8765 15.6059C20.2253 17.2571 17.9373 18.2824 15.4118 18.2824H12.7677L8.54781 12.2602H15.3471C16.1997 12.2602 16.9767 11.9149 17.5379 11.3537C18.0992 10.7924 18.4445 10.0154 18.4445 9.16277C18.4445 7.44677 17.0523 6.06534 15.3471 6.06534H11.6668L7.57649 0.248193L7.40381 0.0107635H15.3902C20.4627 -2.8979e-05 24.5531 4.09032 24.5531 9.14119Z" fill="white"/>
<path d="M12.3575 9.10885H11.2783L4.8999 0L5.98994 0.010803L12.3575 9.10885Z" fill="white"/>
<path d="M7.4576 9.10885H6.36756L0 0L1.09004 0.010803L7.4576 9.10885Z" fill="white"/>
<path d="M9.9073 9.10885H8.82806L2.44971 0L3.53974 0.010803L9.9073 9.10885Z" fill="white"/>
</svg>
